SplineFontDB: 3.0
FontName: Bailleul-Italic
FullName: Bailleul Italic
FamilyName: Bailleul Roman
Weight: Book
Copyright: Copyright (c) 2019 Yomli\nCopyright (c) 1850 Bailleul et Cie\nCopyright (c) 1800 Justus Erich Walbaum
Version: 1
ItalicAngle: -12
UnderlinePosition: -125
UnderlineWidth: 50
Ascent: 800
Descent: 200
InvalidEm: 0
sfntRevision: 0x00013333
LayerCount: 2
Layer: 0 1 "Arri+AOgA-re" 1
Layer: 1 1 "Avant" 0
XUID: [1021 871 2113692927 15650]
StyleMap: 0x0001
FSType: 0
OS2Version: 2
OS2_WeightWidthSlopeOnly: 0
OS2_UseTypoMetrics: 0
CreationTime: 1201742810
ModificationTime: 1551981383
PfmFamily: 17
TTFWeight: 400
TTFWidth: 5
LineGap: 0
VLineGap: 0
Panose: 2 0 5 3 8 0 0 9 0 4
OS2TypoAscent: 721
OS2TypoAOffset: 0
OS2TypoDescent: -220
OS2TypoDOffset: 0
OS2TypoLinegap: 71
OS2WinAscent: 952
OS2WinAOffset: 0
OS2WinDescent: 254
OS2WinDOffset: 0
HheadAscent: 952
HheadAOffset: 0
HheadDescent: -254
HheadDOffset: 0
OS2SubXSize: 204
OS2SubYSize: 204
OS2SubXOff: 0
OS2SubYOff: 286
OS2SupXSize: 204
OS2SupYSize: 204
OS2SupXOff: 0
OS2SupYOff: 286
OS2StrikeYSize: 50
OS2StrikeYPos: 250
OS2Vendor: 'YOM '
OS2CodePages: 60000001.80d40000
OS2UnicodeRanges: 8000002f.40000048.00000000.00000000
Lookup: 1 0 0 "'smcp' Bas-de-casse vers petites capitales dans Latin lookup 0" { "sous-table 'smcp' Bas-de-casse vers petites capitales dans Latin lookup 0"  } ['smcp' ('latn' <'dflt' > ) ]
Lookup: 1 0 0 "'c2sc' Capitales vers petites capitales dans Latin lookup 0" { "sous-table 'c2sc' Capitales vers petites capitales dans Latin lookup 0"  } ['c2sc' ('latn' <'dflt' > ) ]
Lookup: 1 0 0 "'sinf' Indices scientifiques lookups0" { "sous-table 'sinf' Indices scientifiques lookups0"  } ['sinf' ('DFLT' <'dflt' > ) ]
Lookup: 1 0 0 "'numr' Num+AOkA-rateurs lookups0" { "sous-table 'numr' Num+AOkA-rateurs lookups0"  } ['numr' ('DFLT' <'dflt' > ) ]
Lookup: 1 0 0 "'dnom' D+AOkA-nominateurs lookups0" { "sous-table 'dnom' D+AOkA-nominateurs lookups0"  } ['dnom' ('DFLT' <'dflt' > ) ]

StartChar: .notdef
Encoding: 229 -1 0
Width: 432
Flags: W
TeX: 0 0
HStem: 0 33<66 333> 633 33<66 333>
VStem: 33 33<33 633> 333 33<33 633>
LayerCount: 2
Fore
SplineSet
33 0 m 1,0,-1
 33 666 l 1,1,-1
 366 666 l 1,2,-1
 366 0 l 1,3,-1
 33 0 l 1,0,-1
66 33 m 1,4,-1
 333 33 l 1,5,-1
 333 633 l 1,6,-1
 66 633 l 1,7,-1
 66 33 l 1,4,-1
EndSplineSet
EndChar

StartChar: exclam
Encoding: 1 33 4
Width: 296
Flags: W
TeX: 721 6
HStem: -6 126<50.08 137.92>
VStem: 31 126<13.08 100.92> 202 126<526.709 623.375>
LayerCount: 2
Fore
SplineSet
146 174 m 1,0,-1
 123 174 l 1,1,-1
 202 561 l 2,2,3
 220 656 220 656 275 656 c 0,4,5
 328 656 328 656 328 598 c 0,6,7
 328 568 328 568 291 488 c 2,8,-1
 146 174 l 1,0,-1
31 57 m 128,-1,10
 31 83 31 83 49.5 101.5 c 128,-1,11
 68 120 68 120 94 120 c 128,-1,12
 120 120 120 120 138.5 101.5 c 128,-1,13
 157 83 157 83 157 57 c 128,-1,14
 157 31 157 31 138.5 12.5 c 128,-1,15
 120 -6 120 -6 94 -6 c 128,-1,16
 68 -6 68 -6 49.5 12.5 c 128,-1,9
 31 31 31 31 31 57 c 128,-1,10
EndSplineSet
EndChar

StartChar: quotedbl
Encoding: 2 34 5
Width: 444
Flags: W
TeX: 727 -403
HStem: 439 288<184.269 225.731 335.269 376.731>
VStem: 160 90<470.015 720.848> 311 90<470.015 720.848>
LayerCount: 2
Fore
SplineSet
333 470 m 2,0,-1
 316 620 l 2,1,2
 311 658 311 658 311 664 c 0,3,4
 311 727 311 727 356 727 c 128,-1,5
 401 727 401 727 401 664 c 0,6,7
 401 658 401 658 396 620 c 2,8,-1
 379 470 l 2,9,10
 376 439 376 439 356 439 c 128,-1,11
 336 439 336 439 333 470 c 2,0,-1
182 470 m 2,12,-1
 165 620 l 2,13,14
 160 658 160 658 160 664 c 0,15,16
 160 727 160 727 205 727 c 128,-1,17
 250 727 250 727 250 664 c 0,18,19
 250 658 250 658 245 620 c 2,20,-1
 228 470 l 2,21,22
 225 439 225 439 205 439 c 128,-1,23
 185 439 185 439 182 470 c 2,12,-1
EndSplineSet
EndChar

StartChar: numbersign
Encoding: 3 35 6
Width: 556
Flags: W
TeX: 694 0
HStem: 0 21G<123 187.802 313 377.802> 207 60<55 152 223 342 413 510> 427 60<86 183 254 373 444 541> 674 20G<218.198 283 408.198 473>
LayerCount: 2
Fore
SplineSet
313 0 m 1,0,-1
 342 207 l 1,1,-1
 214 207 l 1,2,-1
 185 0 l 1,3,-1
 123 0 l 1,4,-1
 152 207 l 1,5,-1
 47 207 l 1,6,-1
 55 267 l 1,7,-1
 161 267 l 1,8,-1
 183 427 l 1,9,-1
 78 427 l 1,10,-1
 86 487 l 1,11,-1
 192 487 l 1,12,-1
 221 694 l 1,13,-1
 283 694 l 1,14,-1
 254 487 l 1,15,-1
 382 487 l 1,16,-1
 411 694 l 1,17,-1
 473 694 l 1,18,-1
 444 487 l 1,19,-1
 549 487 l 1,20,-1
 541 427 l 1,21,-1
 435 427 l 1,22,-1
 413 267 l 1,23,-1
 518 267 l 1,24,-1
 510 207 l 1,25,-1
 404 207 l 1,26,-1
 375 0 l 1,27,-1
 313 0 l 1,0,-1
351 267 m 1,28,-1
 373 427 l 1,29,-1
 245 427 l 1,30,-1
 223 267 l 1,31,-1
 351 267 l 1,28,-1
EndSplineSet
EndChar

StartChar: dollar
Encoding: 4 36 7
Width: 556
Flags: W
TeX: 800 106
HStem: -12 25<180.21 197 241 326.341> 681 25<288.248 385>
VStem: 47 25<232.288 255.12> 140 66<466 595.539> 446 66<117.271 220.79> 502 27<485 526.282>
LayerCount: 2
Fore
SplineSet
319 295 m 1,0,-1
 241 13 l 1,1,2
 319 13 319 13 382.5 48.5 c 128,-1,3
 446 84 446 84 446 157 c 0,4,5
 446 202 446 202 414 231.5 c 128,-1,6
 382 261 382 261 319 295 c 1,0,-1
320 443 m 1,7,-1
 385 678 l 1,8,9
 372 681 372 681 346 681 c 0,10,11
 295 681 295 681 250.5 646 c 128,-1,12
 206 611 206 611 206 562 c 0,13,14
 206 521 206 521 234.5 495.5 c 128,-1,15
 263 470 263 470 320 443 c 1,7,-1
172 -97 m 1,16,-1
 197 -9 l 1,17,18
 89 7 89 7 -5 67 c 1,19,-1
 47 258 l 1,20,-1
 72 254 l 1,21,22
 65 225 65 225 65 188 c 0,23,24
 65 116 65 116 104 73 c 128,-1,25
 143 30 143 30 204 19 c 1,26,-1
 285 314 l 1,27,28
 215 352 215 352 177.5 392.5 c 128,-1,29
 140 433 140 433 140 499 c 0,30,31
 140 587 140 587 198 646.5 c 128,-1,32
 256 706 256 706 348 706 c 0,33,34
 377 706 377 706 392 704 c 1,35,-1
 410 770 l 1,36,-1
 449 770 l 1,37,-1
 429 698 l 1,38,39
 489 689 489 689 555 649 c 1,40,-1
 529 485 l 1,41,-1
 502 485 l 1,42,43
 505 504 505 504 505 527 c 0,44,45
 505 574 505 574 482.5 610.5 c 128,-1,46
 460 647 460 647 420 665 c 1,47,-1
 354 425 l 1,48,49
 389 408 389 408 412 393 c 128,-1,50
 435 378 435 378 460.5 353.5 c 128,-1,51
 486 329 486 329 499 295 c 128,-1,52
 512 261 512 261 512 218 c 0,53,54
 512 141 512 141 472 87.5 c 128,-1,55
 432 34 432 34 371 11 c 128,-1,56
 310 -12 310 -12 235 -12 c 1,57,-1
 211 -97 l 1,58,-1
 172 -97 l 1,16,-1
EndSplineSet
EndChar

StartChar: percent
Encoding: 5 37 8
Width: 1000
Flags: W
TeX: 712 18
HStem: -12 25<676.855 756.812> 299 25<716.188 796.145> 370 25<226.855 306.812> 681 25<266.188 346.145> 695 20G<697.908 758>
VStem: 121 72<441.502 601.841> 380 72<474.159 634.498> 571 72<59.5024 219.841> 830 72<92.1595 252.498>
LayerCount: 2
Fore
SplineSet
121 520 m 0,0,1
 121 597 121 597 177 651.5 c 128,-1,2
 233 706 233 706 306 706 c 0,3,4
 375 706 375 706 413.5 659 c 128,-1,5
 452 612 452 612 452 556 c 0,6,7
 452 479 452 479 396 424.5 c 128,-1,8
 340 370 340 370 267 370 c 0,9,10
 198 370 198 370 159.5 417 c 128,-1,11
 121 464 121 464 121 520 c 0,0,1
193 504 m 0,12,13
 193 395 193 395 268 395 c 0,14,15
 301 395 301 395 328 426.5 c 128,-1,16
 355 458 355 458 367.5 498 c 128,-1,17
 380 538 380 538 380 572 c 0,18,19
 380 681 380 681 305 681 c 0,20,21
 272 681 272 681 245 649.5 c 128,-1,22
 218 618 218 618 205.5 578 c 128,-1,23
 193 538 193 538 193 504 c 0,12,13
571 138 m 0,24,25
 571 215 571 215 627 269.5 c 128,-1,26
 683 324 683 324 756 324 c 0,27,28
 825 324 825 324 863.5 277 c 128,-1,29
 902 230 902 230 902 174 c 0,30,31
 902 97 902 97 846 42.5 c 128,-1,32
 790 -12 790 -12 717 -12 c 0,33,34
 648 -12 648 -12 609.5 35 c 128,-1,35
 571 82 571 82 571 138 c 0,24,25
643 122 m 0,36,37
 643 13 643 13 718 13 c 0,38,39
 751 13 751 13 778 44.5 c 128,-1,40
 805 76 805 76 817.5 116 c 128,-1,41
 830 156 830 156 830 190 c 0,42,43
 830 299 830 299 755 299 c 0,44,45
 722 299 722 299 695 267.5 c 128,-1,46
 668 236 668 236 655.5 196 c 128,-1,47
 643 156 643 156 643 122 c 0,36,37
265 -21 m 1,48,-1
 710 715 l 1,49,-1
 758 715 l 1,50,-1
 313 -21 l 1,51,-1
 265 -21 l 1,48,-1
EndSplineSet
EndChar

StartChar: ampersand
Encoding: 6 38 9
Width: 667
Flags: W
TeX: 721 12
HStem: -6 60<407.391 481.719> -6 48<160.463 255.101> 291 120<551.477 626.932> 656 25<441.817 506.695>
VStem: 21 96<92.277 260.37> 264 96<203.101 408.793> 516 54<543.082 653.201> 543 102<306.987 374.407>
LayerCount: 2
Fore
SplineSet
264 315 m 0,0,1
 264 362 264 362 267 409 c 1,2,3
 188 383 188 383 152.5 330 c 128,-1,4
 117 277 117 277 117 192 c 0,5,6
 117 126 117 126 143.5 84 c 128,-1,7
 170 42 170 42 223 42 c 0,8,9
 244 42 244 42 265 53.5 c 128,-1,10
 286 65 286 65 295 80 c 1,11,12
 264 194 264 194 264 315 c 0,0,1
516 606 m 128,-1,14
 516 656 516 656 479 656 c 0,15,16
 444 656 444 656 418 620 c 128,-1,17
 392 584 392 584 381 543 c 128,-1,18
 370 502 370 502 367 464 c 1,19,20
 424 480 424 480 470 518 c 128,-1,13
 516 556 516 556 516 606 c 128,-1,14
569 151 m 2,21,-1
 595 148 l 1,22,23
 510 -6 510 -6 407 -6 c 0,24,25
 377 -6 377 -6 350.5 11.5 c 128,-1,26
 324 29 324 29 309 56 c 1,27,28
 243 -6 243 -6 175 -6 c 128,-1,29
 107 -6 107 -6 64 40.5 c 128,-1,30
 21 87 21 87 21 163 c 0,31,32
 21 215 21 215 43 260.5 c 128,-1,33
 65 306 65 306 103 340 c 128,-1,34
 141 374 141 374 182.5 398 c 128,-1,35
 224 422 224 422 271 440 c 1,36,37
 279 493 279 493 306.5 547 c 128,-1,38
 334 601 334 601 381 641 c 128,-1,39
 428 681 428 681 481 681 c 0,40,41
 570 681 570 681 570 602 c 0,42,43
 570 573 570 573 556 548.5 c 128,-1,44
 542 524 542 524 520 508 c 128,-1,45
 498 492 498 492 470 477 c 128,-1,46
 442 462 442 462 415.5 453.5 c 128,-1,47
 389 445 389 445 365 436 c 1,48,49
 360 406 360 406 360 371 c 0,50,51
 360 284 360 284 372 200 c 1,52,-1
 453 321 l 2,53,54
 485 369 485 369 511 390 c 128,-1,55
 537 411 537 411 573 411 c 0,56,57
 601 411 601 411 623 393 c 128,-1,58
 645 375 645 375 645 348 c 0,59,60
 645 322 645 322 631 306.5 c 128,-1,61
 617 291 617 291 592 291 c 0,62,63
 543 291 543 291 543 339 c 0,64,65
 543 356 543 356 551 375 c 1,66,67
 535 373 535 373 521 363.5 c 128,-1,68
 507 354 507 354 497 341.5 c 128,-1,69
 487 329 487 329 476 313.5 c 128,-1,70
 465 298 465 298 456 282 c 2,71,-1
 378 163 l 1,72,73
 385 54 385 54 460 54 c 0,74,75
 480 53 480 53 498.5 64.5 c 128,-1,76
 517 76 517 76 524 83.5 c 128,-1,77
 531 91 531 91 549.5 120.5 c 128,-1,78
 568 150 568 150 569 151 c 2,21,-1
EndSplineSet
EndChar

StartChar: quoteright
Encoding: 212 8217 10
Width: 259
Flags: W
TeX: 727 -403
HStem: 601 126<175.111 248.561>
VStem: 249 54<557.875 611>
LayerCount: 2
Fore
SplineSet
129 439 m 1,0,-1
 121 466 l 1,1,2
 174 489 174 489 211.5 526 c 128,-1,3
 249 563 249 563 249 611 c 1,4,5
 235 601 235 601 216 601 c 0,6,7
 187 601 187 601 171 617.5 c 128,-1,8
 155 634 155 634 155 661 c 128,-1,9
 155 688 155 688 174.5 707.5 c 128,-1,10
 194 727 194 727 221 727 c 0,11,12
 260 727 260 727 281.5 700.5 c 128,-1,13
 303 674 303 674 303 635 c 0,14,15
 303 570 303 570 251.5 520 c 128,-1,16
 200 470 200 470 129 439 c 1,0,-1
EndSplineSet
EndChar

StartChar: parenleft
Encoding: 8 40 11
Width: 407
Flags: W
TeX: 727 261
HStem: 690 25<484.093 514>
VStem: 65 90<70.3588 294.186>
LayerCount: 2
Fore
SplineSet
514 715 m 1,0,-1
 514 690 l 1,1,2
 427 663 427 663 356 600.5 c 128,-1,3
 285 538 285 538 242.5 459 c 128,-1,4
 200 380 200 380 177.5 296.5 c 128,-1,5
 155 213 155 213 155 136 c 0,6,7
 155 -30 155 -30 275 -148 c 1,8,-1
 259 -166 l 1,9,10
 65 -2 65 -2 65 197 c 0,11,12
 65 387 65 387 192.5 528 c 128,-1,13
 320 669 320 669 514 715 c 1,0,-1
EndSplineSet
EndChar

StartChar: parenright
Encoding: 9 41 12
Width: 407
Flags: W
TeX: 727 261
HStem: -166 25<-96 -66.0934> 695 20G<143 256>
VStem: 263 90<254.814 478.641>
LayerCount: 2
Fore
SplineSet
-96 -166 m 1,0,-1
 -96 -141 l 1,1,2
 -9 -114 -9 -114 62 -51.5 c 128,-1,3
 133 11 133 11 175.5 90 c 128,-1,4
 218 169 218 169 240.5 252.5 c 128,-1,5
 263 336 263 336 263 413 c 0,6,7
 263 579 263 579 143 697 c 1,8,-1
 159 715 l 1,9,10
 353 551 353 551 353 352 c 0,11,12
 353 162 353 162 225.5 21 c 128,-1,13
 98 -120 98 -120 -96 -166 c 1,0,-1
EndSplineSet
EndChar

StartChar: asterisk
Encoding: 10 42 13
Width: 352
Flags: W
TeX: 715 -391
HStem: 421 86.5<116.439 190.977> 503 96<325.294 410.655> 566 101<112.926 182.996> 695 20G<273.5 294>
VStem: 246 91<393.924 474.366 603.079 685.319>
LayerCount: 2
Fore
SplineSet
247 424 m 2,0,-1
 244 526 l 1,1,2
 226 508 226 508 212.5 480 c 128,-1,3
 199 452 199 452 187 436.5 c 128,-1,4
 175 421 175 421 151 421 c 0,5,6
 130 421 130 421 116 436.5 c 128,-1,7
 102 452 102 452 102 473 c 0,8,9
 102 495 102 495 127 507.5 c 128,-1,10
 152 520 152 520 185 527.5 c 128,-1,11
 218 535 218 535 227 544 c 1,12,13
 219 552 219 552 157 566 c 0,14,15
 126 574 126 574 112.5 583 c 128,-1,16
 99 592 99 592 99 612 c 128,-1,17
 99 632 99 632 113 649.5 c 128,-1,18
 127 667 127 667 147 667 c 0,19,20
 162 667 162 667 174.5 654.5 c 128,-1,21
 187 642 187 642 206.5 614 c 128,-1,22
 226 586 226 586 243 567 c 1,23,24
 246 578 246 578 246 594 c 0,25,26
 246 609 246 609 242 635 c 128,-1,27
 238 661 238 661 238 665 c 0,28,29
 238 687 238 687 250 701 c 128,-1,30
 262 715 262 715 285 715 c 0,31,32
 303 715 303 715 320 702.5 c 128,-1,33
 337 690 337 690 337 673 c 0,34,35
 337 654 337 654 305.5 615.5 c 128,-1,36
 274 577 274 577 271 559 c 1,37,38
 289 560 289 560 329.5 579.5 c 128,-1,39
 370 599 370 599 384 599 c 0,40,41
 404 599 404 599 413 581.5 c 128,-1,42
 422 564 422 564 422 543 c 0,43,44
 422 526 422 526 411 514.5 c 128,-1,45
 400 503 400 503 383 503 c 0,46,47
 369 503 369 503 329 518 c 128,-1,48
 289 533 289 533 269 534 c 1,49,50
 279 513 279 513 311 479.5 c 128,-1,51
 343 446 343 446 343 429 c 0,52,53
 343 407 343 407 327 393.5 c 128,-1,54
 311 380 311 380 289 380 c 0,55,56
 268 380 268 380 257.5 392.5 c 128,-1,57
 247 405 247 405 247 424 c 2,0,-1
EndSplineSet
EndChar

StartChar: plus
Encoding: 11 43 14
Width: 600
Flags: W
TeX: 502 0
HStem: 0 21G<267 333> 218 66<49 267 333 551> 482 20G<267 333>
VStem: 267 66<0 218 284 502>
LayerCount: 2
Fore
SplineSet
267 284 m 1,0,-1
 267 502 l 1,1,-1
 333 502 l 1,2,-1
 333 284 l 1,3,-1
 551 284 l 1,4,-1
 551 218 l 1,5,-1
 333 218 l 1,6,-1
 333 0 l 1,7,-1
 267 0 l 1,8,-1
 267 218 l 1,9,-1
 49 218 l 1,10,-1
 49 284 l 1,11,-1
 267 284 l 1,0,-1
EndSplineSet
EndChar

StartChar: comma
Encoding: 12 44 15
Width: 278
Flags: W
TeX: 132 192
HStem: -6 126<44.0504 119.18>
VStem: 120 54<-49.1252 4>
LayerCount: 2
Fore
SplineSet
0 -168 m 1,0,-1
 -8 -141 l 1,1,2
 45 -118 45 -118 82.5 -81 c 128,-1,3
 120 -44 120 -44 120 4 c 1,4,5
 106 -6 106 -6 88 -6 c 0,6,7
 64 -6 64 -6 45 11.5 c 128,-1,8
 26 29 26 29 26 54 c 0,9,10
 26 82 26 82 43.5 101 c 128,-1,11
 61 120 61 120 93 120 c 0,12,13
 131 120 131 120 152.5 93.5 c 128,-1,14
 174 67 174 67 174 28 c 0,15,16
 174 -37 174 -37 122.5 -87 c 128,-1,17
 71 -137 71 -137 0 -168 c 1,0,-1
EndSplineSet
EndChar

StartChar: hyphen
Encoding: 13 45 16
Width: 296
Flags: W
TeX: 266 -206
HStem: 209 54<29 253>
VStem: 13 254
LayerCount: 2
Fore
SplineSet
13 209 m 1,0,-1
 29 263 l 1,1,-1
 267 263 l 1,2,-1
 253 209 l 1,3,-1
 13 209 l 1,0,-1
EndSplineSet
EndChar

StartChar: period
Encoding: 14 46 17
Width: 278
Flags: W
TeX: 132 6
HStem: -6 126<45.08 132.92>
VStem: 26 126<13.08 100.92>
LayerCount: 2
Fore
SplineSet
26 57 m 128,-1,1
 26 83 26 83 44.5 101.5 c 128,-1,2
 63 120 63 120 89 120 c 128,-1,3
 115 120 115 120 133.5 101.5 c 128,-1,4
 152 83 152 83 152 57 c 128,-1,5
 152 31 152 31 133.5 12.5 c 128,-1,6
 115 -6 115 -6 89 -6 c 128,-1,7
 63 -6 63 -6 44.5 12.5 c 128,-1,0
 26 31 26 31 26 57 c 128,-1,1
EndSplineSet
EndChar

StartChar: slash
Encoding: 15 47 18
Width: 370
Flags: W
TeX: 727 12
HStem: 707 20G<399.982 485>
LayerCount: 2
Fore
SplineSet
-68 -12 m 1,0,-1
 413 727 l 1,1,-1
 485 727 l 1,2,-1
 4 -12 l 1,3,-1
 -68 -12 l 1,0,-1
EndSplineSet
EndChar

StartChar: zero
Encoding: 16 48 19
Width: 556
Flags: W
TeX: 706 12
HStem: -12 25<159.406 237.45> 681 25<344.155 429.43>
VStem: 42 84<69.9092 256.688> 456 84<438.06 608.922>
LayerCount: 2
Fore
SplineSet
42 197 m 0,0,1
 42 249 42 249 65 330.5 c 128,-1,2
 88 412 88 412 128.5 498 c 128,-1,3
 169 584 169 584 237.5 645 c 128,-1,4
 306 706 306 706 385 706 c 0,5,6
 462 706 462 706 501 642.5 c 128,-1,7
 540 579 540 579 540 497 c 0,8,9
 540 373 540 373 489 253.5 c 128,-1,10
 438 134 438 134 358 61 c 128,-1,11
 278 -12 278 -12 197 -12 c 0,12,13
 42 -12 42 -12 42 197 c 0,0,1
126 112 m 0,14,15
 126 75 126 75 143 44 c 128,-1,16
 160 13 160 13 194 13 c 0,17,18
 248 13 248 13 299.5 85.5 c 128,-1,19
 351 158 351 158 383.5 256.5 c 128,-1,20
 416 355 416 355 436 445.5 c 128,-1,21
 456 536 456 536 456 582 c 0,22,23
 456 639 456 639 438.5 660 c 128,-1,24
 421 681 421 681 388 681 c 0,25,26
 334 681 334 681 282.5 608.5 c 128,-1,27
 231 536 231 536 198.5 437.5 c 128,-1,28
 166 339 166 339 146 248.5 c 128,-1,29
 126 158 126 158 126 112 c 0,14,15
EndSplineSet
Substitution2: "sous-table 'sinf' Indices scientifiques lookups0" zero.inferior
Substitution2: "sous-table 'numr' Num+AOkA-rateurs lookups0" zero.numerator
Substitution2: "sous-table 'dnom' D+AOkA-nominateurs lookups0" zero.denominator
Substitution2: "sous-table 'subs' Indice lookups0" zero.subscript
Substitution2: "sous-table 'sups' Exposant lookups0" zero.superior
EndChar

StartChar: one
Encoding: 17 49 20
Width: 556
Flags: W
TeX: 715 0
HStem: 0 25<57 156 259 362>
LayerCount: 2
Fore
SplineSet
156 456 m 1,0,-1
 144 478 l 1,1,2
 334 602 334 602 435 706 c 1,3,-1
 460 706 l 1,4,-1
 259 25 l 1,5,-1
 368 25 l 1,6,-1
 362 0 l 1,7,-1
 51 0 l 1,8,-1
 57 25 l 1,9,-1
 156 25 l 1,10,-1
 311 559 l 1,11,-1
 309 559 l 1,12,-1
 156 456 l 1,0,-1
EndSplineSet
Substitution2: "sous-table 'sinf' Indices scientifiques lookups0" one.inferior
Substitution2: "sous-table 'numr' Num+AOkA-rateurs lookups0" one.numerator
Substitution2: "sous-table 'dnom' D+AOkA-nominateurs lookups0" one.denominator
Substitution2: "sous-table 'subs' Indice lookups0" one.subscript
Substitution2: "sous-table 'sups' Exposant lookups0" one.superior
EndChar

StartChar: two
Encoding: 18 50 21
Width: 515
Flags: W
TeX: 706 0
HStem: 0 96<149 403> 449 120<219.099 291.215> 664 42<300.841 437.594>
LayerCount: 2
Fore
SplineSet
215 568 m 1,0,1
 211 547 211 547 219 551 c 0,2,3
 222 555 222 555 247 564 c 0,4,5
 260 569 260 569 274 569 c 0,6,7
 326 569 326 569 313 512 c 0,8,9
 306 480 306 480 284.5 464.5 c 128,-1,10
 263 449 263 449 235 449 c 0,11,12
 195 449 195 449 182 479 c 0,13,14
 168 512 168 512 180 554 c 0,15,16
 203 638 203 638 271 672 c 0,17,18
 337 706 337 706 430 706 c 0,19,20
 516 706 516 706 557 651.5 c 128,-1,21
 598 597 598 597 577 506 c 0,22,23
 563 444 563 444 510.5 384 c 128,-1,24
 458 324 458 324 390 278 c 0,25,26
 219 162 219 162 149 96 c 1,27,-1
 346 96 l 2,28,29
 398 96 398 96 436 126.5 c 128,-1,30
 474 157 474 157 497 199 c 1,31,-1
 517 190 l 1,32,-1
 403 0 l 1,33,-1
 14 0 l 1,34,-1
 16 24 l 1,35,-1
 197 168 l 2,36,37
 248 209 248 209 280 237 c 0,38,39
 311 264 311 264 354 308.5 c 128,-1,40
 397 353 397 353 424 398.5 c 128,-1,41
 451 444 451 444 462 492 c 0,42,43
 479 565 479 565 458 614.5 c 128,-1,44
 437 664 437 664 372 664 c 128,-1,45
 307 664 307 664 267 640 c 0,46,47
 230 617 230 617 215 568 c 1,0,1
EndSplineSet
Substitution2: "sous-table 'sinf' Indices scientifiques lookups0" two.inferior
Substitution2: "sous-table 'numr' Num+AOkA-rateurs lookups0" two.numerator
Substitution2: "sous-table 'dnom' D+AOkA-nominateurs lookups0" two.denominator
Substitution2: "sous-table 'subs' Indice lookups0" two.subscript
Substitution2: "sous-table 'sups' Exposant lookups0" two.superior
EndChar

StartChar: three
Encoding: 19 51 22
Width: 556
Flags: W
TeX: 694 12
HStem: -12 25<12 78.7291> 397 29<198.31 230.217> 646 60<271.862 381.5>
VStem: 320 108<213.524 366.604> 369 102<527.691 627.601>
LayerCount: 2
Fore
SplineSet
200 397 m 1,0,-1
 193 426 l 1,1,2
 214 435 214 435 237.5 443 c 128,-1,3
 261 451 261 451 284.5 464 c 128,-1,4
 308 477 308 477 326.5 491.5 c 128,-1,5
 345 506 345 506 357 528.5 c 128,-1,6
 369 551 369 551 369 578 c 128,-1,7
 369 605 369 605 352 625.5 c 128,-1,8
 335 646 335 646 304 646 c 0,9,10
 263 646 263 646 198 588 c 1,11,-1
 181 610 l 1,12,13
 264 706 264 706 358 706 c 0,14,15
 405 706 405 706 438 675.5 c 128,-1,16
 471 645 471 645 471 593 c 0,17,18
 471 543 471 543 429 505.5 c 128,-1,19
 387 468 387 468 329 449 c 1,20,-1
 329 447 l 1,21,22
 428 411 428 411 428 303 c 0,23,24
 428 240 428 240 386.5 180 c 128,-1,25
 345 120 345 120 282 79 c 128,-1,26
 219 38 219 38 146.5 13 c 128,-1,27
 74 -12 74 -12 12 -12 c 1,28,-1
 12 13 l 1,29,30
 121 20 121 20 220.5 106 c 128,-1,31
 320 192 320 192 320 292 c 0,32,33
 320 331 320 331 299 366 c 128,-1,34
 278 401 278 401 237 401 c 0,35,36
 212 401 212 401 200 397 c 1,0,-1
EndSplineSet
Substitution2: "sous-table 'sinf' Indices scientifiques lookups0" three.inferior
Substitution2: "sous-table 'numr' Num+AOkA-rateurs lookups0" three.numerator
Substitution2: "sous-table 'dnom' D+AOkA-nominateurs lookups0" three.denominator
Substitution2: "sous-table 'subs' Indice lookups0" three.subscript
Substitution2: "sous-table 'sups' Exposant lookups0" three.superior
EndChar

StartChar: four
Encoding: 20 52 23
Width: 556
Flags: W
TeX: 715 0
HStem: 0 21G<209 319.872> 218 48<77 275 393 492>
LayerCount: 2
Fore
SplineSet
381 576 m 1,0,-1
 77 266 l 1,1,-1
 290 266 l 1,2,-1
 383 574 l 1,3,-1
 381 576 l 1,0,-1
314 0 m 1,4,-1
 209 0 l 1,5,-1
 275 218 l 1,6,-1
 16 218 l 1,7,-1
 16 248 l 1,8,-1
 470 706 l 1,9,-1
 523 706 l 1,10,-1
 393 266 l 1,11,-1
 492 266 l 1,12,-1
 492 218 l 1,13,-1
 378 218 l 1,14,-1
 314 0 l 1,4,-1
EndSplineSet
Substitution2: "sous-table 'sinf' Indices scientifiques lookups0" four.inferior
Substitution2: "sous-table 'numr' Num+AOkA-rateurs lookups0" four.numerator
Substitution2: "sous-table 'dnom' D+AOkA-nominateurs lookups0" four.denominator
Substitution2: "sous-table 'subs' Indice lookups0" four.subscript
Substitution2: "sous-table 'sups' Exposant lookups0" four.superior
EndChar

StartChar: five
Encoding: 21 53 24
Width: 556
Flags: W
TeX: 762 12
HStem: -12 25<-26 57.4711> 604 90<242 479>
VStem: 201 30<492.5 577.258> 302 108<199.445 385.871> 498 26<712.089 732>
LayerCount: 2
Fore
SplineSet
498 732 m 1,0,-1
 524 732 l 1,1,-1
 479 604 l 1,2,-1
 247 604 l 1,3,4
 231 549 231 549 231 531 c 0,5,6
 231 518 231 518 249.5 505.5 c 128,-1,7
 268 493 268 493 294 479 c 128,-1,8
 320 465 320 465 346.5 445 c 128,-1,9
 373 425 373 425 391.5 387 c 128,-1,10
 410 349 410 349 410 298 c 0,11,12
 410 222 410 222 367 160 c 128,-1,13
 324 98 324 98 257.5 62 c 128,-1,14
 191 26 191 26 117 7 c 128,-1,15
 43 -12 43 -12 -26 -12 c 1,16,-1
 -26 13 l 1,17,18
 51 15 51 15 125.5 51 c 128,-1,19
 200 87 200 87 251 152.5 c 128,-1,20
 302 218 302 218 302 294 c 0,21,22
 302 388 302 388 219 469 c 0,23,24
 201 486 201 486 201 499 c 128,-1,25
 201 512 201 512 204 524 c 2,26,-1
 242 694 l 1,27,-1
 425 694 l 2,28,29
 442 694 442 694 450.5 694.5 c 128,-1,30
 459 695 459 695 471 698.5 c 128,-1,31
 483 702 483 702 489 710 c 128,-1,32
 495 718 495 718 498 732 c 1,0,-1
EndSplineSet
Substitution2: "sous-table 'sinf' Indices scientifiques lookups0" five.inferior
Substitution2: "sous-table 'numr' Num+AOkA-rateurs lookups0" five.numerator
Substitution2: "sous-table 'dnom' D+AOkA-nominateurs lookups0" five.denominator
Substitution2: "sous-table 'subs' Indice lookups0" five.subscript
Substitution2: "sous-table 'sups' Exposant lookups0" five.superior
EndChar

StartChar: six
Encoding: 22 54 25
Width: 556
Flags: W
TeX: 706 12
HStem: -12 25<176.722 270.589> 385 48<257.875 351.023>
VStem: 51 84<76.7473 242.186> 380 102<174.859 354.091>
LayerCount: 2
Fore
SplineSet
495 706 m 1,0,-1
 505 682 l 1,1,2
 417 640 417 640 347.5 565.5 c 128,-1,3
 278 491 278 491 236 399 c 1,4,-1
 238 397 l 1,5,6
 280 433 280 433 344 433 c 0,7,8
 401 433 401 433 441.5 394 c 128,-1,9
 482 355 482 355 482 277 c 0,10,11
 482 247 482 247 472 210 c 128,-1,12
 462 173 462 173 440.5 133.5 c 128,-1,13
 419 94 419 94 388.5 62 c 128,-1,14
 358 30 358 30 312.5 9 c 128,-1,15
 267 -12 267 -12 215 -12 c 0,16,17
 135 -12 135 -12 93 43.5 c 128,-1,18
 51 99 51 99 51 183 c 0,19,20
 51 264 51 264 93 347.5 c 128,-1,21
 135 431 135 431 201.5 498.5 c 128,-1,22
 268 566 268 566 344 619.5 c 128,-1,23
 420 673 420 673 495 706 c 1,0,-1
380 272 m 0,24,25
 380 319 380 319 359.5 352 c 128,-1,26
 339 385 339 385 295 385 c 0,27,28
 249 385 249 385 215 351 c 128,-1,29
 181 317 181 317 165 269 c 128,-1,30
 149 221 149 221 142 183.5 c 128,-1,31
 135 146 135 146 135 124 c 0,32,33
 135 78 135 78 156 45.5 c 128,-1,34
 177 13 177 13 222 13 c 0,35,36
 261 13 261 13 293 40.5 c 128,-1,37
 325 68 325 68 343 109.5 c 128,-1,38
 361 151 361 151 370.5 193.5 c 128,-1,39
 380 236 380 236 380 272 c 0,24,25
EndSplineSet
Substitution2: "sous-table 'sinf' Indices scientifiques lookups0" six.inferior
Substitution2: "sous-table 'numr' Num+AOkA-rateurs lookups0" six.numerator
Substitution2: "sous-table 'dnom' D+AOkA-nominateurs lookups0" six.denominator
Substitution2: "sous-table 'subs' Indice lookups0" six.subscript
Substitution2: "sous-table 'sups' Exposant lookups0" six.superior
EndChar

StartChar: seven
Encoding: 23 55 26
Width: 556
Flags: W
TeX: 694 0
HStem: 0 21G<131 253> 604 90<201.084 472>
VStem: 131 113<0 53.187>
LayerCount: 2
Fore
SplineSet
244 0 m 1,0,-1
 131 0 l 1,1,2
 163 89 163 89 234 217.5 c 128,-1,3
 305 346 305 346 348 413.5 c 128,-1,4
 391 481 391 481 472 604 c 1,5,-1
 261 604 l 2,6,7
 219 604 219 604 200.5 591.5 c 128,-1,8
 182 579 182 579 170 538 c 1,9,-1
 146 538 l 1,10,-1
 193 694 l 1,11,-1
 553 694 l 1,12,13
 474 539 474 539 428 445.5 c 128,-1,14
 382 352 382 352 322 214 c 128,-1,15
 262 76 262 76 244 0 c 1,0,-1
EndSplineSet
Substitution2: "sous-table 'sinf' Indices scientifiques lookups0" seven.inferior
Substitution2: "sous-table 'numr' Num+AOkA-rateurs lookups0" seven.numerator
Substitution2: "sous-table 'dnom' D+AOkA-nominateurs lookups0" seven.denominator
Substitution2: "sous-table 'subs' Indice lookups0" seven.subscript
Substitution2: "sous-table 'sups' Exposant lookups0" seven.superior
EndChar

StartChar: eight
Encoding: 24 56 27
Width: 556
Flags: W
TeX: 706 12
HStem: -12 25<179.631 288.339> 681 25<310.903 403.638>
VStem: 46 78<59.8668 221.159> 180 90<500.778 621.764> 335 96<97.2968 233.104> 444 72<496.887 644.85>
LayerCount: 2
Fore
SplineSet
270 588 m 0,0,1
 270 559 270 559 281 527.5 c 128,-1,2
 292 496 292 496 307.5 472 c 128,-1,3
 323 448 323 448 339 420 c 1,4,5
 444 468 444 468 444 575 c 0,6,7
 444 622 444 622 422.5 651.5 c 128,-1,8
 401 681 401 681 356 681 c 0,9,10
 317 681 317 681 293.5 654 c 128,-1,11
 270 627 270 627 270 588 c 0,0,1
46 138 m 0,12,13
 46 269 46 269 241 373 c 1,14,15
 206 434 206 434 193 471 c 128,-1,16
 180 508 180 508 180 545 c 0,17,18
 180 613 180 613 235 659.5 c 128,-1,19
 290 706 290 706 359 706 c 0,20,21
 424 706 424 706 470 670 c 128,-1,22
 516 634 516 634 516 571 c 0,23,24
 516 537 516 537 502.5 510 c 128,-1,25
 489 483 489 483 459.5 460.5 c 128,-1,26
 430 438 430 438 410.5 427 c 128,-1,27
 391 416 391 416 352 397 c 1,28,29
 431 269 431 269 431 190 c 0,30,31
 431 107 431 107 374 47.5 c 128,-1,32
 317 -12 317 -12 235 -12 c 0,33,34
 157 -12 157 -12 101.5 26 c 128,-1,35
 46 64 46 64 46 138 c 0,12,13
124 143 m 0,36,37
 124 86 124 86 151.5 49.5 c 128,-1,38
 179 13 179 13 234 13 c 0,39,40
 286 13 286 13 310.5 44 c 128,-1,41
 335 75 335 75 335 128 c 0,42,43
 335 168 335 168 321 211 c 128,-1,44
 307 254 307 254 295 277.5 c 128,-1,45
 283 301 283 301 253 352 c 1,46,47
 196 320 196 320 160 263 c 128,-1,48
 124 206 124 206 124 143 c 0,36,37
EndSplineSet
Substitution2: "sous-table 'sinf' Indices scientifiques lookups0" eight.inferior
Substitution2: "sous-table 'numr' Num+AOkA-rateurs lookups0" eight.numerator
Substitution2: "sous-table 'dnom' D+AOkA-nominateurs lookups0" eight.denominator
Substitution2: "sous-table 'subs' Indice lookups0" eight.subscript
Substitution2: "sous-table 'sups' Exposant lookups0" eight.superior
EndChar

StartChar: nine
Encoding: 25 57 28
Width: 556
Flags: W
TeX: 706 12
HStem: 261 48<234.977 328.125> 681 25<315.411 409.278>
VStem: 104 102<339.909 519.141> 451 84<451.814 617.253>
LayerCount: 2
Fore
SplineSet
91 -12 m 1,0,-1
 81 12 l 1,1,2
 169 54 169 54 238.5 128.5 c 128,-1,3
 308 203 308 203 350 295 c 1,4,-1
 348 297 l 1,5,6
 306 261 306 261 242 261 c 0,7,8
 185 261 185 261 144.5 300 c 128,-1,9
 104 339 104 339 104 417 c 0,10,11
 104 447 104 447 114 484 c 128,-1,12
 124 521 124 521 145.5 560.5 c 128,-1,13
 167 600 167 600 197.5 632 c 128,-1,14
 228 664 228 664 273.5 685 c 128,-1,15
 319 706 319 706 371 706 c 0,16,17
 451 706 451 706 493 650.5 c 128,-1,18
 535 595 535 595 535 511 c 0,19,20
 535 430 535 430 493 346.5 c 128,-1,21
 451 263 451 263 384.5 195.5 c 128,-1,22
 318 128 318 128 242 74.5 c 128,-1,23
 166 21 166 21 91 -12 c 1,0,-1
206 422 m 0,24,25
 206 375 206 375 226.5 342 c 128,-1,26
 247 309 247 309 291 309 c 0,27,28
 337 309 337 309 371 343 c 128,-1,29
 405 377 405 377 421 425 c 128,-1,30
 437 473 437 473 444 510.5 c 128,-1,31
 451 548 451 548 451 570 c 0,32,33
 451 616 451 616 430 648.5 c 128,-1,34
 409 681 409 681 364 681 c 0,35,36
 325 681 325 681 293 653.5 c 128,-1,37
 261 626 261 626 243 584.5 c 128,-1,38
 225 543 225 543 215.5 500.5 c 128,-1,39
 206 458 206 458 206 422 c 0,24,25
EndSplineSet
Substitution2: "sous-table 'sinf' Indices scientifiques lookups0" nine.inferior
Substitution2: "sous-table 'numr' Num+AOkA-rateurs lookups0" nine.numerator
Substitution2: "sous-table 'dnom' D+AOkA-nominateurs lookups0" nine.denominator
Substitution2: "sous-table 'subs' Indice lookups0" nine.subscript
Substitution2: "sous-table 'sups' Exposant lookups0" nine.superior
EndChar

StartChar: colon
Encoding: 26 58 29
Width: 278
Flags: W
TeX: 461 6
HStem: -6 126<45.08 132.92> 376 126<156.08 243.92>
VStem: 26 126<13.08 100.92> 137 126<395.08 482.92>
LayerCount: 2
Fore
SplineSet
26 57 m 128,-1,1
 26 83 26 83 44.5 101.5 c 128,-1,2
 63 120 63 120 89 120 c 128,-1,3
 115 120 115 120 133.5 101.5 c 128,-1,4
 152 83 152 83 152 57 c 128,-1,5
 152 31 152 31 133.5 12.5 c 128,-1,6
 115 -6 115 -6 89 -6 c 128,-1,7
 63 -6 63 -6 44.5 12.5 c 128,-1,0
 26 31 26 31 26 57 c 128,-1,1
137 439 m 128,-1,9
 137 465 137 465 155.5 483.5 c 128,-1,10
 174 502 174 502 200 502 c 128,-1,11
 226 502 226 502 244.5 483.5 c 128,-1,12
 263 465 263 465 263 439 c 128,-1,13
 263 413 263 413 244.5 394.5 c 128,-1,14
 226 376 226 376 200 376 c 128,-1,15
 174 376 174 376 155.5 394.5 c 128,-1,8
 137 413 137 413 137 439 c 128,-1,9
EndSplineSet
EndChar

StartChar: semicolon
Encoding: 27 59 30
Width: 278
Flags: W
TeX: 461 192
HStem: -6 126<44.0504 119.18> 376 126<156.08 243.92>
VStem: 120 54<-49.1252 4> 137 126<395.08 482.92>
LayerCount: 2
Fore
SplineSet
0 -168 m 1,0,-1
 -8 -141 l 1,1,2
 45 -118 45 -118 82.5 -81 c 128,-1,3
 120 -44 120 -44 120 4 c 1,4,5
 106 -6 106 -6 88 -6 c 0,6,7
 64 -6 64 -6 45 11.5 c 128,-1,8
 26 29 26 29 26 54 c 0,9,10
 26 82 26 82 43.5 101 c 128,-1,11
 61 120 61 120 93 120 c 0,12,13
 131 120 131 120 152.5 93.5 c 128,-1,14
 174 67 174 67 174 28 c 0,15,16
 174 -37 174 -37 122.5 -87 c 128,-1,17
 71 -137 71 -137 0 -168 c 1,0,-1
137 439 m 128,-1,19
 137 465 137 465 155.5 483.5 c 128,-1,20
 174 502 174 502 200 502 c 128,-1,21
 226 502 226 502 244.5 483.5 c 128,-1,22
 263 465 263 465 263 439 c 128,-1,23
 263 413 263 413 244.5 394.5 c 128,-1,24
 226 376 226 376 200 376 c 128,-1,25
 174 376 174 376 155.5 394.5 c 128,-1,18
 137 413 137 413 137 439 c 128,-1,19
EndSplineSet
EndChar

StartChar: less
Encoding: 28 60 31
Width: 600
Flags: W
TeX: 514 12
LayerCount: 2
Fore
SplineSet
551 514 m 1,0,-1
 551 481 l 1,1,-1
 94 268 l 1,2,-1
 551 56 l 1,3,-1
 551 -12 l 1,4,-1
 49 217 l 1,5,-1
 49 285 l 1,6,-1
 551 514 l 1,0,-1
EndSplineSet
EndChar

StartChar: equal
Encoding: 29 61 32
Width: 600
Flags: W
TeX: 384 -118
HStem: 118 66<49 551> 318 66<49 551>
LayerCount: 2
Fore
SplineSet
551 384 m 1,0,-1
 551 318 l 1,1,-1
 49 318 l 1,2,-1
 49 384 l 1,3,-1
 551 384 l 1,0,-1
551 184 m 1,4,-1
 551 118 l 1,5,-1
 49 118 l 1,6,-1
 49 184 l 1,7,-1
 551 184 l 1,4,-1
EndSplineSet
EndChar

StartChar: greater
Encoding: 30 62 33
Width: 600
Flags: W
TeX: 514 12
LayerCount: 2
Fore
SplineSet
49 -12 m 1,0,-1
 49 62 l 1,1,-1
 506 267 l 1,2,-1
 49 479 l 1,3,-1
 49 514 l 1,4,-1
 551 285 l 1,5,-1
 551 217 l 1,6,-1
 49 -12 l 1,0,-1
EndSplineSet
EndChar

StartChar: question
Encoding: 31 63 34
Width: 444
Flags: W
TeX: 721 6
HStem: -6 126<56.08 143.92> 492 21G<173.5 199> 643 25<245.455 327.299>
VStem: 37 126<13.08 100.92> 122 24<174 212.937> 129 104<524.924 616.309> 362 102<415.415 572.381>
LayerCount: 2
Fore
SplineSet
146 174 m 1,0,-1
 122 174 l 1,1,2
 133 237 133 237 158.5 263 c 128,-1,3
 184 289 184 289 246 313 c 128,-1,4
 308 337 308 337 335 401.5 c 128,-1,5
 362 466 362 466 362 535 c 0,6,7
 362 579 362 579 344 611 c 128,-1,8
 326 643 326 643 288 643 c 0,9,10
 233 643 233 643 233 601 c 0,11,12
 233 593 233 593 238 570.5 c 128,-1,13
 243 548 243 548 243 539 c 0,14,15
 243 516 243 516 226.5 504 c 128,-1,16
 210 492 210 492 188 492 c 0,17,18
 159 492 159 492 144 510 c 128,-1,19
 129 528 129 528 129 553 c 0,20,21
 129 609 129 609 176 638.5 c 128,-1,22
 223 668 223 668 281 668 c 0,23,24
 363 668 363 668 413.5 613 c 128,-1,25
 464 558 464 558 464 479 c 0,26,27
 464 402 464 402 418 343.5 c 128,-1,28
 372 285 372 285 287 276 c 0,29,30
 269 274 269 274 252.5 272 c 128,-1,31
 236 270 236 270 222.5 267 c 128,-1,32
 209 264 209 264 197 258 c 128,-1,33
 185 252 185 252 175.5 241.5 c 128,-1,34
 166 231 166 231 158.5 214.5 c 128,-1,35
 151 198 151 198 146 174 c 1,0,-1
37 57 m 128,-1,37
 37 83 37 83 55.5 101.5 c 128,-1,38
 74 120 74 120 100 120 c 128,-1,39
 126 120 126 120 144.5 101.5 c 128,-1,40
 163 83 163 83 163 57 c 128,-1,41
 163 31 163 31 144.5 12.5 c 128,-1,42
 126 -6 126 -6 100 -6 c 128,-1,43
 74 -6 74 -6 55.5 12.5 c 128,-1,36
 37 31 37 31 37 57 c 128,-1,37
EndSplineSet
EndChar

StartChar: at
Encoding: 32 64 35
Width: 800
Flags: W
TeX: 727 12
HStem: -12 42<332.339 572.602> 156 50<363.396 438.631> 156 36<570.625 663.888> 499 48<431.63 526.902> 691 36<338.877 547.801>
VStem: 50 90<229.59 475.454> 268 78<222.842 385.66> 748 42<302.321 506.437>
LayerCount: 2
Fore
SplineSet
346 298 m 0,0,1
 346 206 346 206 411 206 c 0,2,3
 450 206 450 206 493 273 c 128,-1,4
 536 340 536 340 536 431 c 0,5,6
 536 499 536 499 489 499 c 0,7,8
 443 499 443 499 394.5 441.5 c 128,-1,9
 346 384 346 384 346 298 c 0,0,1
556 493 m 1,10,-1
 565 535 l 1,11,-1
 639 535 l 1,12,-1
 571 266 l 2,13,14
 565 240 565 240 565 231 c 0,15,16
 565 223 565 223 567.5 215.5 c 128,-1,17
 570 208 570 208 580.5 200 c 128,-1,18
 591 192 591 192 608 192 c 0,19,20
 669 192 669 192 708.5 262.5 c 128,-1,21
 748 333 748 333 748 411 c 0,22,23
 748 458 748 458 727 506.5 c 128,-1,24
 706 555 706 555 668 596.5 c 128,-1,25
 630 638 630 638 570 664.5 c 128,-1,26
 510 691 510 691 440 691 c 0,27,28
 311 691 311 691 225.5 596 c 128,-1,29
 140 501 140 501 140 330 c 0,30,31
 140 210 140 210 227.5 120 c 128,-1,32
 315 30 315 30 450 30 c 0,33,34
 515 30 515 30 560.5 42.5 c 128,-1,35
 606 55 606 55 661 80 c 1,36,-1
 675 49 l 1,37,38
 545 -12 545 -12 451 -12 c 0,39,40
 371 -12 371 -12 302.5 11 c 128,-1,41
 234 34 234 34 188.5 71 c 128,-1,42
 143 108 143 108 111 155 c 128,-1,43
 79 202 79 202 64.5 249 c 128,-1,44
 50 296 50 296 50 341 c 0,45,46
 50 510 50 510 164 618.5 c 128,-1,47
 278 727 278 727 440 727 c 0,48,49
 588 727 588 727 689 636.5 c 128,-1,50
 790 546 790 546 790 412 c 0,51,52
 790 354 790 354 767.5 296.5 c 128,-1,53
 745 239 745 239 698 197.5 c 128,-1,54
 651 156 651 156 591 156 c 0,55,56
 505 156 505 156 499 232 c 1,57,-1
 497 232 l 1,58,59
 461 190 461 190 431.5 173 c 128,-1,60
 402 156 402 156 366 156 c 0,61,62
 326 156 326 156 297 189.5 c 128,-1,63
 268 223 268 223 268 280 c 0,64,65
 268 307 268 307 276 341 c 128,-1,66
 284 375 284 375 301 411.5 c 128,-1,67
 318 448 318 448 342 478 c 128,-1,68
 366 508 366 508 401.5 527.5 c 128,-1,69
 437 547 437 547 478 547 c 0,70,71
 540 547 540 547 554 493 c 1,72,-1
 556 493 l 1,10,-1
EndSplineSet
EndChar

StartChar: A
Encoding: 33 65 36
Width: 611
Flags: W
TeX: 727 0
HStem: 0 25<-107 -43 -8 91 266 366 476 569> 268 25<175 366> 707 20G<433.04 472.114>
VStem: 366 110<25 268 293 570>
LayerCount: 2
Fore
SplineSet
447 727 m 1,0,-1
 472 727 l 1,1,-1
 476 25 l 1,2,-1
 576 25 l 1,3,-1
 569 0 l 1,4,-1
 259 0 l 1,5,-1
 266 25 l 1,6,-1
 366 25 l 1,7,-1
 366 268 l 1,8,-1
 158 268 l 1,9,-1
 -8 25 l 1,10,-1
 98 25 l 1,11,-1
 91 0 l 1,12,-1
 -114 0 l 1,13,-1
 -107 25 l 1,14,-1
 -43 25 l 1,15,-1
 447 727 l 1,0,-1
175 293 m 1,16,-1
 366 293 l 1,17,-1
 366 570 l 1,18,-1
 364 570 l 1,19,-1
 175 293 l 1,16,-1
EndSplineSet
Substitution2: "sous-table 'c2sc' Capitales vers petites capitales dans Latin lookup 0" a.sc
EndChar

StartChar: B
Encoding: 34 66 37
Width: 648
Flags: W
TeX: 715 0
HStem: 0 25<-37 53 165 337.613> 381 25<276 401.22> 690 25<151 245 359 494.104>
VStem: 477 114<147.216 305.881> 531 108<519.364 659.472>
LayerCount: 2
Fore
SplineSet
359 690 m 1,0,-1
 276 406 l 1,1,-1
 337 406 l 2,2,3
 385 406 385 406 422 424 c 128,-1,4
 459 442 459 442 478.5 467 c 128,-1,5
 498 492 498 492 511 522.5 c 128,-1,6
 524 553 524 553 527.5 573.5 c 128,-1,7
 531 594 531 594 531 608 c 0,8,9
 531 636 531 636 521.5 653.5 c 128,-1,10
 512 671 512 671 493.5 678.5 c 128,-1,11
 475 686 475 686 459 688 c 128,-1,12
 443 690 443 690 419 690 c 2,13,-1
 359 690 l 1,0,-1
143 690 m 1,14,-1
 151 715 l 1,15,-1
 458 715 l 2,16,17
 552 715 552 715 595.5 682 c 128,-1,18
 639 649 639 649 639 580 c 0,19,20
 639 489 639 489 578 440 c 128,-1,21
 517 391 517 391 417 391 c 1,22,-1
 417 389 l 1,23,24
 494 388 494 388 542.5 340.5 c 128,-1,25
 591 293 591 293 591 216 c 0,26,27
 591 182 591 182 579 148 c 128,-1,28
 567 114 567 114 539.5 79 c 128,-1,29
 512 44 512 44 457 22 c 128,-1,30
 402 0 402 0 326 0 c 2,31,-1
 -44 0 l 1,32,-1
 -37 25 l 1,33,-1
 53 25 l 1,34,-1
 245 690 l 1,35,-1
 143 690 l 1,14,-1
268 381 m 1,36,-1
 165 25 l 1,37,-1
 252 25 l 2,38,39
 361 25 361 25 419 90 c 128,-1,40
 477 155 477 155 477 264 c 0,41,42
 477 332 477 332 431 356.5 c 128,-1,43
 385 381 385 381 311 381 c 2,44,-1
 268 381 l 1,36,-1
EndSplineSet
Substitution2: "sous-table 'c2sc' Capitales vers petites capitales dans Latin lookup 0" b.sc
EndChar

StartChar: C
Encoding: 35 67 38
Width: 722
Flags: W
TeX: 727 12
HStem: -12 25<266.134 408.165> 702 25<445.414 579.221>
VStem: 69 108<146.86 309.612> 654 23<464.478 488.192>
LayerCount: 2
Fore
SplineSet
596 233 m 1,0,-1
 623 228 l 1,1,-1
 557 22 l 1,2,3
 437 -12 437 -12 339 -12 c 0,4,5
 214 -12 214 -12 141.5 68.5 c 128,-1,6
 69 149 69 149 69 254 c 0,7,8
 69 323 69 323 98.5 403.5 c 128,-1,9
 128 484 128 484 180.5 557 c 128,-1,10
 233 630 233 630 317.5 678.5 c 128,-1,11
 402 727 402 727 499 727 c 0,12,13
 606 727 606 727 729 663 c 1,14,-1
 677 461 l 1,15,-1
 654 466 l 1,16,17
 665 517 665 517 665 551 c 0,18,19
 665 616 665 616 625 659 c 128,-1,20
 585 702 585 702 513 702 c 0,21,22
 445 702 445 702 386.5 655.5 c 128,-1,23
 328 609 328 609 291 541.5 c 128,-1,24
 254 474 254 474 227 398.5 c 128,-1,25
 200 323 200 323 188.5 266.5 c 128,-1,26
 177 210 177 210 177 182 c 0,27,28
 177 98 177 98 219.5 55.5 c 128,-1,29
 262 13 262 13 336 13 c 0,30,31
 425 13 425 13 493 78.5 c 128,-1,32
 561 144 561 144 596 233 c 1,0,-1
EndSplineSet
Substitution2: "sous-table 'c2sc' Capitales vers petites capitales dans Latin lookup 0" c.sc
EndChar

StartChar: D
Encoding: 36 68 39
Width: 796
Flags: W
TeX: 715 0
HStem: 0 25<-29 60 173 397.033> 690 25<158 252 367 565.186>
VStem: 664 120<336.91 590.634>
LayerCount: 2
Fore
SplineSet
367 690 m 1,0,-1
 173 25 l 1,1,-1
 305 25 l 2,2,3
 369 25 369 25 423 46 c 128,-1,4
 477 67 477 67 513 100 c 128,-1,5
 549 133 549 133 577.5 178 c 128,-1,6
 606 223 606 223 621.5 267 c 128,-1,7
 637 311 637 311 647 358.5 c 128,-1,8
 657 406 657 406 660.5 440 c 128,-1,9
 664 474 664 474 664 502 c 0,10,11
 664 560 664 560 649.5 599 c 128,-1,12
 635 638 635 638 606.5 657 c 128,-1,13
 578 676 578 676 547 683 c 128,-1,14
 516 690 516 690 473 690 c 2,15,-1
 367 690 l 1,0,-1
151 690 m 1,16,-1
 158 715 l 1,17,-1
 478 715 l 2,18,19
 506 715 506 715 522 714.5 c 128,-1,20
 538 714 538 714 567 712 c 128,-1,21
 596 710 596 710 614 705.5 c 128,-1,22
 632 701 632 701 657 692.5 c 128,-1,23
 682 684 682 684 698 671.5 c 128,-1,24
 714 659 714 659 732 640 c 128,-1,25
 750 621 750 621 760 596.5 c 128,-1,26
 770 572 770 572 777 538 c 128,-1,27
 784 504 784 504 784 463 c 0,28,29
 784 340 784 340 731.5 235 c 128,-1,30
 679 130 679 130 578.5 65 c 128,-1,31
 478 0 478 0 350 0 c 2,32,-1
 -36 0 l 1,33,-1
 -29 25 l 1,34,-1
 60 25 l 1,35,-1
 252 690 l 1,36,-1
 151 690 l 1,16,-1
EndSplineSet
Substitution2: "sous-table 'c2sc' Capitales vers petites capitales dans Latin lookup 0" d.sc
EndChar

StartChar: E
Encoding: 37 69 40
Width: 704
Flags: W
TeX: 715 0
HStem: 0 25<-37 53 165 439.353> 381 25<275 392.466> 690 25<150 245 358 559.413>
VStem: 409 24<201 225.327> 629 22<504 542.868>
LayerCount: 2
Fore
SplineSet
689 715 m 1,0,-1
 651 504 l 1,1,-1
 629 504 l 1,2,3
 633 523 633 523 633 546 c 0,4,5
 633 624 633 624 595.5 657 c 128,-1,6
 558 690 558 690 476 690 c 2,7,-1
 358 690 l 1,8,-1
 275 406 l 1,9,-1
 338 406 l 2,10,11
 378 406 378 406 405 414 c 128,-1,12
 432 422 432 422 451 444 c 128,-1,13
 470 466 470 466 481 488 c 128,-1,14
 492 510 492 510 508 552 c 1,15,-1
 534 552 l 1,16,-1
 433 201 l 1,17,-1
 409 201 l 1,18,19
 427 274 427 274 427 305 c 0,20,21
 427 381 427 381 334 381 c 2,22,-1
 267 381 l 1,23,-1
 165 25 l 1,24,-1
 356 25 l 2,25,26
 548 25 548 25 619 226 c 1,27,-1
 645 226 l 1,28,-1
 576 0 l 1,29,-1
 -44 0 l 1,30,-1
 -37 25 l 1,31,-1
 53 25 l 1,32,-1
 245 690 l 1,33,-1
 143 690 l 1,34,-1
 150 715 l 1,35,-1
 689 715 l 1,0,-1
EndSplineSet
Substitution2: "sous-table 'c2sc' Capitales vers petites capitales dans Latin lookup 0" e.sc
EndChar

StartChar: F
Encoding: 38 70 41
Width: 630
Flags: W
TeX: 715 0
HStem: 0 25<-37 52 164 267> 340 25<261 364.498> 690 25<147 244 358 579.375>
VStem: 394 25<159 183.163> 644 27<464 494.825>
LayerCount: 2
Fore
SplineSet
140 690 m 1,0,-1
 147 715 l 1,1,-1
 728 715 l 1,2,-1
 671 464 l 1,3,-1
 644 464 l 1,4,5
 655 532 655 532 655 569 c 0,6,7
 655 690 655 690 495 690 c 2,8,-1
 358 690 l 1,9,-1
 261 365 l 1,10,-1
 301 365 l 2,11,12
 387 365 387 365 427.5 398 c 128,-1,13
 468 431 468 431 497 518 c 1,14,-1
 523 518 l 1,15,-1
 419 159 l 1,16,-1
 394 159 l 1,17,18
 408 217 408 217 408 248 c 0,19,20
 408 340 408 340 302 340 c 2,21,-1
 253 340 l 1,22,-1
 164 25 l 1,23,-1
 273 25 l 1,24,-1
 267 0 l 1,25,-1
 -44 0 l 1,26,-1
 -37 25 l 1,27,-1
 52 25 l 1,28,-1
 244 690 l 1,29,-1
 140 690 l 1,0,-1
EndSplineSet
Substitution2: "sous-table 'c2sc' Capitales vers petites capitales dans Latin lookup 0" f.sc
EndChar

StartChar: G
Encoding: 39 71 42
Width: 796
Flags: W
TeX: 727 12
HStem: -12 25<274.88 427.772> 299 25<472 578 681 764> 702 25<446.976 586.352>
VStem: 69 102<147.188 329.99> 673 25<463 488.625>
LayerCount: 2
Fore
SplineSet
681 299 m 1,0,-1
 608 43 l 1,1,2
 593 30 593 30 506 9 c 128,-1,3
 419 -12 419 -12 359 -12 c 0,4,5
 285 -12 285 -12 227.5 11.5 c 128,-1,6
 170 35 170 35 136.5 74 c 128,-1,7
 103 113 103 113 86 158.5 c 128,-1,8
 69 204 69 204 69 251 c 0,9,10
 69 372 69 372 133 482 c 128,-1,11
 197 592 197 592 304.5 659.5 c 128,-1,12
 412 727 412 727 532 727 c 0,13,14
 638 727 638 727 754 668 c 1,15,-1
 698 463 l 1,16,-1
 673 463 l 1,17,18
 680 492 680 492 680 539 c 0,19,20
 680 614 680 614 635.5 658 c 128,-1,21
 591 702 591 702 516 702 c 0,22,23
 463 702 463 702 414 675.5 c 128,-1,24
 365 649 365 649 328 605 c 128,-1,25
 291 561 291 561 260.5 506 c 128,-1,26
 230 451 230 451 211 393 c 128,-1,27
 192 335 192 335 181.5 281 c 128,-1,28
 171 227 171 227 171 184 c 0,29,30
 171 134 171 134 188 98.5 c 128,-1,31
 205 63 205 63 233.5 45.5 c 128,-1,32
 262 28 262 28 289.5 20.5 c 128,-1,33
 317 13 317 13 347 13 c 0,34,35
 388 13 388 13 419 22.5 c 128,-1,36
 450 32 450 32 469.5 45.5 c 128,-1,37
 489 59 489 59 505 87 c 128,-1,38
 521 115 521 115 530 138.5 c 128,-1,39
 539 162 539 162 552 206 c 2,40,-1
 578 299 l 1,41,-1
 465 299 l 1,42,-1
 472 324 l 1,43,-1
 771 324 l 1,44,-1
 764 299 l 1,45,-1
 681 299 l 1,0,-1
EndSplineSet
Substitution2: "sous-table 'c2sc' Capitales vers petites capitales dans Latin lookup 0" g.sc
EndChar

StartChar: H
Encoding: 40 72 43
Width: 796
Flags: W
TeX: 715 0
HStem: 0 25<-37 53 164 260 391 497 608 699> 347 25<266 593> 690 25<150 245 359 457 594 691 802 895>
LayerCount: 2
Fore
SplineSet
144 690 m 1,0,-1
 150 715 l 1,1,-1
 464 715 l 1,2,-1
 457 690 l 1,3,-1
 359 690 l 1,4,-1
 266 372 l 1,5,-1
 601 372 l 1,6,-1
 691 690 l 1,7,-1
 587 690 l 1,8,-1
 594 715 l 1,9,-1
 902 715 l 1,10,-1
 895 690 l 1,11,-1
 802 690 l 1,12,-1
 608 25 l 1,13,-1
 706 25 l 1,14,-1
 699 0 l 1,15,-1
 384 0 l 1,16,-1
 391 25 l 1,17,-1
 497 25 l 1,18,-1
 593 347 l 1,19,-1
 258 347 l 1,20,-1
 164 25 l 1,21,-1
 267 25 l 1,22,-1
 260 0 l 1,23,-1
 -44 0 l 1,24,-1
 -37 25 l 1,25,-1
 53 25 l 1,26,-1
 245 690 l 1,27,-1
 144 690 l 1,0,-1
EndSplineSet
Substitution2: "sous-table 'c2sc' Capitales vers petites capitales dans Latin lookup 0" h.sc
EndChar

StartChar: I
Encoding: 41 73 44
Width: 352
Flags: W
TeX: 715 0
HStem: 0 25<-37 52 165 254> 690 25<150 244 358 448>
LayerCount: 2
Fore
SplineSet
143 690 m 1,0,-1
 150 715 l 1,1,-1
 455 715 l 1,2,-1
 448 690 l 1,3,-1
 358 690 l 1,4,-1
 165 25 l 1,5,-1
 261 25 l 1,6,-1
 254 0 l 1,7,-1
 -44 0 l 1,8,-1
 -37 25 l 1,9,-1
 52 25 l 1,10,-1
 244 690 l 1,11,-1
 143 690 l 1,0,-1
EndSplineSet
Substitution2: "sous-table 'c2sc' Capitales vers petites capitales dans Latin lookup 0" i.sc
EndChar

StartChar: J
Encoding: 42 74 45
Width: 444
Flags: W
TeX: 715 12
HStem: -12 25<48.9261 115.611> 690 25<236 334 446 535>
VStem: -34 72<28.9739 109>
LayerCount: 2
Fore
SplineSet
334 690 m 1,0,-1
 229 690 l 1,1,-1
 236 715 l 1,2,-1
 542 715 l 1,3,-1
 535 690 l 1,4,-1
 446 690 l 1,5,-1
 314 229 l 2,6,7
 313 226 313 226 312 221 c 0,8,9
 297 171 297 171 289 147 c 128,-1,10
 281 123 281 123 262.5 86.5 c 128,-1,11
 244 50 244 50 223.5 32.5 c 128,-1,12
 203 15 203 15 168 1.5 c 128,-1,13
 133 -12 133 -12 88 -12 c 0,14,15
 35 -12 35 -12 0.5 16.5 c 128,-1,16
 -34 45 -34 45 -34 96 c 0,17,18
 -34 122 -34 122 -16.5 142 c 128,-1,19
 1 162 1 162 26 162 c 0,20,21
 48 162 48 162 62 150.5 c 128,-1,22
 76 139 76 139 76 118 c 128,-1,23
 76 97 76 97 57 78.5 c 128,-1,24
 38 60 38 60 38 47 c 0,25,26
 38 33 38 33 49.5 23 c 128,-1,27
 61 13 61 13 81 13 c 0,28,29
 97 13 97 13 111 22 c 128,-1,30
 125 31 125 31 134 43 c 128,-1,31
 143 55 143 55 153.5 80 c 128,-1,32
 164 105 164 105 169.5 122.5 c 128,-1,33
 175 140 175 140 185 174 c 2,34,-1
 334 690 l 1,0,-1
EndSplineSet
Substitution2: "sous-table 'c2sc' Capitales vers petites capitales dans Latin lookup 0" j.sc
EndChar

StartChar: K
Encoding: 43 75 46
Width: 685
Flags: W
TeX: 715 0
HStem: 0 25<-37 52 165 260 352 445 568 651> 364 25<270 348> 690 25<150 244 358 454 522 595 631 709>
LayerCount: 2
Fore
SplineSet
143 690 m 1,0,-1
 150 715 l 1,1,-1
 461 715 l 1,2,-1
 454 690 l 1,3,-1
 358 690 l 1,4,-1
 270 389 l 1,5,-1
 355 389 l 1,6,-1
 595 690 l 1,7,-1
 516 690 l 1,8,-1
 522 715 l 1,9,-1
 716 715 l 1,10,-1
 709 690 l 1,11,-1
 631 690 l 1,12,-1
 437 450 l 1,13,-1
 568 25 l 1,14,-1
 658 25 l 1,15,-1
 651 0 l 1,16,-1
 345 0 l 1,17,-1
 352 25 l 1,18,-1
 445 25 l 1,19,-1
 348 364 l 1,20,-1
 261 364 l 1,21,-1
 165 25 l 1,22,-1
 267 25 l 1,23,-1
 260 0 l 1,24,-1
 -44 0 l 1,25,-1
 -37 25 l 1,26,-1
 52 25 l 1,27,-1
 244 690 l 1,28,-1
 143 690 l 1,0,-1
EndSplineSet
Substitution2: "sous-table 'c2sc' Capitales vers petites capitales dans Latin lookup 0" k.sc
EndChar

StartChar: L
Encoding: 44 76 47
Width: 667
Flags: W
TeX: 715 0
HStem: 0 25<-37 53 165 404.75> 690 25<151 245 358 464>
LayerCount: 2
Fore
SplineSet
144 690 m 1,0,-1
 151 715 l 1,1,-1
 471 715 l 1,2,-1
 464 690 l 1,3,-1
 358 690 l 1,4,-1
 165 25 l 1,5,-1
 294 25 l 2,6,7
 418 25 418 25 489 72.5 c 128,-1,8
 560 120 560 120 598 221 c 1,9,-1
 625 221 l 1,10,-1
 562 0 l 1,11,-1
 -44 0 l 1,12,-1
 -37 25 l 1,13,-1
 53 25 l 1,14,-1
 245 690 l 1,15,-1
 144 690 l 1,0,-1
EndSplineSet
Substitution2: "sous-table 'c2sc' Capitales vers petites capitales dans Latin lookup 0" l.sc
EndChar

StartChar: M
Encoding: 45 77 48
Width: 963
Flags: W
TeX: 715 12
HStem: 0 25<-37 52 86 176 570 663 778 863> 690 25<150 243 968 1056>
LayerCount: 2
Fore
SplineSet
144 690 m 1,0,-1
 150 715 l 1,1,-1
 372 715 l 1,2,-1
 449 147 l 1,3,-1
 844 715 l 1,4,-1
 1063 715 l 1,5,-1
 1056 690 l 1,6,-1
 968 690 l 1,7,-1
 778 25 l 1,8,-1
 870 25 l 1,9,-1
 863 0 l 1,10,-1
 564 0 l 1,11,-1
 570 25 l 1,12,-1
 663 25 l 1,13,-1
 850 677 l 1,14,-1
 848 679 l 1,15,-1
 381 0 l 1,16,-1
 356 0 l 1,17,-1
 270 678 l 1,18,-1
 268 678 l 1,19,-1
 86 25 l 1,20,-1
 183 25 l 1,21,-1
 176 0 l 1,22,-1
 -44 0 l 1,23,-1
 -37 25 l 1,24,-1
 52 25 l 1,25,-1
 243 690 l 1,26,-1
 144 690 l 1,0,-1
EndSplineSet
Substitution2: "sous-table 'c2sc' Capitales vers petites capitales dans Latin lookup 0" m.sc
EndChar

StartChar: N
Encoding: 46 78 49
Width: 759
Flags: W
TeX: 715 12
HStem: 0 25<-38 53 89 183> 690 25<150 245 634 734 766 852>
LayerCount: 2
Fore
SplineSet
627 690 m 1,0,-1
 634 715 l 1,1,-1
 859 715 l 1,2,-1
 852 690 l 1,3,-1
 766 690 l 1,4,-1
 561 -6 l 1,5,-1
 537 -6 l 1,6,-1
 273 667 l 1,7,-1
 271 667 l 1,8,-1
 89 25 l 1,9,-1
 190 25 l 1,10,-1
 183 0 l 1,11,-1
 -44 0 l 1,12,-1
 -38 25 l 1,13,-1
 53 25 l 1,14,-1
 245 690 l 1,15,-1
 143 690 l 1,16,-1
 150 715 l 1,17,-1
 368 715 l 1,18,-1
 583 167 l 1,19,-1
 585 167 l 1,20,-1
 734 690 l 1,21,-1
 627 690 l 1,0,-1
EndSplineSet
Substitution2: "sous-table 'c2sc' Capitales vers petites capitales dans Latin lookup 0" n.sc
EndChar

StartChar: O
Encoding: 47 79 50
Width: 759
Flags: W
TeX: 727 12
HStem: -12 25<259.608 385.019> 702 25<430.981 556.392>
VStem: 69 108<133.674 307.661> 639 108<407.339 581.326>
LayerCount: 2
Fore
SplineSet
69 238 m 0,0,1
 69 349 69 349 126.5 462 c 128,-1,2
 184 575 184 575 285 651 c 128,-1,3
 386 727 386 727 497 727 c 0,4,5
 560 727 560 727 609.5 704 c 128,-1,6
 659 681 659 681 688 644 c 128,-1,7
 717 607 717 607 732 564 c 128,-1,8
 747 521 747 521 747 477 c 0,9,10
 747 366 747 366 689.5 253 c 128,-1,11
 632 140 632 140 531 64 c 128,-1,12
 430 -12 430 -12 319 -12 c 0,13,14
 256 -12 256 -12 206.5 11 c 128,-1,15
 157 34 157 34 128 71 c 128,-1,16
 99 108 99 108 84 151 c 128,-1,17
 69 194 69 194 69 238 c 0,0,1
177 160 m 0,18,19
 177 86 177 86 220 49.5 c 128,-1,20
 263 13 263 13 326 13 c 0,21,22
 386 13 386 13 439 58 c 128,-1,23
 492 103 492 103 527.5 169 c 128,-1,24
 563 235 563 235 589 312 c 128,-1,25
 615 389 615 389 627 452.5 c 128,-1,26
 639 516 639 516 639 555 c 0,27,28
 639 629 639 629 596 665.5 c 128,-1,29
 553 702 553 702 490 702 c 0,30,31
 430 702 430 702 377 657 c 128,-1,32
 324 612 324 612 288.5 546 c 128,-1,33
 253 480 253 480 227 403 c 128,-1,34
 201 326 201 326 189 262.5 c 128,-1,35
 177 199 177 199 177 160 c 0,18,19
EndSplineSet
Substitution2: "sous-table 'c2sc' Capitales vers petites capitales dans Latin lookup 0" o.sc
EndChar

StartChar: P
Encoding: 48 80 51
Width: 630
Flags: W
TeX: 715 0
HStem: 0 25<-37 52 165 264> 301 25<252 403.684> 690 25<150 244 359 489.812>
VStem: 539 120<461.902 650.237>
LayerCount: 2
Fore
SplineSet
403 690 m 2,0,-1
 359 690 l 1,1,-1
 252 326 l 1,2,-1
 332 326 l 2,3,4
 382 326 382 326 421.5 346 c 128,-1,5
 461 366 461 366 482 395 c 128,-1,6
 503 424 503 424 517 460.5 c 128,-1,7
 531 497 531 497 535 524 c 128,-1,8
 539 551 539 551 539 574 c 0,9,10
 539 647 539 647 508 668.5 c 128,-1,11
 477 690 477 690 403 690 c 2,0,-1
143 690 m 1,12,-1
 150 715 l 1,13,-1
 476 715 l 2,14,15
 506 715 506 715 530 711.5 c 128,-1,16
 554 708 554 708 579 698 c 128,-1,17
 604 688 604 688 621 671.5 c 128,-1,18
 638 655 638 655 648.5 626 c 128,-1,19
 659 597 659 597 659 559 c 0,20,21
 659 531 659 531 651.5 500.5 c 128,-1,22
 644 470 644 470 622 433.5 c 128,-1,23
 600 397 600 397 566 368.5 c 128,-1,24
 532 340 532 340 473 320.5 c 128,-1,25
 414 301 414 301 339 301 c 2,26,-1
 244 301 l 1,27,-1
 165 25 l 1,28,-1
 271 25 l 1,29,-1
 264 0 l 1,30,-1
 -44 0 l 1,31,-1
 -37 25 l 1,32,-1
 52 25 l 1,33,-1
 244 690 l 1,34,-1
 143 690 l 1,12,-1
EndSplineSet
Substitution2: "sous-table 'c2sc' Capitales vers petites capitales dans Latin lookup 0" p.sc
EndChar

StartChar: Q
Encoding: 49 81 52
Width: 721
Flags: W
TeX: 727 191
HStem: -183 77<470 583.959> -46 65<282.351 377.526> 696 31<445.598 590.341>
VStem: 653 108.5<379.143 594.344>
LayerCount: 2
Fore
SplineSet
286.5 460 m 128,-1,1
 273 416 273 416 257.5 349 c 128,-1,2
 242 282 242 282 236.5 229 c 128,-1,3
 231 176 231 176 237 124.5 c 128,-1,4
 243 73 243 73 275 46 c 128,-1,5
 307 19 307 19 365 19 c 128,-1,6
 423 19 423 19 467.5 46 c 128,-1,7
 512 73 512 73 541.5 124.5 c 128,-1,8
 571 176 571 176 590 229 c 128,-1,9
 609 282 609 282 624.5 349 c 128,-1,10
 640 416 640 416 647 460 c 128,-1,11
 654 504 654 504 653 551 c 128,-1,12
 652 598 652 598 640 627.5 c 128,-1,13
 628 657 628 657 598 676.5 c 128,-1,14
 568 696 568 696 521.5 696 c 128,-1,15
 475 696 475 696 436 676.5 c 128,-1,16
 397 657 397 657 371 627.5 c 128,-1,17
 345 598 345 598 322.5 551 c 128,-1,0
 300 504 300 504 286.5 460 c 128,-1,1
245 9 m 2,18,19
 189 33 189 33 160 86 c 128,-1,20
 131 139 131 139 127 191 c 0,21,22
 120 282 120 282 136 354 c 0,23,24
 153 426 153 426 186 490 c 128,-1,25
 219 554 219 554 267 608 c 128,-1,26
 315 662 315 662 383 694.5 c 128,-1,27
 451 727 451 727 528.5 727 c 128,-1,28
 606 727 606 727 658.5 694.5 c 128,-1,29
 711 662 711 662 734.5 608 c 128,-1,30
 758 554 758 554 761.5 490 c 128,-1,31
 765 426 765 426 749 357 c 128,-1,32
 733 288 733 288 700 224 c 0,33,34
 613 55 613 55 465 5 c 1,35,36
 480 -4 480 -4 487 -27 c 0,37,38
 510 -106 510 -106 566.5 -106 c 128,-1,39
 623 -106 623 -106 671 -32 c 1,40,-1
 696 -32 l 1,41,42
 617 -183 617 -183 504 -183 c 0,43,44
 436 -183 436 -183 392 -88 c 0,45,46
 374 -47 374 -47 317 -46 c 0,47,48
 231 -46 231 -46 152 -140 c 1,49,-1
 130 -140 l 1,50,51
 167 -58 167 -58 242 7 c 0,52,53
 243 8 243 8 245 9 c 2,18,19
EndSplineSet
Substitution2: "sous-table 'c2sc' Capitales vers petites capitales dans Latin lookup 0" q.sc
EndChar

StartChar: R
Encoding: 50 82 53
Width: 685
Flags: W
TeX: 715 0
HStem: 0 25<-37 52 165 259 582.703 659> 381 25<276 412.857> 690 25<150 245 358 496.899>
VStem: 449 114<38.366 240.275> 475 108<127.597 326.578> 536 114<515.249 664.076>
LayerCount: 2
Fore
SplineSet
143 690 m 1,0,-1
 150 715 l 1,1,-1
 492 715 l 2,2,3
 571 715 571 715 610.5 682.5 c 128,-1,4
 650 650 650 650 650 596 c 0,5,6
 650 513 650 513 574.5 457 c 128,-1,7
 499 401 499 401 414 395 c 1,8,-1
 414 393 l 1,9,10
 485 385 485 385 534 352 c 128,-1,11
 583 319 583 319 583 258 c 0,12,13
 583 226 583 226 573 168 c 128,-1,14
 563 110 563 110 563 82 c 0,15,16
 563 56 563 56 579 40.5 c 128,-1,17
 595 25 595 25 628 25 c 2,18,-1
 665 25 l 1,19,-1
 659 0 l 1,20,-1
 548 0 l 2,21,22
 449 0 449 0 449 83 c 0,23,24
 449 110 449 110 462 183 c 128,-1,25
 475 256 475 256 475 294 c 0,26,27
 475 342 475 342 442 361.5 c 128,-1,28
 409 381 409 381 334 381 c 2,29,-1
 268 381 l 1,30,-1
 165 25 l 1,31,-1
 266 25 l 1,32,-1
 259 0 l 1,33,-1
 -44 0 l 1,34,-1
 -37 25 l 1,35,-1
 52 25 l 1,36,-1
 245 690 l 1,37,-1
 143 690 l 1,0,-1
358 690 m 1,38,-1
 276 406 l 1,39,-1
 342 406 l 2,40,41
 440 406 440 406 488 462.5 c 128,-1,42
 536 519 536 519 536 603 c 0,43,44
 536 646 536 646 512 668 c 128,-1,45
 488 690 488 690 430 690 c 2,46,-1
 358 690 l 1,38,-1
EndSplineSet
Substitution2: "sous-table 'c2sc' Capitales vers petites capitales dans Latin lookup 0" r.sc
EndChar

StartChar: S
Encoding: 51 83 54
Width: 611
Flags: W
TeX: 727 12
HStem: -12 25<208.839 363.64> 500 21G<532 563.095> 702 25<314.163 440.582>
VStem: 77 25<239.481 263.12> 170 66<485.5 614.319> 476 66<121.234 258> 532 28<500 542.467>
LayerCount: 2
Fore
SplineSet
25 69 m 1,0,-1
 77 266 l 1,1,-1
 102 262 l 1,2,3
 95 231 95 231 95 197 c 0,4,5
 95 103 95 103 149 58 c 128,-1,6
 203 13 203 13 286 13 c 128,-1,7
 369 13 369 13 422.5 58 c 128,-1,8
 476 103 476 103 476 160 c 0,9,10
 476 203 476 203 444.5 236 c 128,-1,11
 413 269 413 269 368 293.5 c 128,-1,12
 323 318 323 318 278 344.5 c 128,-1,13
 233 371 233 371 201.5 414 c 128,-1,14
 170 457 170 457 170 514 c 0,15,16
 170 606 170 606 229 666.5 c 128,-1,17
 288 727 288 727 385 727 c 0,18,19
 489 727 489 727 586 668 c 1,20,-1
 560 500 l 1,21,-1
 532 500 l 1,22,23
 535 526 535 526 535 543 c 0,24,25
 535 612 535 612 490.5 657 c 128,-1,26
 446 702 446 702 376 702 c 0,27,28
 316 702 316 702 276 665.5 c 128,-1,29
 236 629 236 629 236 578 c 0,30,31
 236 537 236 537 267.5 508 c 128,-1,32
 299 479 299 479 344 457.5 c 128,-1,33
 389 436 389 436 434 410.5 c 128,-1,34
 479 385 479 385 510.5 338 c 128,-1,35
 542 291 542 291 542 225 c 0,36,37
 542 116 542 116 466.5 52 c 128,-1,38
 391 -12 391 -12 286 -12 c 0,39,40
 148 -12 148 -12 25 69 c 1,0,-1
EndSplineSet
Substitution2: "sous-table 'c2sc' Capitales vers petites capitales dans Latin lookup 0" s.sc
EndChar

StartChar: T
Encoding: 52 84 55
Width: 667
Flags: W
TeX: 715 0
HStem: 0 25<109 206 321 427> 498 21G<694 724.608> 690 25<261.419 399 514 638.747>
VStem: 694 26<498 528.38>
LayerCount: 2
Fore
SplineSet
90 513 m 1,0,-1
 153 715 l 1,1,-1
 770 715 l 1,2,-1
 720 498 l 1,3,-1
 694 498 l 1,4,5
 702 536 702 536 702 560 c 0,6,7
 702 587 702 587 696.5 608 c 128,-1,8
 691 629 691 629 684 642.5 c 128,-1,9
 677 656 677 656 661 665.5 c 128,-1,10
 645 675 645 675 633.5 680 c 128,-1,11
 622 685 622 685 597.5 687 c 128,-1,12
 573 689 573 689 558.5 689.5 c 128,-1,13
 544 690 544 690 514 690 c 1,14,-1
 321 25 l 1,15,-1
 434 25 l 1,16,-1
 427 0 l 1,17,-1
 102 0 l 1,18,-1
 109 25 l 1,19,-1
 206 25 l 1,20,-1
 399 690 l 1,21,-1
 345 690 l 2,22,23
 291 690 291 690 249.5 673.5 c 128,-1,24
 208 657 208 657 182.5 626.5 c 128,-1,25
 157 596 157 596 144 571.5 c 128,-1,26
 131 547 131 547 118 513 c 1,27,-1
 90 513 l 1,0,-1
EndSplineSet
Substitution2: "sous-table 'c2sc' Capitales vers petites capitales dans Latin lookup 0" t.sc
EndChar

StartChar: U
Encoding: 53 85 56
Width: 778
Flags: W
TeX: 715 6
HStem: -12 31<265.271 471.506> 690 25<149 246 361 456 651 749 781 866>
VStem: 96 108<59.3649 227.793>
LayerCount: 2
Fore
SplineSet
142 690 m 1,0,-1
 149 715 l 1,1,-1
 463 715 l 1,2,-1
 456 690 l 1,3,-1
 361 690 l 1,4,-1
 227 235 l 2,5,6
 204 157 204 157 204 118 c 0,7,8
 204 19 204 19 369 19 c 0,9,10
 479 19 479 19 531 64.5 c 128,-1,11
 583 110 583 110 621 243 c 2,12,-1
 749 690 l 1,13,-1
 645 690 l 1,14,-1
 651 715 l 1,15,-1
 873 715 l 1,16,-1
 866 690 l 1,17,-1
 781 690 l 1,18,-1
 638 205 l 2,19,20
 600 76 600 76 537.5 32 c 128,-1,21
 475 -12 475 -12 338 -12 c 0,22,23
 310 -12 310 -12 292.5 -11 c 128,-1,24
 275 -10 275 -10 242 -7 c 128,-1,25
 209 -4 209 -4 187.5 5 c 128,-1,26
 166 14 166 14 143 28 c 128,-1,27
 120 42 120 42 108 66.5 c 128,-1,28
 96 91 96 91 96 123 c 0,29,30
 96 147 96 147 109 197 c 2,31,-1
 246 690 l 1,32,-1
 142 690 l 1,0,-1
EndSplineSet
Substitution2: "sous-table 'c2sc' Capitales vers petites capitales dans Latin lookup 0" u.sc
EndChar

StartChar: V
Encoding: 54 86 57
Width: 667
Flags: W
TeX: 715 12
HStem: 690 25<146 222 331 417 631 726 762 828>
LayerCount: 2
Fore
SplineSet
222 690 m 1,0,-1
 139 690 l 1,1,-1
 146 715 l 1,2,-1
 424 715 l 1,3,-1
 417 690 l 1,4,-1
 331 690 l 1,5,-1
 220 136 l 1,6,-1
 222 134 l 1,7,-1
 726 690 l 1,8,-1
 624 690 l 1,9,-1
 631 715 l 1,10,-1
 834 715 l 1,11,-1
 828 690 l 1,12,-1
 762 690 l 1,13,-1
 120 -12 l 1,14,-1
 89 -12 l 1,15,-1
 222 690 l 1,0,-1
EndSplineSet
Substitution2: "sous-table 'c2sc' Capitales vers petites capitales dans Latin lookup 0" v.sc
EndChar

StartChar: W
Encoding: 55 87 58
Width: 926
Flags: W
TeX: 715 12
HStem: 690 25<141 216 322 410 512 596 705 794 890 983 1012 1089>
LayerCount: 2
Fore
SplineSet
82 -12 m 1,0,-1
 216 690 l 1,1,-1
 135 690 l 1,2,-1
 141 715 l 1,3,-1
 416 715 l 1,4,-1
 410 690 l 1,5,-1
 322 690 l 1,6,-1
 223 181 l 1,7,-1
 225 179 l 1,8,-1
 596 690 l 1,9,-1
 507 690 l 1,10,-1
 512 715 l 1,11,-1
 799 715 l 1,12,-1
 794 690 l 1,13,-1
 705 690 l 1,14,-1
 605 172 l 1,15,-1
 607 170 l 1,16,-1
 983 690 l 1,17,-1
 884 690 l 1,18,-1
 890 715 l 1,19,-1
 1094 715 l 1,20,-1
 1089 690 l 1,21,-1
 1012 690 l 1,22,-1
 503 -12 l 1,23,-1
 469 -12 l 1,24,-1
 595 643 l 1,25,-1
 593 643 l 1,26,-1
 116 -12 l 1,27,-1
 82 -12 l 1,0,-1
EndSplineSet
Substitution2: "sous-table 'c2sc' Capitales vers petites capitales dans Latin lookup 0" w.sc
EndChar

StartChar: X
Encoding: 56 88 59
Width: 685
Flags: W
TeX: 715 0
HStem: 0 25<-74 13 51 149 313 417 532 617> 690 25<150 240 348 450 563 659 697 788>
LayerCount: 2
Fore
SplineSet
144 690 m 1,0,-1
 150 715 l 1,1,-1
 456 715 l 1,2,-1
 450 690 l 1,3,-1
 348 690 l 1,4,-1
 421 429 l 1,5,-1
 659 690 l 1,6,-1
 556 690 l 1,7,-1
 563 715 l 1,8,-1
 794 715 l 1,9,-1
 788 690 l 1,10,-1
 697 690 l 1,11,-1
 427 397 l 1,12,-1
 532 25 l 1,13,-1
 624 25 l 1,14,-1
 617 0 l 1,15,-1
 304 0 l 1,16,-1
 313 25 l 1,17,-1
 417 25 l 1,18,-1
 336 328 l 1,19,-1
 51 25 l 1,20,-1
 155 25 l 1,21,-1
 149 0 l 1,22,-1
 -81 0 l 1,23,-1
 -74 25 l 1,24,-1
 13 25 l 1,25,-1
 331 359 l 1,26,-1
 240 690 l 1,27,-1
 144 690 l 1,0,-1
EndSplineSet
Substitution2: "sous-table 'c2sc' Capitales vers petites capitales dans Latin lookup 0" x.sc
EndChar

StartChar: Y
Encoding: 57 89 60
Width: 611
Flags: W
TeX: 715 0
HStem: 0 25<80 184 296 402> 690 25<106 183 299 397 569 654 692 747>
LayerCount: 2
Fore
SplineSet
74 0 m 1,0,-1
 80 25 l 1,1,-1
 184 25 l 1,2,-1
 287 383 l 1,3,-1
 183 690 l 1,4,-1
 102 690 l 1,5,-1
 106 715 l 1,6,-1
 403 715 l 1,7,-1
 397 690 l 1,8,-1
 299 690 l 1,9,-1
 396 398 l 1,10,-1
 654 690 l 1,11,-1
 563 690 l 1,12,-1
 569 715 l 1,13,-1
 753 715 l 1,14,-1
 747 690 l 1,15,-1
 692 690 l 1,16,-1
 389 350 l 1,17,-1
 296 25 l 1,18,-1
 407 25 l 1,19,-1
 402 0 l 1,20,-1
 74 0 l 1,0,-1
EndSplineSet
Substitution2: "sous-table 'c2sc' Capitales vers petites capitales dans Latin lookup 0" y.sc
EndChar

StartChar: Z
Encoding: 58 90 61
Width: 704
Flags: W
TeX: 715 0
HStem: 0 25<119 432.373> 690 25<319.649 566>
LayerCount: 2
Fore
SplineSet
118 517 m 1,0,-1
 179 715 l 1,1,-1
 726 715 l 1,2,-1
 119 25 l 1,3,-1
 251 25 l 2,4,5
 303 25 303 25 338 27 c 128,-1,6
 373 29 373 29 416.5 35 c 128,-1,7
 460 41 460 41 491 54 c 128,-1,8
 522 67 522 67 553.5 88.5 c 128,-1,9
 585 110 585 110 609 143.5 c 128,-1,10
 633 177 633 177 650 223 c 1,11,-1
 677 223 l 1,12,-1
 608 0 l 1,13,-1
 -40 0 l 1,14,-1
 566 690 l 1,15,-1
 447 690 l 2,16,17
 392 690 392 690 353 684.5 c 128,-1,18
 314 679 314 679 272.5 662 c 128,-1,19
 231 645 231 645 199.5 609 c 128,-1,20
 168 573 168 573 145 517 c 1,21,-1
 118 517 l 1,0,-1
EndSplineSet
Substitution2: "sous-table 'c2sc' Capitales vers petites capitales dans Latin lookup 0" z.sc
EndChar

StartChar: bracketleft
Encoding: 59 91 62
Width: 333
Flags: W
TeX: 715 249
HStem: -166 25<98 221> 690 25<334 456>
LayerCount: 2
Fore
SplineSet
0 -166 m 1,0,-1
 252 715 l 1,1,-1
 461 715 l 1,2,-1
 456 690 l 1,3,-1
 334 690 l 1,4,-1
 98 -141 l 1,5,-1
 227 -141 l 1,6,-1
 221 -166 l 1,7,-1
 0 -166 l 1,0,-1
EndSplineSet
EndChar

StartChar: backslash
Encoding: 60 92 63
Width: 370
Flags: W
TeX: 727 12
HStem: 707 20G<72 141.008>
VStem: 72 285
LayerCount: 2
Fore
SplineSet
135 727 m 1,0,-1
 357 -12 l 1,1,-1
 294 -12 l 1,2,-1
 72 727 l 1,3,-1
 135 727 l 1,0,-1
EndSplineSet
EndChar

StartChar: bracketright
Encoding: 61 93 64
Width: 333
Flags: W
TeX: 715 249
HStem: -166 25<-113 9> 690 25<122 245>
LayerCount: 2
Fore
SplineSet
343 715 m 1,0,-1
 91 -166 l 1,1,-1
 -118 -166 l 1,2,-1
 -113 -141 l 1,3,-1
 9 -141 l 1,4,-1
 245 690 l 1,5,-1
 116 690 l 1,6,-1
 122 715 l 1,7,-1
 343 715 l 1,0,-1
EndSplineSet
EndChar

StartChar: asciicircum
Encoding: 62 94 65
Width: 600
Flags: W
TeX: 694 -329
HStem: 674 20G<287.425 372.575>
LayerCount: 2
Fore
SplineSet
177 329 m 1,0,-1
 105 329 l 1,1,-1
 298 694 l 1,2,-1
 362 694 l 1,3,-1
 555 329 l 1,4,-1
 483 329 l 1,5,-1
 330 616 l 1,6,-1
 177 329 l 1,0,-1
EndSplineSet
EndChar

StartChar: underscore
Encoding: 63 95 66
Width: 500
Flags: W
TeX: -75 125
HStem: -125 50<0 500>
LayerCount: 2
Fore
SplineSet
500 -125 m 1,0,-1
 0 -125 l 1,1,-1
 0 -75 l 1,2,-1
 500 -75 l 1,3,-1
 500 -125 l 1,0,-1
EndSplineSet
EndChar

StartChar: quoteleft
Encoding: 211 8216 67
Width: 259
Flags: W
TeX: 727 -403
HStem: 439 126<175.439 248.889> 707 20G<259.5 300.926>
VStem: 121 54<555 608.125>
LayerCount: 2
Fore
SplineSet
295 727 m 1,0,-1
 303 700 l 1,1,2
 250 677 250 677 212.5 640 c 128,-1,3
 175 603 175 603 175 555 c 1,4,5
 189 565 189 565 208 565 c 0,6,7
 237 565 237 565 253 548.5 c 128,-1,8
 269 532 269 532 269 505 c 128,-1,9
 269 478 269 478 249.5 458.5 c 128,-1,10
 230 439 230 439 203 439 c 0,11,12
 164 439 164 439 142.5 465.5 c 128,-1,13
 121 492 121 492 121 531 c 0,14,15
 121 596 121 596 172.5 646 c 128,-1,16
 224 696 224 696 295 727 c 1,0,-1
EndSplineSet
EndChar

StartChar: a
Encoding: 65 97 68
Width: 611
Flags: W
TeX: 502 12
HStem: -12 36<144.814 234.982> 470 20G<458.023 552> 477 25<304.023 390.086>
VStem: 30 96<44.0281 210.073> 339 102<23.1539 145.503> 418 23<403 443.509>
LayerCount: 2
Fore
SplineSet
464 490 m 1,0,-1
 552 490 l 1,1,-1
 466 187 l 2,2,3
 441 98 441 98 441 74 c 0,4,5
 441 54 441 54 458 54 c 0,6,7
 477 54 477 54 509.5 93 c 128,-1,8
 542 132 542 132 560 168 c 1,9,-1
 581 153 l 1,10,11
 547 90 547 90 498 39 c 128,-1,12
 449 -12 449 -12 396 -12 c 0,13,14
 339 -12 339 -12 339 49 c 0,15,16
 339 80 339 80 351 116 c 1,17,-1
 349 118 l 1,18,19
 272 -12 272 -12 156 -12 c 0,20,21
 105 -12 105 -12 67.5 24.5 c 128,-1,22
 30 61 30 61 30 140 c 0,23,24
 30 220 30 220 78.5 305 c 128,-1,25
 127 390 127 390 202.5 446 c 128,-1,26
 278 502 278 502 349 502 c 0,27,28
 391 502 391 502 413.5 474.5 c 128,-1,29
 436 447 436 447 436 403 c 1,30,-1
 438 403 l 1,31,-1
 464 490 l 1,0,-1
126 94 m 0,32,33
 126 63 126 63 143 43.5 c 128,-1,34
 160 24 160 24 190 24 c 0,35,36
 236 24 236 24 280.5 66 c 128,-1,37
 325 108 325 108 354 167 c 128,-1,38
 383 226 383 226 400.5 285 c 128,-1,39
 418 344 418 344 418 382 c 0,40,41
 418 477 418 477 350 477 c 0,42,43
 305 477 305 477 261 431.5 c 128,-1,44
 217 386 217 386 189 322 c 128,-1,45
 161 258 161 258 143.5 195.5 c 128,-1,46
 126 133 126 133 126 94 c 0,32,33
EndSplineSet
Substitution2: "sous-table 'smcp' Bas-de-casse vers petites capitales dans Latin lookup 0" a.sc
EndChar

StartChar: b
Encoding: 66 98 69
Width: 574
Flags: W
TeX: 715 12
HStem: -12 31<151.719 242.819> 466 36<309.731 401.229> 690 25<125 203.894>
VStem: 44 96<25.8749 185.926> 424 96<269.536 439.867>
LayerCount: 2
Fore
SplineSet
121 690 m 1,0,-1
 125 715 l 1,1,-1
 195 715 l 2,2,3
 252 715 252 715 307 721 c 1,4,-1
 216 391 l 1,5,-1
 218 389 l 1,6,7
 258 446 258 446 294 474 c 128,-1,8
 330 502 330 502 387 502 c 0,9,10
 438 502 438 502 479 465 c 128,-1,11
 520 428 520 428 520 345 c 0,12,13
 520 259 520 259 469.5 175.5 c 128,-1,14
 419 92 419 92 336.5 40 c 128,-1,15
 254 -12 254 -12 168 -12 c 0,16,17
 127 -12 127 -12 99.5 -2 c 128,-1,18
 72 8 72 8 61.5 24.5 c 128,-1,19
 51 41 51 41 47.5 52.5 c 128,-1,20
 44 64 44 64 44 77 c 0,21,22
 44 106 44 106 68 194 c 2,23,-1
 204 690 l 1,24,-1
 121 690 l 1,0,-1
424 376 m 0,25,26
 424 414 424 414 407.5 440 c 128,-1,27
 391 466 391 466 357 466 c 0,28,29
 307 466 307 466 263 412.5 c 128,-1,30
 219 359 219 359 194 288.5 c 128,-1,31
 169 218 169 218 154.5 160 c 128,-1,32
 140 102 140 102 140 81 c 0,33,34
 140 64 140 64 142 52.5 c 128,-1,35
 144 41 144 41 156 30 c 128,-1,36
 168 19 168 19 190 19 c 0,37,38
 249 19 249 19 306 90.5 c 128,-1,39
 363 162 363 162 393.5 244 c 128,-1,40
 424 326 424 326 424 376 c 0,25,26
EndSplineSet
Substitution2: "sous-table 'smcp' Bas-de-casse vers petites capitales dans Latin lookup 0" b.sc
EndChar

StartChar: c
Encoding: 67 99 70
Width: 463
Flags: W
TeX: 502 12
HStem: -12 31<175.378 291.221> 477 25<290.913 372.141>
VStem: 38 102<69.4459 238.612> 384 90<342.682 446.267>
LayerCount: 2
Fore
SplineSet
415 160 m 1,0,-1
 436 148 l 1,1,2
 402 79 402 79 343 33.5 c 128,-1,3
 284 -12 284 -12 213 -12 c 0,4,5
 134 -12 134 -12 86 35 c 128,-1,6
 38 82 38 82 38 164 c 0,7,8
 38 219 38 219 62.5 279 c 128,-1,9
 87 339 87 339 127 388.5 c 128,-1,10
 167 438 167 438 223 470 c 128,-1,11
 279 502 279 502 336 502 c 0,12,13
 390 502 390 502 432 467.5 c 128,-1,14
 474 433 474 433 474 379 c 0,15,16
 474 314 474 314 419 314 c 0,17,18
 395 314 395 314 383.5 327.5 c 128,-1,19
 372 341 372 341 372 362 c 0,20,21
 372 369 372 369 378 395.5 c 128,-1,22
 384 422 384 422 384 435 c 0,23,24
 384 477 384 477 332 477 c 0,25,26
 292 477 292 477 254.5 433 c 128,-1,27
 217 389 217 389 193 329 c 128,-1,28
 169 269 169 269 154.5 212 c 128,-1,29
 140 155 140 155 140 123 c 0,30,31
 140 71 140 71 163 45 c 128,-1,32
 186 19 186 19 237 19 c 0,33,34
 291 19 291 19 340 62 c 128,-1,35
 389 105 389 105 415 160 c 1,0,-1
EndSplineSet
Substitution2: "sous-table 'smcp' Bas-de-casse vers petites capitales dans Latin lookup 0" c.sc
EndChar

StartChar: d
Encoding: 68 100 71
Width: 611
Flags: W
TeX: 715 12
HStem: -12 42<147.588 241.701> 471 31<295.261 386.422> 690 25<428 515.25>
VStem: 30 102<43.4939 226.237> 347 90<42.8309 115.723>
LayerCount: 2
Fore
SplineSet
132 110 m 0,0,1
 132 30 132 30 194 30 c 0,2,3
 253 30 253 30 306.5 97 c 128,-1,4
 360 164 360 164 388 244.5 c 128,-1,5
 416 325 416 325 416 381 c 0,6,7
 416 417 416 417 397 444 c 128,-1,8
 378 471 378 471 343 471 c 0,9,10
 290 471 290 471 238.5 399.5 c 128,-1,11
 187 328 187 328 159.5 244.5 c 128,-1,12
 132 161 132 161 132 110 c 0,0,1
576 161 m 1,13,-1
 596 148 l 1,14,15
 578 117 578 117 561.5 94.5 c 128,-1,16
 545 72 545 72 520.5 45 c 128,-1,17
 496 18 496 18 467.5 3 c 128,-1,18
 439 -12 439 -12 409 -12 c 128,-1,19
 379 -12 379 -12 363 7 c 128,-1,20
 347 26 347 26 347 57 c 0,21,22
 347 83 347 83 355 116 c 1,23,-1
 353 118 l 1,24,-1
 353 116 l 1,25,26
 269 -12 269 -12 158 -12 c 0,27,28
 102 -12 102 -12 66 21.5 c 128,-1,29
 30 55 30 55 30 132 c 0,30,31
 30 211 30 211 74.5 297.5 c 128,-1,32
 119 384 119 384 190.5 443 c 128,-1,33
 262 502 262 502 333 502 c 0,34,35
 374 502 374 502 400.5 478.5 c 128,-1,36
 427 455 427 455 434 418 c 1,37,-1
 436 418 l 1,38,-1
 516 690 l 1,39,-1
 423 690 l 1,40,-1
 428 715 l 1,41,-1
 510 715 l 2,42,43
 566 715 566 715 622 721 c 1,44,-1
 473 216 l 2,45,46
 437 95 437 95 437 69 c 0,47,48
 437 42 437 42 466 42 c 0,49,50
 487 42 487 42 522.5 85.5 c 128,-1,51
 558 129 558 129 576 161 c 1,13,-1
EndSplineSet
Substitution2: "sous-table 'smcp' Bas-de-casse vers petites capitales dans Latin lookup 0" d.sc
EndChar

StartChar: e
Encoding: 69 101 72
Width: 463
Flags: W
TeX: 502 12
HStem: -12 36<160.619 267.773> 477 25<272.637 345.967>
VStem: 38 96<47.1464 221.854> 361 78<363.351 466.024>
LayerCount: 2
Fore
SplineSet
397 174 m 1,0,-1
 420 167 l 1,1,2
 383 91 383 91 322.5 39.5 c 128,-1,3
 262 -12 262 -12 179 -12 c 0,4,5
 38 -12 38 -12 38 147 c 0,6,7
 38 232 38 232 79 314.5 c 128,-1,8
 120 397 120 397 189 449.5 c 128,-1,9
 258 502 258 502 332 502 c 0,10,11
 376 502 376 502 407.5 481 c 128,-1,12
 439 460 439 460 439 418 c 0,13,14
 439 397 439 397 426 376 c 128,-1,15
 413 355 413 355 396 339 c 128,-1,16
 379 323 379 323 348.5 305.5 c 128,-1,17
 318 288 318 288 297 278 c 128,-1,18
 276 268 276 268 239.5 254 c 128,-1,19
 203 240 203 240 190.5 236 c 128,-1,20
 178 232 178 232 149 222 c 1,21,22
 134 164 134 164 134 117 c 0,23,24
 134 24 134 24 214 24 c 0,25,26
 312 24 312 24 397 174 c 1,0,-1
361 425 m 0,27,28
 361 448 361 448 348.5 462.5 c 128,-1,29
 336 477 336 477 314 477 c 0,30,31
 267 477 267 477 232 421 c 128,-1,32
 197 365 197 365 159 253 c 1,33,34
 361 322 361 322 361 425 c 0,27,28
EndSplineSet
Substitution2: "sous-table 'smcp' Bas-de-casse vers petites capitales dans Latin lookup 0" e.sc
EndChar

StartChar: f
Encoding: 70 102 73
Width: 315
Flags: W
TeX: 727 0
HStem: -180 31<-105.58 -35.2422> 465 25<86 173 278 374> 702 25<353.115 415.72>
VStem: -190 83<-148.473 -58.6299> 423 72<635.137 695.917>
LayerCount: 2
Fore
SplineSet
173 465 m 1,0,-1
 79 465 l 1,1,-1
 86 490 l 1,2,-1
 181 490 l 1,3,4
 190 526 190 526 207.5 564.5 c 128,-1,5
 225 603 225 603 251 641 c 128,-1,6
 277 679 277 679 314.5 703 c 128,-1,7
 352 727 352 727 394 727 c 0,8,9
 432 727 432 727 463.5 705 c 128,-1,10
 495 683 495 683 495 648 c 0,11,12
 495 619 495 619 481.5 601.5 c 128,-1,13
 468 584 468 584 444 584 c 0,14,15
 425 584 425 584 412 595.5 c 128,-1,16
 399 607 399 607 399 624 c 0,17,18
 399 637 399 637 411 651.5 c 128,-1,19
 423 666 423 666 423 677 c 128,-1,20
 423 688 423 688 413.5 695 c 128,-1,21
 404 702 404 702 391 702 c 0,22,23
 350 702 350 702 325.5 656 c 128,-1,24
 301 610 301 610 278 490 c 1,25,-1
 380 490 l 1,26,-1
 374 465 l 1,27,-1
 274 465 l 1,28,29
 263 400 263 400 243 323 c 128,-1,30
 223 246 223 246 188.5 154.5 c 128,-1,31
 154 63 154 63 113 -9.5 c 128,-1,32
 72 -82 72 -82 16 -131 c 128,-1,33
 -40 -180 -40 -180 -100 -180 c 0,34,35
 -142 -180 -142 -180 -166 -155.5 c 128,-1,36
 -190 -131 -190 -131 -190 -96 c 0,37,38
 -190 -34 -190 -34 -138 -34 c 0,39,40
 -119 -34 -119 -34 -106.5 -46 c 128,-1,41
 -94 -58 -94 -58 -94 -75 c 0,42,43
 -94 -83 -94 -83 -100.5 -101 c 128,-1,44
 -107 -119 -107 -119 -107 -126 c 0,45,46
 -107 -149 -107 -149 -78 -149 c 0,47,48
 -10 -149 -10 -149 27 -65.5 c 128,-1,49
 64 18 64 18 124 266 c 2,50,-1
 173 465 l 1,0,-1
EndSplineSet
Substitution2: "sous-table 'smcp' Bas-de-casse vers petites capitales dans Latin lookup 0" f.sc
EndChar

StartChar: g
Encoding: 71 103 74
Width: 593
Flags: W
TeX: 502 220
HStem: -220 25<130.454 298.833> 27 90<120.227 398.522> 192 25<257.333 341.943> 229 19<141.207 175> 477 25<299.81 390.116 508.258 561>
VStem: -24 72<-144.795 -18.7362> 38 66<93 194.462> 150 84<247.008 410.118> 175 59<248 292.652> 413 78<295.712 439.312> 439 54<-87.863 14.1245> 539 78<398.798 470.838>
LayerCount: 2
Fore
SplineSet
493 -1 m 0,0,1
 493 -67 493 -67 450.5 -118 c 128,-1,2
 408 -169 408 -169 342.5 -194.5 c 128,-1,3
 277 -220 277 -220 201 -220 c 0,4,5
 158 -220 158 -220 121.5 -214 c 128,-1,6
 85 -208 85 -208 50.5 -194 c 128,-1,7
 16 -180 16 -180 -4 -152.5 c 128,-1,8
 -24 -125 -24 -125 -24 -86 c 0,9,10
 -24 12 -24 12 104 34 c 1,11,-1
 104 36 l 1,12,13
 38 57 38 57 38 129 c 0,14,15
 38 180 38 180 77.5 213 c 128,-1,16
 117 246 117 246 175 248 c 1,17,-1
 175 250 l 1,18,19
 150 274 150 274 150 327 c 0,20,21
 150 406 150 406 205.5 454 c 128,-1,22
 261 502 261 502 340 502 c 0,23,24
 431 502 431 502 472 435 c 1,25,26
 477 465 477 465 496 483.5 c 128,-1,27
 515 502 515 502 545 502 c 0,28,29
 577 502 577 502 597 484 c 128,-1,30
 617 466 617 466 617 434 c 0,31,32
 617 389 617 389 576 389 c 0,33,34
 560 389 560 389 549.5 398.5 c 128,-1,35
 539 408 539 408 539 423 c 0,36,37
 539 430 539 430 542 440 c 128,-1,38
 545 450 545 450 545 456 c 0,39,40
 545 471 545 471 527 471 c 0,41,42
 507 471 507 471 497.5 449.5 c 128,-1,43
 488 428 488 428 488 405 c 0,44,45
 488 401 488 401 489.5 387.5 c 128,-1,46
 491 374 491 374 491 366 c 0,47,48
 491 292 491 292 437.5 242 c 128,-1,49
 384 192 384 192 307 192 c 0,50,51
 236 192 236 192 192 229 c 1,52,53
 155 228 155 228 129.5 214.5 c 128,-1,54
 104 201 104 201 104 173 c 0,55,56
 104 135 104 135 148 126 c 128,-1,57
 192 117 192 117 299 117 c 0,58,59
 340 117 340 117 371 112.5 c 128,-1,60
 402 108 402 108 431.5 96.5 c 128,-1,61
 461 85 461 85 477 60.5 c 128,-1,62
 493 36 493 36 493 -1 c 0,0,1
48 -84 m 0,63,64
 48 -138 48 -138 96 -166.5 c 128,-1,65
 144 -195 144 -195 202 -195 c 0,66,67
 306 -195 306 -195 372.5 -149 c 128,-1,68
 439 -103 439 -103 439 -51 c 0,69,70
 439 -29 439 -29 423 -13 c 128,-1,71
 407 3 407 3 387 10.5 c 128,-1,72
 367 18 367 18 329.5 22 c 128,-1,73
 292 26 292 26 270 26.5 c 128,-1,74
 248 27 248 27 208 27 c 0,75,76
 48 27 48 27 48 -84 c 0,63,64
234 287 m 0,77,78
 234 256 234 256 250 236.5 c 128,-1,79
 266 217 266 217 297 217 c 0,80,81
 331 217 331 217 356 240 c 128,-1,82
 381 263 381 263 392 297.5 c 128,-1,83
 403 332 403 332 408 360 c 128,-1,84
 413 388 413 388 413 410 c 0,85,86
 413 477 413 477 346 477 c 0,87,88
 313 477 313 477 289 457 c 128,-1,89
 265 437 265 437 254 405.5 c 128,-1,90
 243 374 243 374 238.5 345 c 128,-1,91
 234 316 234 316 234 287 c 0,77,78
EndSplineSet
Substitution2: "sous-table 'smcp' Bas-de-casse vers petites capitales dans Latin lookup 0" g.sc
EndChar

StartChar: h
Encoding: 72 104 75
Width: 611
Flags: W
TeX: 715 0
HStem: -12 48<389.5 476.966> 0 21G<31 130.126> 466 36<353.54 436.13> 690 25<138 224.339>
VStem: 336 96<36.0741 147.328> 440 90<341.484 462.883>
LayerCount: 2
Fore
SplineSet
31 0 m 1,0,-1
 226 690 l 1,1,-1
 131 690 l 1,2,-1
 138 715 l 1,3,-1
 219 715 l 2,4,5
 276 715 276 715 331 721 c 1,6,-1
 226 374 l 1,7,-1
 228 372 l 1,8,-1
 228 374 l 1,9,10
 259 422 259 422 315.5 462 c 128,-1,11
 372 502 372 502 427 502 c 0,12,13
 469 502 469 502 499.5 479.5 c 128,-1,14
 530 457 530 457 530 417 c 0,15,16
 530 401 530 401 522 374 c 2,17,-1
 450 140 l 2,18,19
 432 80 432 80 432 59 c 0,20,21
 432 36 432 36 454 36 c 0,22,23
 486 36 486 36 519.5 87.5 c 128,-1,24
 553 139 553 139 566 182 c 1,25,-1
 591 177 l 1,26,27
 521 -12 521 -12 404 -12 c 0,28,29
 375 -12 375 -12 355.5 7 c 128,-1,30
 336 26 336 26 336 53 c 0,31,32
 336 81 336 81 350 124 c 2,33,-1
 428 373 l 2,34,35
 440 413 440 413 440 431 c 0,36,37
 440 466 440 466 397 466 c 0,38,39
 340 466 340 466 273.5 393.5 c 128,-1,40
 207 321 207 321 186 238 c 2,41,-1
 125 0 l 1,42,-1
 31 0 l 1,0,-1
EndSplineSet
Substitution2: "sous-table 'smcp' Bas-de-casse vers petites capitales dans Latin lookup 0" h.sc
EndChar

StartChar: i
Encoding: 73 105 76
Width: 315
Flags: W
TeX: 706 0
HStem: -12 54<95.5 177.168> 465 25<71 154.75> 601 114<207.555 296.445>
VStem: 44 96<42.3129 143.5> 195 114<613.555 702.445>
LayerCount: 2
Fore
SplineSet
155 465 m 1,0,-1
 66 465 l 1,1,-1
 71 490 l 1,2,-1
 146 490 l 2,3,4
 202 490 202 490 258 496 c 1,5,-1
 149 104 l 2,6,7
 140 72 140 72 140 62 c 0,8,9
 140 42 140 42 162 42 c 0,10,11
 197 42 197 42 280 162 c 1,12,-1
 300 148 l 1,13,14
 285 125 285 125 263 97 c 128,-1,15
 241 69 241 69 219.5 45 c 128,-1,16
 198 21 198 21 168.5 4.5 c 128,-1,17
 139 -12 139 -12 110 -12 c 128,-1,18
 81 -12 81 -12 62.5 5.5 c 128,-1,19
 44 23 44 23 44 48 c 0,20,21
 44 66 44 66 60 125 c 2,22,-1
 155 465 l 1,0,-1
195 658 m 128,-1,24
 195 681 195 681 212 698 c 128,-1,25
 229 715 229 715 252 715 c 128,-1,26
 275 715 275 715 292 698 c 128,-1,27
 309 681 309 681 309 658 c 128,-1,28
 309 635 309 635 292 618 c 128,-1,29
 275 601 275 601 252 601 c 128,-1,30
 229 601 229 601 212 618 c 128,-1,23
 195 635 195 635 195 658 c 128,-1,24
EndSplineSet
Substitution2: "sous-table 'smcp' Bas-de-casse vers petites capitales dans Latin lookup 0" i.sc
EndChar

StartChar: j
Encoding: 74 106 77
Width: 296
Flags: W
TeX: 706 220
HStem: -186 25<-131 -81.0974> 465 25<71 154.75> 601 114<207.555 296.445>
VStem: 195 114<613.555 702.445>
LayerCount: 2
Fore
SplineSet
-131 -186 m 1,0,-1
 -131 -161 l 1,1,2
 -99 -156 -99 -156 -75.5 -147 c 128,-1,3
 -52 -138 -52 -138 -36 -124 c 128,-1,4
 -20 -110 -20 -110 -8 -91.5 c 128,-1,5
 4 -73 4 -73 12 -50 c 128,-1,6
 20 -27 20 -27 28 1 c 128,-1,7
 36 29 36 29 45 61 c 2,8,-1
 155 465 l 1,9,-1
 66 465 l 1,10,-1
 71 490 l 1,11,-1
 146 490 l 2,12,13
 202 490 202 490 258 496 c 1,14,-1
 122 2 l 2,15,16
 108 -47 108 -47 96.5 -72 c 128,-1,17
 85 -97 85 -97 58.5 -121.5 c 128,-1,18
 32 -146 32 -146 -12 -160 c 128,-1,19
 -56 -174 -56 -174 -131 -186 c 1,0,-1
195 658 m 128,-1,21
 195 681 195 681 212 698 c 128,-1,22
 229 715 229 715 252 715 c 128,-1,23
 275 715 275 715 292 698 c 128,-1,24
 309 681 309 681 309 658 c 128,-1,25
 309 635 309 635 292 618 c 128,-1,26
 275 601 275 601 252 601 c 128,-1,27
 229 601 229 601 212 618 c 128,-1,20
 195 635 195 635 195 658 c 128,-1,21
EndSplineSet
Substitution2: "sous-table 'smcp' Bas-de-casse vers petites capitales dans Latin lookup 0" j.sc
EndChar

StartChar: k
Encoding: 75 107 78
Width: 593
Flags: W
TeX: 715 0
HStem: -12 42<371.5 458.104> 0 21G<22 129.581> 301 25<215 299.896> 461 36<434.982 505> 690 25<140 226.438>
VStem: 306 90<34.912 174.936> 337 84<128.129 270.039> 481 79<397.798 460.711>
LayerCount: 2
Fore
SplineSet
228 690 m 1,0,-1
 135 690 l 1,1,-1
 140 715 l 1,2,-1
 215 715 l 2,3,4
 276 715 276 715 337 721 c 1,5,-1
 215 326 l 1,6,-1
 245 326 l 2,7,8
 281 326 281 326 309 343.5 c 128,-1,9
 337 361 337 361 356 386.5 c 128,-1,10
 375 412 375 412 392.5 437 c 128,-1,11
 410 462 410 462 435 479.5 c 128,-1,12
 460 497 460 497 491 497 c 0,13,14
 519 497 519 497 539.5 481.5 c 128,-1,15
 560 466 560 466 560 439 c 0,16,17
 560 388 560 388 518 388 c 0,18,19
 497 388 497 388 486.5 397.5 c 128,-1,20
 476 407 476 407 476 422 c 0,21,22
 476 427 476 427 478.5 437 c 128,-1,23
 481 447 481 447 481 450 c 0,24,25
 481 461 481 461 466 461 c 0,26,27
 448 461 448 461 420 427 c 128,-1,28
 392 393 392 393 362 357 c 128,-1,29
 332 321 332 321 311 318 c 1,30,-1
 311 316 l 1,31,32
 358 308 358 308 389.5 280 c 128,-1,33
 421 252 421 252 421 209 c 0,34,35
 421 180 421 180 408.5 130 c 128,-1,36
 396 80 396 80 396 59 c 0,37,38
 396 47 396 47 403.5 38.5 c 128,-1,39
 411 30 411 30 423 30 c 0,40,41
 458 30 458 30 488.5 74 c 128,-1,42
 519 118 519 118 537 166 c 1,43,-1
 556 157 l 1,44,-1
 557 156 l 2,45,46
 558 156 558 156 559 156 c 1,47,48
 538 89 538 89 492.5 38.5 c 128,-1,49
 447 -12 447 -12 390 -12 c 0,50,51
 353 -12 353 -12 329.5 8.5 c 128,-1,52
 306 29 306 29 306 61 c 0,53,54
 306 92 306 92 321.5 156 c 128,-1,55
 337 220 337 220 337 248 c 0,56,57
 337 267 337 267 328 278.5 c 128,-1,58
 319 290 319 290 302 294.5 c 128,-1,59
 285 299 285 299 273.5 300 c 128,-1,60
 262 301 262 301 243 301 c 2,61,-1
 208 301 l 1,62,-1
 124 0 l 1,63,-1
 22 0 l 1,64,-1
 228 690 l 1,0,-1
EndSplineSet
Substitution2: "sous-table 'smcp' Bas-de-casse vers petites capitales dans Latin lookup 0" k.sc
EndChar

StartChar: l
Encoding: 76 108 79
Width: 315
Flags: W
TeX: 715 0
HStem: -12 54<95.5 175.736> 690 25<130 216.156>
VStem: 44 96<42.3129 142.609>
LayerCount: 2
Fore
SplineSet
125 690 m 1,0,-1
 130 715 l 1,1,-1
 199 715 l 2,2,3
 260 715 260 715 321 721 c 1,4,-1
 149 104 l 2,5,6
 140 72 140 72 140 62 c 0,7,8
 140 42 140 42 162 42 c 0,9,10
 199 42 199 42 271 170 c 1,11,-1
 292 159 l 1,12,13
 205 -12 205 -12 110 -12 c 0,14,15
 81 -12 81 -12 62.5 5.5 c 128,-1,16
 44 23 44 23 44 48 c 0,17,18
 44 66 44 66 60 125 c 2,19,-1
 218 690 l 1,20,-1
 125 690 l 1,0,-1
EndSplineSet
Substitution2: "sous-table 'smcp' Bas-de-casse vers petites capitales dans Latin lookup 0" l.sc
EndChar

StartChar: m
Encoding: 77 109 80
Width: 907
Flags: W
TeX: 502 0
HStem: -12 48<689.5 776.966> 0 21G<28 127.347 329 430.126> 465 25<69 150.75> 466 36<352.441 450.584 653.54 736.13>
VStem: 431 102<339.922 460.974> 636 96<36.0741 147.328> 740 90<341.484 462.883>
LayerCount: 2
Fore
SplineSet
28 0 m 1,0,-1
 151 465 l 1,1,-1
 64 465 l 1,2,-1
 69 490 l 1,3,-1
 142 490 l 2,4,5
 198 490 198 490 254 496 c 1,6,-1
 220 359 l 1,7,-1
 222 359 l 1,8,9
 251 395 251 395 267 413 c 128,-1,10
 283 431 283 431 311 456 c 128,-1,11
 339 481 339 481 369.5 491.5 c 128,-1,12
 400 502 400 502 436 502 c 0,13,14
 478 502 478 502 505.5 482.5 c 128,-1,15
 533 463 533 463 533 423 c 0,16,17
 533 396 533 396 524 374 c 1,18,-1
 528 374 l 1,19,20
 559 422 559 422 615.5 462 c 128,-1,21
 672 502 672 502 727 502 c 0,22,23
 769 502 769 502 799.5 479.5 c 128,-1,24
 830 457 830 457 830 417 c 0,25,26
 830 401 830 401 822 374 c 2,27,-1
 750 140 l 2,28,29
 732 80 732 80 732 59 c 0,30,31
 732 36 732 36 754 36 c 0,32,33
 786 36 786 36 819.5 87.5 c 128,-1,34
 853 139 853 139 866 182 c 1,35,-1
 891 177 l 1,36,37
 821 -12 821 -12 704 -12 c 0,38,39
 675 -12 675 -12 655.5 7 c 128,-1,40
 636 26 636 26 636 53 c 0,41,42
 636 81 636 81 650 124 c 2,43,-1
 728 373 l 2,44,45
 740 413 740 413 740 431 c 0,46,47
 740 466 740 466 697 466 c 0,48,49
 640 466 640 466 573.5 393.5 c 128,-1,50
 507 321 507 321 486 238 c 2,51,-1
 425 0 l 1,52,-1
 329 0 l 1,53,-1
 414 315 l 2,54,55
 431 374 431 374 431 413 c 0,56,57
 431 466 431 466 387 466 c 128,-1,58
 343 466 343 466 275.5 393.5 c 128,-1,59
 208 321 208 321 176 202 c 2,60,-1
 122 0 l 1,61,-1
 28 0 l 1,0,-1
EndSplineSet
Substitution2: "sous-table 'smcp' Bas-de-casse vers petites capitales dans Latin lookup 0" m.sc
EndChar

StartChar: n
Encoding: 78 110 81
Width: 611
Flags: W
TeX: 502 0
HStem: -12 48<389.5 476.966> 0 21G<31 130.126> 465 25<77 160.75> 466 36<353.54 436.13>
VStem: 336 96<36.0741 147.328> 440 90<341.484 462.883>
LayerCount: 2
Fore
SplineSet
31 0 m 1,0,-1
 161 465 l 1,1,-1
 72 465 l 1,2,-1
 77 490 l 1,3,-1
 152 490 l 2,4,5
 208 490 208 490 264 496 c 1,6,-1
 226 374 l 1,7,-1
 228 374 l 1,8,9
 259 422 259 422 315.5 462 c 128,-1,10
 372 502 372 502 427 502 c 0,11,12
 469 502 469 502 499.5 479.5 c 128,-1,13
 530 457 530 457 530 417 c 0,14,15
 530 401 530 401 522 374 c 2,16,-1
 450 140 l 2,17,18
 432 80 432 80 432 59 c 0,19,20
 432 36 432 36 454 36 c 0,21,22
 486 36 486 36 519.5 87.5 c 128,-1,23
 553 139 553 139 566 182 c 1,24,-1
 591 177 l 1,25,26
 521 -12 521 -12 404 -12 c 0,27,28
 375 -12 375 -12 355.5 7 c 128,-1,29
 336 26 336 26 336 53 c 0,30,31
 336 81 336 81 350 124 c 2,32,-1
 428 373 l 2,33,34
 440 413 440 413 440 431 c 0,35,36
 440 466 440 466 397 466 c 0,37,38
 340 466 340 466 273.5 393.5 c 128,-1,39
 207 321 207 321 186 238 c 2,40,-1
 125 0 l 1,41,-1
 31 0 l 1,0,-1
EndSplineSet
Substitution2: "sous-table 'smcp' Bas-de-casse vers petites capitales dans Latin lookup 0" n.sc
EndChar

StartChar: o
Encoding: 79 111 82
Width: 574
Flags: W
TeX: 502 12
HStem: -12 25<181.361 291.205> 477 25<282.978 392.639>
VStem: 54 90<88.4319 236.589> 430 90<253.411 401.568>
LayerCount: 2
Fore
SplineSet
520 299 m 0,0,1
 520 175 520 175 440 81.5 c 128,-1,2
 360 -12 360 -12 239 -12 c 0,3,4
 152 -12 152 -12 103 46 c 128,-1,5
 54 104 54 104 54 191 c 0,6,7
 54 315 54 315 134.5 408.5 c 128,-1,8
 215 502 215 502 335 502 c 0,9,10
 422 502 422 502 471 444 c 128,-1,11
 520 386 520 386 520 299 c 0,0,1
430 383 m 0,12,13
 430 477 430 477 339 477 c 0,14,15
 287 477 287 477 251 444 c 0,16,17
 218 414 218 414 181 291 c 128,-1,18
 144 168 144 168 144 107 c 0,19,20
 144 13 144 13 235 13 c 0,21,22
 287 13 287 13 323 46 c 0,23,24
 356 76 356 76 393 199 c 128,-1,25
 430 322 430 322 430 383 c 0,12,13
EndSplineSet
Substitution2: "sous-table 'smcp' Bas-de-casse vers petites capitales dans Latin lookup 0" o.sc
EndChar

StartChar: p
Encoding: 80 112 83
Width: 593
Flags: W
TeX: 502 220
HStem: -220 21G<-54 47> -12 36<193.693 296.534> 460 42<335.149 417.07> 465 25<72 147.337>
VStem: 437 102<239.779 438.037>
LayerCount: 2
Fore
SplineSet
-54 -220 m 1,0,-1
 149 465 l 1,1,-1
 65 465 l 1,2,-1
 72 490 l 1,3,-1
 142 490 l 2,4,5
 199 490 199 490 253 496 c 1,6,-1
 225 396 l 1,7,-1
 227 394 l 1,8,9
 262 429 262 429 281 446 c 128,-1,10
 300 463 300 463 337 482.5 c 128,-1,11
 374 502 374 502 409 502 c 0,12,13
 473 502 473 502 506 456 c 128,-1,14
 539 410 539 410 539 344 c 0,15,16
 539 263 539 263 500 180 c 128,-1,17
 461 97 461 97 395 42.5 c 128,-1,18
 329 -12 329 -12 259 -12 c 0,19,20
 207 -12 207 -12 179.5 13 c 128,-1,21
 152 38 152 38 136 90 c 1,22,-1
 134 90 l 1,23,-1
 41 -220 l 1,24,-1
 -54 -220 l 1,0,-1
437 360 m 0,25,26
 437 460 437 460 371 460 c 0,27,28
 300 460 300 460 230.5 352.5 c 128,-1,29
 161 245 161 245 161 125 c 0,30,31
 161 83 161 83 182.5 53.5 c 128,-1,32
 204 24 204 24 245 24 c 0,33,34
 297 24 297 24 343.5 90 c 128,-1,35
 390 156 390 156 413.5 233 c 128,-1,36
 437 310 437 310 437 360 c 0,25,26
EndSplineSet
Substitution2: "sous-table 'smcp' Bas-de-casse vers petites capitales dans Latin lookup 0" p.sc
EndChar

StartChar: q
Encoding: 81 113 84
Width: 574
Flags: W
TeX: 502 220
HStem: -220 21G<277 379.69> -12 36<180.663 280.09> 470 20G<474.333 576> 471 31<318.247 415.26>
VStem: 54 102<50.6941 238.766>
LayerCount: 2
Fore
SplineSet
576 490 m 1,0,-1
 374 -220 l 1,1,-1
 277 -220 l 1,2,-1
 362 72 l 1,3,-1
 360 74 l 1,4,5
 295 -12 295 -12 201 -12 c 0,6,7
 126 -12 126 -12 90 30.5 c 128,-1,8
 54 73 54 73 54 149 c 0,9,10
 54 222 54 222 96.5 304 c 128,-1,11
 139 386 139 386 211 444 c 128,-1,12
 283 502 283 502 358 502 c 0,13,14
 394 502 394 502 422.5 484 c 128,-1,15
 451 466 451 466 460 433 c 1,16,-1
 462 433 l 1,17,-1
 481 490 l 1,18,-1
 576 490 l 1,0,-1
156 109 m 0,19,20
 156 70 156 70 175.5 47 c 128,-1,21
 195 24 195 24 232 24 c 0,22,23
 288 24 288 24 338.5 90 c 128,-1,24
 389 156 389 156 415.5 238 c 128,-1,25
 442 320 442 320 442 381 c 0,26,27
 442 423 442 423 423.5 447 c 128,-1,28
 405 471 405 471 369 471 c 0,29,30
 316 471 316 471 265 408.5 c 128,-1,31
 214 346 214 346 185 262 c 128,-1,32
 156 178 156 178 156 109 c 0,19,20
EndSplineSet
Substitution2: "sous-table 'smcp' Bas-de-casse vers petites capitales dans Latin lookup 0" q.sc
EndChar

StartChar: r
Encoding: 82 114 85
Width: 463
Flags: W
TeX: 502 0
HStem: 0 21G<31 128.821> 465 25<69 154.339> 471 31<348.887 429.939>
VStem: 409 90<401.566 470.763>
LayerCount: 2
Fore
SplineSet
156 465 m 1,0,-1
 65 465 l 1,1,-1
 69 490 l 1,2,-1
 149 490 l 2,3,4
 206 490 206 490 261 496 c 1,5,-1
 231 374 l 1,6,-1
 233 372 l 1,7,8
 257 403 257 403 270 418 c 128,-1,9
 283 433 283 433 308 457 c 128,-1,10
 333 481 333 481 359.5 491.5 c 128,-1,11
 386 502 386 502 415 502 c 0,12,13
 451 502 451 502 475 481.5 c 128,-1,14
 499 461 499 461 499 429 c 0,15,16
 499 394 499 394 482.5 373 c 128,-1,17
 466 352 466 352 439 352 c 0,18,19
 386 352 386 352 386 392 c 0,20,21
 386 407 386 407 397.5 425 c 128,-1,22
 409 443 409 443 409 453 c 0,23,24
 409 471 409 471 389 471 c 0,25,26
 337 471 337 471 264.5 375.5 c 128,-1,27
 192 280 192 280 151 112 c 2,28,-1
 124 0 l 1,29,-1
 31 0 l 1,30,-1
 156 465 l 1,0,-1
EndSplineSet
Substitution2: "sous-table 'smcp' Bas-de-casse vers petites capitales dans Latin lookup 0" r.sc
EndChar

StartChar: s
Encoding: 83 115 86
Width: 426
Flags: W
TeX: 502 12
HStem: -12 25<127.212 228.05> 477 25<190.181 272.101>
VStem: 10 90<41.593 135.045> 97 66<342 434.701> 272 66<69.2555 172.5> 292 84<377.924 461.93>
LayerCount: 2
Fore
SplineSet
97 361 m 0,0,1
 97 422 97 422 143.5 462 c 128,-1,2
 190 502 190 502 251 502 c 0,3,4
 296 502 296 502 336 476.5 c 128,-1,5
 376 451 376 451 376 411 c 0,6,7
 376 388 376 388 364 376 c 128,-1,8
 352 364 352 364 334 364 c 0,9,10
 307 364 307 364 299.5 377.5 c 128,-1,11
 292 391 292 391 292 414 c 0,12,13
 292 477 292 477 230 477 c 0,14,15
 203 477 203 477 183 459 c 128,-1,16
 163 441 163 441 163 414 c 0,17,18
 163 389 163 389 181 365.5 c 128,-1,19
 199 342 199 342 225 322 c 128,-1,20
 251 302 251 302 276.5 280 c 128,-1,21
 302 258 302 258 320 225 c 128,-1,22
 338 192 338 192 338 153 c 0,23,24
 338 84 338 84 291 36 c 128,-1,25
 244 -12 244 -12 170 -12 c 0,26,27
 111 -12 111 -12 60.5 18 c 128,-1,28
 10 48 10 48 10 100 c 0,29,30
 10 121 10 121 21.5 135.5 c 128,-1,31
 33 150 33 150 55 150 c 0,32,33
 81 150 81 150 90.5 136.5 c 128,-1,34
 100 123 100 123 100 90 c 0,35,36
 100 13 100 13 174 13 c 0,37,38
 215 13 215 13 243.5 35 c 128,-1,39
 272 57 272 57 272 95 c 0,40,41
 272 119 272 119 254 143 c 128,-1,42
 236 167 236 167 210 188.5 c 128,-1,43
 184 210 184 210 158.5 233.5 c 128,-1,44
 133 257 133 257 115 290 c 128,-1,45
 97 323 97 323 97 361 c 0,0,1
EndSplineSet
Substitution2: "sous-table 'smcp' Bas-de-casse vers petites capitales dans Latin lookup 0" s.sc
EndChar

StartChar: t
Encoding: 84 116 87
Width: 333
Flags: W
TeX: 623 12
HStem: -12 60<95 180.304> 465 25<70 155 256 354>
VStem: 44 96<48.3688 147.561>
LayerCount: 2
Fore
SplineSet
155 465 m 1,0,-1
 62 465 l 1,1,-1
 70 490 l 1,2,-1
 163 490 l 1,3,-1
 196 585 l 5,4,-1
 292 616 l 1,5,-1
 256 490 l 1,6,-1
 361 490 l 1,7,-1
 354 465 l 1,8,-1
 248 465 l 1,9,-1
 146 103 l 2,10,11
 140 82 140 82 140 70 c 0,12,13
 140 61 140 61 147.5 54.5 c 128,-1,14
 155 48 155 48 165 48 c 0,15,16
 191 48 191 48 225.5 87 c 128,-1,17
 260 126 260 126 290 175 c 1,18,-1
 311 160 l 1,19,20
 296 140 296 140 281 117 c 128,-1,21
 266 94 266 94 246 71 c 128,-1,22
 226 48 226 48 206 29.5 c 128,-1,23
 186 11 186 11 160.5 -0.5 c 128,-1,24
 135 -12 135 -12 109 -12 c 0,25,26
 81 -12 81 -12 62.5 6.5 c 128,-1,27
 44 25 44 25 44 51 c 0,28,29
 44 71.7037037037 44 71.7037037037 74 178 c 2,30,-1
 155 465 l 1,0,-1
EndSplineSet
Substitution2: "sous-table 'smcp' Bas-de-casse vers petites capitales dans Latin lookup 0" t.sc
EndChar

StartChar: u
Encoding: 85 117 88
Width: 611
Flags: W
TeX: 490 12
HStem: -12 48<131.258 225.325> 465 25<75 159.445>
VStem: 58 96<38.3892 176.383> 347 96<32.5 158.38>
LayerCount: 2
Fore
SplineSet
556 490 m 1,0,-1
 452 124 l 2,1,2
 443 92 443 92 443 73 c 0,3,4
 443 62 443 62 450 55 c 128,-1,5
 457 48 457 48 467 48 c 0,6,7
 483 48 483 48 509 76 c 128,-1,8
 535 104 535 104 551.5 128.5 c 128,-1,9
 568 153 568 153 581 175 c 1,10,-1
 600 161 l 1,11,12
 581 127 581 127 565.5 103.5 c 128,-1,13
 550 80 550 80 525 50 c 128,-1,14
 500 20 500 20 470.5 4 c 128,-1,15
 441 -12 441 -12 409 -12 c 0,16,17
 381 -12 381 -12 364 3 c 128,-1,18
 347 18 347 18 347 47 c 0,19,20
 347 82 347 82 368 155 c 1,21,-1
 366 157 l 1,22,23
 259 -12 259 -12 145 -12 c 0,24,25
 105 -12 105 -12 81.5 10.5 c 128,-1,26
 58 33 58 33 58 78 c 0,27,28
 58 101 58 101 72 152 c 2,29,-1
 160 465 l 1,30,-1
 69 465 l 1,31,-1
 75 490 l 1,32,-1
 147 490 l 2,33,34
 204 490 204 490 259 496 c 1,35,-1
 167 155 l 2,36,37
 154 105 154 105 154 81 c 0,38,39
 154 36 154 36 190 36 c 0,40,41
 246 36 246 36 317.5 129.5 c 128,-1,42
 389 223 389 223 430 368 c 2,43,-1
 465 490 l 1,44,-1
 556 490 l 1,0,-1
EndSplineSet
Substitution2: "sous-table 'smcp' Bas-de-casse vers petites capitales dans Latin lookup 0" u.sc
EndChar

StartChar: v
Encoding: 86 118 89
Width: 556
Flags: W
TeX: 490 6
HStem: -12 36<186.249 282.708> 448 54<121.376 206.5>
VStem: 84 90<35.3817 179.675> 168 96<332.89 447.603> 479 42<264.958 410.5>
LayerCount: 2
Fore
SplineSet
31 311 m 1,0,-1
 9 319 l 1,1,2
 28 358 28 358 40.5 379.5 c 128,-1,3
 53 401 53 401 77 435 c 128,-1,4
 101 469 101 469 129.5 485.5 c 128,-1,5
 158 502 158 502 190 502 c 0,6,7
 223 502 223 502 243.5 482 c 128,-1,8
 264 462 264 462 264 432 c 0,9,10
 264 394 264 394 236 306 c 2,11,-1
 193 171 l 2,12,13
 174 110 174 110 174 82 c 128,-1,14
 174 54 174 54 187 39 c 128,-1,15
 200 24 200 24 222 24 c 0,16,17
 311 24 311 24 395 123 c 128,-1,18
 479 222 479 222 479 322 c 0,19,20
 479 354 479 354 465 373 c 128,-1,21
 451 392 451 392 434.5 398 c 128,-1,22
 418 404 418 404 404 418.5 c 128,-1,23
 390 433 390 433 390 457 c 0,24,25
 390 480 390 480 405.5 491 c 128,-1,26
 421 502 421 502 443 502 c 0,27,28
 485 502 485 502 503 468 c 128,-1,29
 521 434 521 434 521 387 c 0,30,31
 521 320 521 320 495 248.5 c 128,-1,32
 469 177 469 177 426 119.5 c 128,-1,33
 383 62 383 62 321.5 25 c 128,-1,34
 260 -12 260 -12 196 -12 c 0,35,36
 145 -12 145 -12 114.5 17.5 c 128,-1,37
 84 47 84 47 84 95 c 0,38,39
 84 124 84 124 103 190 c 2,40,-1
 153 354 l 2,41,42
 168 399 168 399 168 422 c 0,43,44
 168 448 168 448 145 448 c 0,45,46
 132 448 132 448 117 437 c 128,-1,47
 102 426 102 426 90 409.5 c 128,-1,48
 78 393 78 393 65.5 374 c 128,-1,49
 53 355 53 355 45 338.5 c 128,-1,50
 37 322 37 322 31 311 c 1,0,-1
EndSplineSet
Substitution2: "sous-table 'smcp' Bas-de-casse vers petites capitales dans Latin lookup 0" v.sc
EndChar

StartChar: w
Encoding: 87 119 90
Width: 852
Flags: W
TeX: 490 8
HStem: -12 48<127.5 228.437> -12 36<467.457 560.469> 389.5 112.5<701.502 752.454> 465 25<83 166.339>
VStem: 62 90<44.3755 165.208> 360 90<39.4653 165.585> 765 42<271.273 423>
LayerCount: 2
Fore
SplineSet
468 490 m 1,0,-1
 563 490 l 1,1,-1
 463 157 l 2,2,3
 450 114 450 114 450 86 c 128,-1,4
 450 58 450 58 467 41 c 128,-1,5
 484 24 484 24 510 24 c 0,6,7
 589 24 589 24 677 128.5 c 128,-1,8
 765 233 765 233 765 323 c 0,9,10
 765 352 765 352 752.5 368.5 c 128,-1,11
 740 385 740 385 725 389.5 c 128,-1,12
 710 394 710 394 697.5 408 c 128,-1,13
 685 422 685 422 685 447 c 0,14,15
 685 470 685 470 701 486 c 128,-1,16
 717 502 717 502 741 502 c 0,17,18
 768 502 768 502 787.5 474.5 c 128,-1,19
 807 447 807 447 807 399 c 0,20,21
 807 307 807 307 764 212.5 c 128,-1,22
 721 118 721 118 641 53 c 128,-1,23
 561 -12 561 -12 469 -12 c 0,24,25
 417 -12 417 -12 388.5 15.5 c 128,-1,26
 360 43 360 43 360 87 c 0,27,28
 360 122 360 122 371 149 c 1,29,-1
 369 151 l 1,30,31
 336 92 336 92 273 40 c 128,-1,32
 210 -12 210 -12 148 -12 c 0,33,34
 107 -12 107 -12 84.5 12.5 c 128,-1,35
 62 37 62 37 62 75 c 0,36,37
 62 100 62 100 83 172 c 2,38,-1
 168 465 l 1,39,-1
 76 465 l 1,40,-1
 83 490 l 1,41,-1
 161 490 l 2,42,43
 218 490 218 490 273 496 c 1,44,-1
 167 143 l 2,45,46
 152 92 152 92 152 76 c 128,-1,47
 152 60 152 60 162.5 48 c 128,-1,48
 173 36 173 36 195 36 c 0,49,50
 255 36 255 36 318.5 120 c 128,-1,51
 382 204 382 204 413 307 c 2,52,-1
 468 490 l 1,0,-1
EndSplineSet
Substitution2: "sous-table 'smcp' Bas-de-casse vers petites capitales dans Latin lookup 0" w.sc
EndChar

StartChar: x
Encoding: 88 120 91
Width: 611
Flags: W
TeX: 490 0
HStem: -12 42<278.5 415.389> -12 31<75.7982 134.98> 466 36<202.396 282.978> 477 25<480.548 533.474>
VStem: -11 86<19.0425 103.318> 221 96<47.532 98> 295 96<395 457.656> 539 78<381.486 471.616>
LayerCount: 2
Fore
SplineSet
537 166 m 1,0,-1
 559 154 l 1,1,2
 525 87 525 87 461.5 37.5 c 128,-1,3
 398 -12 398 -12 330 -12 c 0,4,5
 227 -12 227 -12 221 98 c 1,6,-1
 219 98 l 1,7,8
 198 54 198 54 160 21 c 128,-1,9
 122 -12 122 -12 80 -12 c 0,10,11
 37 -12 37 -12 13 9.5 c 128,-1,12
 -11 31 -11 31 -11 72 c 0,13,14
 -11 100 -11 100 3 117.5 c 128,-1,15
 17 135 17 135 42 135 c 0,16,17
 63 135 63 135 74 122 c 128,-1,18
 85 109 85 109 85 90 c 0,19,20
 85 80 85 80 80 62 c 128,-1,21
 75 44 75 44 75 40 c 0,22,23
 75 19 75 19 99 19 c 0,24,25
 143 19 143 19 190.5 93 c 128,-1,26
 238 167 238 167 266.5 257 c 128,-1,27
 295 347 295 347 295 402 c 0,28,29
 295 466 295 466 244 466 c 0,30,31
 222 466 222 466 199.5 454 c 128,-1,32
 177 442 177 442 150.5 413.5 c 128,-1,33
 124 385 124 385 115.5 375 c 128,-1,34
 107 365 107 365 82 333 c 1,35,-1
 65 351 l 1,36,37
 91 385 91 385 109 406 c 128,-1,38
 127 427 127 427 155 452 c 128,-1,39
 183 477 183 477 214 489.5 c 128,-1,40
 245 502 245 502 280 502 c 0,41,42
 327 502 327 502 358.5 472.5 c 128,-1,43
 390 443 390 443 391 395 c 1,44,-1
 393 395 l 1,45,46
 455 502 455 502 527 502 c 0,47,48
 565 502 565 502 591 478.5 c 128,-1,49
 617 455 617 455 617 417 c 0,50,51
 617 389 617 389 602 370 c 128,-1,52
 587 351 587 351 562 351 c 0,53,54
 543 351 543 351 532 362.5 c 128,-1,55
 521 374 521 374 521 392 c 0,56,57
 521 404 521 404 530 422.5 c 128,-1,58
 539 441 539 441 539 451 c 0,59,60
 539 462 539 462 532 469.5 c 128,-1,61
 525 477 525 477 513 477 c 0,62,63
 468 477 468 477 420 394.5 c 128,-1,64
 372 312 372 312 344.5 220.5 c 128,-1,65
 317 129 317 129 317 84 c 0,66,67
 317 64 317 64 330 47 c 128,-1,68
 343 30 343 30 369 30 c 0,69,70
 416 30 416 30 461 71.5 c 128,-1,71
 506 113 506 113 537 166 c 1,0,-1
EndSplineSet
Substitution2: "sous-table 'smcp' Bas-de-casse vers petites capitales dans Latin lookup 0" x.sc
EndChar

StartChar: y
Encoding: 89 121 92
Width: 519
Flags: W
TeX: 490 220
HStem: -198 31<-5.5 80.3527> 392 110<443.655 538.013> 442 60<107.423 175>
VStem: -74 94<-161.723 -80.9393>
LayerCount: 2
Fore
SplineSet
30 286 m 1,0,-1
 9 291 l 1,1,2
 68 502 68 502 165 502 c 0,3,4
 185 502 185 502 200 495 c 128,-1,5
 215 488 215 488 225 471 c 128,-1,6
 235 454 235 454 241 442.5 c 128,-1,7
 247 431 247 431 251.5 403 c 128,-1,8
 256 375 256 375 257 366.5 c 128,-1,9
 258 358 258 358 261 328 c 2,10,-1
 279 159 l 1,11,-1
 281 159 l 1,12,-1
 373 356 l 2,13,14
 386 386 386 386 399.5 413 c 128,-1,15
 413 440 413 440 426 459.5 c 128,-1,16
 439 479 439 479 457 490.5 c 128,-1,17
 475 502 475 502 497 502 c 0,18,19
 523 502 523 502 538.5 488 c 128,-1,20
 554 474 554 474 554 449 c 0,21,22
 554 392 554 392 492 392 c 0,23,24
 486 392 486 392 473.5 393 c 128,-1,25
 461 394 461 394 455 394 c 0,26,27
 435 394 435 394 420.5 381.5 c 128,-1,28
 406 369 406 369 398.5 352 c 128,-1,29
 391 335 391 335 382 318 c 2,30,-1
 237 9 l 2,31,32
 140 -198 140 -198 15 -198 c 0,33,34
 -26 -198 -26 -198 -50 -174.5 c 128,-1,35
 -74 -151 -74 -151 -74 -114 c 0,36,37
 -74 -86 -74 -86 -58.5 -68 c 128,-1,38
 -43 -50 -43 -50 -12 -50 c 0,39,40
 6 -50 6 -50 17.5 -62 c 128,-1,41
 29 -74 29 -74 29 -93 c 0,42,43
 29 -103 29 -103 24.5 -117.5 c 128,-1,44
 20 -132 20 -132 20 -138 c 0,45,46
 20 -150 20 -150 28.5 -158.5 c 128,-1,47
 37 -167 37 -167 51 -167 c 0,48,49
 95 -167 95 -167 152 -84 c 0,50,51
 178 -46 178 -46 189.5 -16 c 128,-1,52
 201 14 201 14 201 56 c 0,53,54
 201 101 201 101 192 155 c 2,55,-1
 163 356 l 2,56,57
 157 402 157 402 148 422 c 128,-1,58
 139 442 139 442 120 442 c 128,-1,59
 101 442 101 442 80.5 409 c 128,-1,60
 60 376 60 376 49 341.5 c 128,-1,61
 38 307 38 307 30 286 c 1,0,-1
EndSplineSet
Substitution2: "sous-table 'smcp' Bas-de-casse vers petites capitales dans Latin lookup 0" y.sc
EndChar

StartChar: z
Encoding: 90 122 93
Width: 500
Flags: W
TeX: 490 0
HStem: -12 31<333 421.363> 406 84<144 391>
VStem: 425 61<35.6001 128.432>
LayerCount: 2
Fore
SplineSet
57 316 m 1,0,-1
 144 490 l 1,1,-1
 520 490 l 1,2,-1
 149 149 l 1,3,4
 193 145 193 145 235 124 c 128,-1,5
 277 103 277 103 297.5 86 c 128,-1,6
 318 69 318 69 357 34 c 0,7,8
 373 19 373 19 392 19 c 0,9,10
 405 19 405 19 415 26 c 128,-1,11
 425 33 425 33 425 44 c 128,-1,12
 425 55 425 55 410.5 74 c 128,-1,13
 396 93 396 93 396 112 c 128,-1,14
 396 131 396 131 407.5 145.5 c 128,-1,15
 419 160 419 160 439 160 c 0,16,17
 486 160 486 160 486 103 c 0,18,19
 486 69 486 69 470.5 44.5 c 128,-1,20
 455 20 455 20 432 8.5 c 128,-1,21
 409 -3 409 -3 390 -7.5 c 128,-1,22
 371 -12 371 -12 356 -12 c 0,23,24
 310 -12 310 -12 255.5 8.5 c 128,-1,25
 201 29 201 29 157 50 c 128,-1,26
 113 71 113 71 91 71 c 0,27,28
 73 71 73 71 55.5 61 c 128,-1,29
 38 51 38 51 3 19 c 1,30,-1
 -12 37 l 1,31,-1
 391 406 l 1,32,-1
 130 406 l 1,33,-1
 80 310 l 1,34,-1
 57 316 l 1,0,-1
EndSplineSet
Substitution2: "sous-table 'smcp' Bas-de-casse vers petites capitales dans Latin lookup 0" z.sc
EndChar

StartChar: braceleft
Encoding: 91 123 94
Width: 333
Flags: W
TeX: 715 249
HStem: -166 25<137.378 166> 690 25<360.561 407>
VStem: 35 90<-134.392 -3.1875> 107 90<113.656 256.239>
LayerCount: 2
Fore
SplineSet
414 715 m 1,0,-1
 407 690 l 1,1,2
 368 690 368 690 346 665.5 c 128,-1,3
 324 641 324 641 305 572 c 2,4,-1
 260 412 l 2,5,6
 243 351 243 351 218 320 c 128,-1,7
 193 289 193 289 140 275 c 1,8,-1
 140 273 l 1,9,10
 197 257 197 257 197 211 c 0,11,12
 197 193 197 193 188 160 c 2,13,-1
 138 -27 l 2,14,15
 125 -72 125 -72 125 -102 c 0,16,17
 125 -124 125 -124 137 -132.5 c 128,-1,18
 149 -141 149 -141 173 -141 c 1,19,-1
 166 -166 l 1,20,-1
 132 -166 l 2,21,22
 35 -166 35 -166 35 -109 c 0,23,24
 35 -89 35 -89 51 -25 c 2,25,-1
 97 153 l 2,26,27
 107 193 107 193 107 224 c 0,28,29
 107 258 107 258 67 274 c 1,30,31
 108 289 108 289 128.5 316 c 128,-1,32
 149 343 149 343 165 397 c 2,33,-1
 213 566 l 2,34,35
 238 656 238 656 283.5 685.5 c 128,-1,36
 329 715 329 715 414 715 c 1,0,-1
EndSplineSet
EndChar

StartChar: bar
Encoding: 92 124 95
Width: 222
Flags: W
TeX: 786 214
VStem: 108 66<-214 786>
LayerCount: 2
Fore
SplineSet
108 -214 m 1,0,-1
 108 786 l 1,1,-1
 174 786 l 1,2,-1
 174 -214 l 1,3,-1
 108 -214 l 1,0,-1
EndSplineSet
EndChar

StartChar: braceright
Encoding: 93 125 96
Width: 333
Flags: W
TeX: 715 249
HStem: -166 25<-60 -13.5608> 690 25<181 209.622>
VStem: 150 90<292.761 435.344> 222 90<552.188 683.392>
LayerCount: 2
Fore
SplineSet
-67 -166 m 1,0,-1
 -60 -141 l 1,1,2
 -21 -141 -21 -141 1 -116.5 c 128,-1,3
 23 -92 23 -92 42 -23 c 2,4,-1
 87 137 l 2,5,6
 104 198 104 198 129 229 c 128,-1,7
 154 260 154 260 207 274 c 1,8,-1
 207 276 l 1,9,10
 150 292 150 292 150 338 c 0,11,12
 150 356 150 356 159 389 c 2,13,-1
 209 576 l 2,14,15
 222 622 222 622 222 651 c 0,16,17
 222 673 222 673 210 681.5 c 128,-1,18
 198 690 198 690 174 690 c 1,19,-1
 181 715 l 1,20,-1
 215 715 l 2,21,22
 312 715 312 715 312 658 c 0,23,24
 312 638 312 638 296 574 c 2,25,-1
 250 396 l 2,26,27
 240 356 240 356 240 325 c 0,28,29
 240 291 240 291 280 275 c 1,30,31
 239 260 239 260 218.5 233 c 128,-1,32
 198 206 198 206 182 152 c 2,33,-1
 134 -17 l 2,34,35
 109 -107 109 -107 63.5 -136.5 c 128,-1,36
 18 -166 18 -166 -67 -166 c 1,0,-1
EndSplineSet
EndChar

StartChar: asciitilde
Encoding: 94 126 97
Width: 600
Flags: W
TeX: 320 -182
HStem: 185 66<334.694 456.697> 251 66<136.834 280.69>
LayerCount: 2
Fore
SplineSet
495 320 m 1,0,-1
 531 271 l 1,1,2
 511 244 511 244 498 229 c 128,-1,3
 485 214 485 214 460 199.5 c 128,-1,4
 435 185 435 185 406 185 c 0,5,6
 364 185 364 185 304 218 c 0,7,8
 245 251 245 251 189 251 c 0,9,10
 137 251 137 251 105 182 c 1,11,-1
 69 231 l 1,12,13
 114 317 114 317 194 317 c 0,14,15
 233 317 233 317 305 285 c 0,16,17
 384 251 384 251 407 251 c 0,18,19
 426 251 426 251 443 262.5 c 128,-1,20
 460 274 460 274 470 286 c 128,-1,21
 480 298 480 298 495 320 c 1,0,-1
EndSplineSet
EndChar

StartChar: exclamdown
Encoding: 95 161 98
Width: 296
Flags: W
TeX: 508 220
HStem: 376 126<158.08 245.92>
VStem: -32 126<-127.375 -30.7089> 139 126<395.08 482.92>
LayerCount: 2
Fore
SplineSet
150 322 m 1,0,-1
 173 322 l 1,1,-1
 94 -65 l 2,2,3
 76 -160 76 -160 21 -160 c 0,4,5
 -32 -160 -32 -160 -32 -102 c 0,6,7
 -32 -72 -32 -72 5 8 c 2,8,-1
 150 322 l 1,0,-1
265 439 m 128,-1,10
 265 413 265 413 246.5 394.5 c 128,-1,11
 228 376 228 376 202 376 c 128,-1,12
 176 376 176 376 157.5 394.5 c 128,-1,13
 139 413 139 413 139 439 c 128,-1,14
 139 465 139 465 157.5 483.5 c 128,-1,15
 176 502 176 502 202 502 c 128,-1,16
 228 502 228 502 246.5 483.5 c 128,-1,9
 265 465 265 465 265 439 c 128,-1,10
EndSplineSet
EndChar

StartChar: cent
Encoding: 96 162 99
Width: 556
Flags: W
TeX: 607 117
HStem: -12 31<251 316.591> 476 25<387 401.07>
VStem: 64 102<71.0229 242.051> 410 90<342.682 445.913>
LayerCount: 2
Fore
SplineSet
214 28 m 1,0,-1
 341 477 l 1,1,2
 271 458 271 458 218.5 328.5 c 128,-1,3
 166 199 166 199 166 123 c 0,4,5
 166 48 166 48 214 28 c 1,0,-1
181 -90 m 1,6,-1
 204 -9 l 1,7,8
 140 1 140 1 102 46.5 c 128,-1,9
 64 92 64 92 64 164 c 128,-1,10
 64 236 64 236 102.5 312.5 c 128,-1,11
 141 389 141 389 208 443 c 128,-1,12
 275 497 275 497 348 502 c 1,13,-1
 367 568 l 1,14,-1
 406 568 l 1,15,-1
 387 501 l 1,16,17
 433 494 433 494 466.5 460 c 128,-1,18
 500 426 500 426 500 379 c 0,19,20
 500 314 500 314 445 314 c 0,21,22
 421 314 421 314 409.5 327.5 c 128,-1,23
 398 341 398 341 398 362 c 0,24,25
 398 369 398 369 404 395.5 c 128,-1,26
 410 422 410 422 410 435 c 0,27,28
 410 470 410 470 379 476 c 1,29,-1
 251 19 l 1,30,31
 368 19 368 19 441 160 c 1,32,-1
 462 148 l 1,33,34
 429 80 429 80 371 34.5 c 128,-1,35
 313 -11 313 -11 242 -12 c 1,36,-1
 220 -90 l 1,37,-1
 181 -90 l 1,6,-1
EndSplineSet
EndChar

StartChar: sterling
Encoding: 97 163 100
Width: 556
Flags: W
TeX: 706 28
HStem: -12 126<-32.9191 69.7656> -12 84<257.712 430.739> 353 31<34 169 289 482> 675 31<389.213 497.199>
VStem: 169 118<266.738 353 384 464.913> 515 108<543.94 646.143> 525 27<192.815 229>
LayerCount: 2
Fore
SplineSet
25 353 m 1,0,-1
 34 384 l 1,1,-1
 172 384 l 1,2,3
 180 432 180 432 194.5 476 c 128,-1,4
 209 520 209 520 233 563 c 128,-1,5
 257 606 257 606 288 637 c 128,-1,6
 319 668 319 668 363.5 687 c 128,-1,7
 408 706 408 706 460 706 c 0,8,9
 521 706 521 706 572 672.5 c 128,-1,10
 623 639 623 639 623 580 c 0,11,12
 623 549 623 549 607 530 c 128,-1,13
 591 511 591 511 562 511 c 0,14,15
 535 511 535 511 520.5 524.5 c 128,-1,16
 506 538 506 538 506 557 c 0,17,18
 506 566 506 566 510.5 585.5 c 128,-1,19
 515 605 515 605 515 616 c 0,20,21
 515 675 515 675 444 675 c 0,22,23
 418 675 418 675 396.5 664 c 128,-1,24
 375 653 375 653 360 631 c 128,-1,25
 345 609 345 609 334 586.5 c 128,-1,26
 323 564 323 564 315.5 532 c 128,-1,27
 308 500 308 500 304 478 c 128,-1,28
 300 456 300 456 295.5 425 c 128,-1,29
 291 394 291 394 289 384 c 1,30,-1
 491 384 l 1,31,-1
 482 353 l 1,32,-1
 287 353 l 1,33,34
 255 180 255 180 168 87 c 1,35,36
 243 72 243 72 324 72 c 0,37,38
 402 72 402 72 451.5 105 c 128,-1,39
 501 138 501 138 525 229 c 1,40,-1
 552 229 l 1,41,42
 497 -12 497 -12 358 -12 c 0,43,44
 291 -12 291 -12 137 58 c 1,45,46
 82 15 82 15 56.5 1.5 c 128,-1,47
 31 -12 31 -12 7 -12 c 0,48,49
 -22 -12 -22 -12 -37 6 c 128,-1,50
 -52 24 -52 24 -52 48 c 0,51,52
 -52 78 -52 78 -33.5 96 c 128,-1,53
 -15 114 -15 114 15 114 c 0,54,55
 41 114 41 114 124 94 c 1,56,57
 141 129 141 129 148.5 167.5 c 128,-1,58
 156 206 156 206 161 268.5 c 128,-1,59
 166 331 166 331 169 353 c 1,60,-1
 25 353 l 1,0,-1
EndSplineSet
EndChar

StartChar: fraction
Encoding: 224 8260 101
Width: 167
Flags: W
TeX: 715 21
HStem: 695 20G<269.908 330>
LayerCount: 2
Fore
SplineSet
-163 -21 m 1,0,-1
 282 715 l 1,1,-1
 330 715 l 1,2,-1
 -115 -21 l 1,3,-1
 -163 -21 l 1,0,-1
EndSplineSet
EndChar

StartChar: yen
Encoding: 99 165 102
Width: 556
Flags: W
TeX: 694 0
HStem: 0 25<50 161 261 372> 177 31<66 206 313 460> 301 31<99 242 349 490> 669 25<76 156 266 367 539 624 662 717>
LayerCount: 2
Fore
SplineSet
161 25 m 1,0,-1
 206 177 l 1,1,-1
 56 177 l 1,2,-1
 66 208 l 1,3,-1
 215 208 l 1,4,-1
 242 301 l 1,5,-1
 89 301 l 1,6,-1
 99 332 l 1,7,-1
 251 332 l 1,8,-1
 263 372 l 1,9,-1
 156 669 l 1,10,-1
 72 669 l 1,11,-1
 76 694 l 1,12,-1
 373 694 l 1,13,-1
 367 669 l 1,14,-1
 266 669 l 1,15,-1
 363 386 l 1,16,-1
 624 669 l 1,17,-1
 533 669 l 1,18,-1
 539 694 l 1,19,-1
 723 694 l 1,20,-1
 717 669 l 1,21,-1
 662 669 l 1,22,-1
 353 340 l 1,23,-1
 349 332 l 1,24,-1
 500 332 l 1,25,-1
 490 301 l 1,26,-1
 341 301 l 1,27,-1
 313 208 l 1,28,-1
 470 208 l 1,29,-1
 460 177 l 1,30,-1
 305 177 l 1,31,-1
 261 25 l 1,32,-1
 377 25 l 1,33,-1
 372 0 l 1,34,-1
 44 0 l 1,35,-1
 50 25 l 1,36,-1
 161 25 l 1,0,-1
EndSplineSet
EndChar

StartChar: florin
Encoding: 200 402 103
Width: 556
Flags: W
TeX: 706 193
HStem: -208 25<-18.3344 50.4689> 349 31<146 236 344 448> 681 25<455.938 519.542>
VStem: -94 74<-180.878 -90.189> 521 75<589.548 673.717>
LayerCount: 2
Fore
SplineSet
448 349 m 1,0,-1
 334 349 l 1,1,-1
 292 210 l 2,2,3
 275 152 275 152 262.5 114.5 c 128,-1,4
 250 77 250 77 229.5 22 c 128,-1,5
 209 -33 209 -33 188 -68.5 c 128,-1,6
 167 -104 167 -104 139.5 -139 c 128,-1,7
 112 -174 112 -174 79 -191 c 128,-1,8
 46 -208 46 -208 8 -208 c 0,9,10
 -34 -208 -34 -208 -64 -187.5 c 128,-1,11
 -94 -167 -94 -167 -94 -126 c 0,12,13
 -94 -65 -94 -65 -42 -65 c 0,14,15
 -24 -65 -24 -65 -11 -76 c 128,-1,16
 2 -87 2 -87 2 -107 c 0,17,18
 2 -123 2 -123 -9 -138.5 c 128,-1,19
 -20 -154 -20 -154 -20 -165 c 0,20,21
 -20 -172 -20 -172 -11 -177.5 c 128,-1,22
 -2 -183 -2 -183 13 -183 c 0,23,24
 39 -183 39 -183 55.5 -166.5 c 128,-1,25
 72 -150 72 -150 103.5 -71.5 c 128,-1,26
 135 7 135 7 183 170 c 2,27,-1
 236 349 l 1,28,-1
 137 349 l 1,29,-1
 146 380 l 1,30,-1
 245 380 l 1,31,-1
 259 427 l 2,32,33
 273 475 273 475 291.5 517 c 128,-1,34
 310 559 310 559 339 605 c 128,-1,35
 368 651 368 651 409 678.5 c 128,-1,36
 450 706 450 706 497 706 c 0,37,38
 536 706 536 706 566 681.5 c 128,-1,39
 596 657 596 657 596 618 c 0,40,41
 596 593 596 593 583 576 c 128,-1,42
 570 559 570 559 546 559 c 0,43,44
 526 559 526 559 513 570 c 128,-1,45
 500 581 500 581 500 602 c 0,46,47
 500 620 500 620 510.5 636 c 128,-1,48
 521 652 521 652 521 662 c 0,49,50
 521 681 521 681 490 681 c 0,51,52
 452 681 452 681 427 630 c 128,-1,53
 402 579 402 579 368 462 c 2,54,-1
 344 380 l 1,55,-1
 456 380 l 1,56,-1
 448 349 l 1,0,-1
EndSplineSet
EndChar

StartChar: section
Encoding: 101 167 104
Width: 556
Flags: W
TeX: 727 220
HStem: -220 25<96.5749 220.685> 702 25<292.14 408.547>
VStem: -31 78<-134.568 -41.5> 91 42<359.528 527.434> 185 36<518.693 632.031> 311 42<-110.311 35> 397 42<-10.4346 166.399> 446 86<568.5 653.489>
LayerCount: 2
Fore
SplineSet
31 17 m 0,0,1
 89 17 89 17 89 -41 c 0,2,3
 89 -63 89 -63 68 -83 c 128,-1,4
 47 -103 47 -103 47 -122 c 0,5,6
 47 -158 47 -158 83 -176.5 c 128,-1,7
 119 -195 119 -195 161 -195 c 0,8,9
 218 -195 218 -195 264.5 -157 c 128,-1,10
 311 -119 311 -119 311 -65 c 0,11,12
 311 -29 311 -29 288.5 12.5 c 128,-1,13
 266 54 266 54 233.5 95 c 128,-1,14
 201 136 201 136 168.5 181 c 128,-1,15
 136 226 136 226 113.5 286 c 128,-1,16
 91 346 91 346 91 410 c 0,17,18
 91 485 91 485 124 557 c 128,-1,19
 157 629 157 629 220 678 c 128,-1,20
 283 727 283 727 359 727 c 0,21,22
 424 727 424 727 478 686.5 c 128,-1,23
 532 646 532 646 532 583 c 0,24,25
 532 554 532 554 513.5 536 c 128,-1,26
 495 518 495 518 466 518 c 0,27,28
 444 518 444 518 428 531.5 c 128,-1,29
 412 545 412 545 412 566 c 0,30,31
 412 591 412 591 429 611.5 c 128,-1,32
 446 632 446 632 446 645 c 0,33,34
 446 665 446 665 427.5 678.5 c 128,-1,35
 409 692 409 692 388 697 c 128,-1,36
 367 702 367 702 349 702 c 0,37,38
 298 702 298 702 259.5 669 c 128,-1,39
 221 636 221 636 221 585 c 0,40,41
 221 552 221 552 243.5 509 c 128,-1,42
 266 466 266 466 298 421.5 c 128,-1,43
 330 377 330 377 362 329.5 c 128,-1,44
 394 282 394 282 416.5 225.5 c 128,-1,45
 439 169 439 169 439 116 c 0,46,47
 439 -19 439 -19 356.5 -119.5 c 128,-1,48
 274 -220 274 -220 156 -220 c 0,49,50
 74 -220 74 -220 21.5 -171.5 c 128,-1,51
 -31 -123 -31 -123 -31 -56 c 0,52,53
 -31 -27 -31 -27 -13.5 -5 c 128,-1,54
 4 17 4 17 31 17 c 0,0,1
133 448 m 0,55,56
 133 395 133 395 167.5 331 c 128,-1,57
 202 267 202 267 243 218 c 128,-1,58
 284 169 284 169 318.5 112 c 128,-1,59
 353 55 353 55 353 15 c 0,60,61
 353 -37 353 -37 338 -92 c 1,62,-1
 340 -94 l 1,63,64
 397 -17 397 -17 397 66 c 0,65,66
 397 119 397 119 375 169.5 c 128,-1,67
 353 220 353 220 322 261.5 c 128,-1,68
 291 303 291 303 260 344 c 128,-1,69
 229 385 229 385 207 434.5 c 128,-1,70
 185 484 185 484 185 535 c 0,71,72
 185 577 185 577 199 620 c 1,73,-1
 197 622 l 1,74,75
 170 589 170 589 151.5 539.5 c 128,-1,76
 133 490 133 490 133 448 c 0,55,56
EndSplineSet
EndChar

StartChar: currency
Encoding: 98 164 105
Width: 556
Flags: W
TeX: 598 -96
HStem: 100 60<213.273 382.727> 534 60<213.273 382.727>
VStem: 50 66<257.362 436.638> 480 66<257.362 436.638>
LayerCount: 2
Fore
SplineSet
91 96 m 1,0,-1
 47 140 l 1,1,-1
 104 197 l 1,2,3
 50 252 50 252 50 347 c 128,-1,4
 50 442 50 442 104 497 c 1,5,-1
 47 554 l 1,6,-1
 91 598 l 1,7,-1
 147 542 l 1,8,9
 210 594 210 594 298 594 c 128,-1,10
 386 594 386 594 449 542 c 1,11,-1
 505 598 l 1,12,-1
 549 554 l 1,13,-1
 492 497 l 1,14,15
 546 442 546 442 546 347 c 128,-1,16
 546 252 546 252 492 197 c 1,17,-1
 549 140 l 1,18,-1
 505 96 l 1,19,-1
 449 152 l 1,20,21
 386 100 386 100 298 100 c 128,-1,22
 210 100 210 100 147 152 c 1,23,-1
 91 96 l 1,0,-1
116 347 m 128,-1,25
 116 270 116 270 169.5 215 c 128,-1,26
 223 160 223 160 298 160 c 128,-1,27
 373 160 373 160 426.5 215 c 128,-1,28
 480 270 480 270 480 347 c 128,-1,29
 480 424 480 424 426.5 479 c 128,-1,30
 373 534 373 534 298 534 c 128,-1,31
 223 534 223 534 169.5 479 c 128,-1,24
 116 424 116 424 116 347 c 128,-1,25
EndSplineSet
EndChar

StartChar: quotesingle
Encoding: 7 39 106
Width: 259
Flags: W
TeX: 727 -403
HStem: 439 288<172.269 213.731>
VStem: 148 90<470.015 720.848>
LayerCount: 2
Fore
SplineSet
170 470 m 2,0,-1
 153 620 l 2,1,2
 148 658 148 658 148 664 c 0,3,4
 148 727 148 727 193 727 c 128,-1,5
 238 727 238 727 238 664 c 0,6,7
 238 658 238 658 233 620 c 2,8,-1
 216 470 l 2,9,10
 213 439 213 439 193 439 c 128,-1,11
 173 439 173 439 170 470 c 2,0,-1
EndSplineSet
EndChar

StartChar: quotedblleft
Encoding: 214 8220 107
Width: 444
Flags: W
TeX: 727 -403
HStem: 439 126<175.439 248.889 360.439 433.889> 707 20G<259.5 300.926 444.5 485.926>
VStem: 121 54<555 608.125> 306 54<555 608.125>
LayerCount: 2
Fore
SplineSet
480 727 m 1,0,-1
 488 700 l 1,1,2
 435 677 435 677 397.5 640 c 128,-1,3
 360 603 360 603 360 555 c 1,4,5
 374 565 374 565 393 565 c 0,6,7
 422 565 422 565 438 548.5 c 128,-1,8
 454 532 454 532 454 505 c 128,-1,9
 454 478 454 478 434.5 458.5 c 128,-1,10
 415 439 415 439 388 439 c 0,11,12
 349 439 349 439 327.5 465.5 c 128,-1,13
 306 492 306 492 306 531 c 0,14,15
 306 596 306 596 357.5 646 c 128,-1,16
 409 696 409 696 480 727 c 1,0,-1
295 727 m 1,17,-1
 303 700 l 1,18,19
 250 677 250 677 212.5 640 c 128,-1,20
 175 603 175 603 175 555 c 1,21,22
 189 565 189 565 208 565 c 0,23,24
 237 565 237 565 253 548.5 c 128,-1,25
 269 532 269 532 269 505 c 128,-1,26
 269 478 269 478 249.5 458.5 c 128,-1,27
 230 439 230 439 203 439 c 0,28,29
 164 439 164 439 142.5 465.5 c 128,-1,30
 121 492 121 492 121 531 c 0,31,32
 121 596 121 596 172.5 646 c 128,-1,33
 224 696 224 696 295 727 c 1,17,-1
EndSplineSet
EndChar

StartChar: guillemotleft
Encoding: 105 171 108
Width: 407
Flags: W
TeX: 408 -64
LayerCount: 2
Fore
SplineSet
328 64 m 1,0,-1
 298 64 l 1,1,2
 250 169 250 169 184 249 c 1,3,4
 286 313 286 313 391 408 c 1,5,-1
 411 388 l 1,6,7
 398 370 398 370 286 234 c 1,8,9
 305 175 305 175 328 64 c 1,0,-1
159 64 m 1,10,-1
 129 64 l 1,11,12
 81 169 81 169 15 249 c 1,13,14
 117 313 117 313 222 408 c 1,15,-1
 242 388 l 1,16,17
 229 370 229 370 117 234 c 1,18,19
 136 175 136 175 159 64 c 1,10,-1
EndSplineSet
EndChar

StartChar: guilsinglleft
Encoding: 222 8249 109
Width: 259
Flags: W
TeX: 408 -64
VStem: 23 227
LayerCount: 2
Fore
SplineSet
167 64 m 1,0,-1
 137 64 l 1,1,2
 89 169 89 169 23 249 c 1,3,4
 125 313 125 313 230 408 c 1,5,-1
 250 388 l 1,6,7
 237 370 237 370 125 234 c 1,8,9
 144 175 144 175 167 64 c 1,0,-1
EndSplineSet
EndChar

StartChar: guilsinglright
Encoding: 223 8250 110
Width: 259
Flags: W
TeX: 408 -64
VStem: 9 227
LayerCount: 2
Fore
SplineSet
92 408 m 1,0,-1
 122 408 l 1,1,2
 170 303 170 303 236 223 c 1,3,4
 134 159 134 159 29 64 c 1,5,-1
 9 84 l 1,6,7
 22 102 22 102 134 238 c 1,8,9
 115 297 115 297 92 408 c 1,0,-1
EndSplineSet
EndChar

StartChar: f_i
Encoding: 227 64257 111
Width: 558
GlyphClass: 3
Flags: W
TeX: 727 0
HStem: -180 31<-105.58 -35.2422> -12 54<366.5 448.168> 465 25<86 173 278 425.75> 707 20G<382.25 442.75>
VStem: -190 83<-148.473 -58.6299> 315 96<42.3129 143.5> 464 72<635.137 695.901>
LayerCount: 2
Fore
SplineSet
173 465 m 5,0,-1
 79 465 l 5,1,-1
 86 490 l 5,2,-1
 181 490 l 5,3,4
 190 526 190 526 207.5 564.5 c 132,-1,5
 225 603 225 603 251 641 c 132,-1,6
 277 679 277 679 314.5 703 c 132,-1,7
 352 727 352 727 412.5 727 c 132,-1,8
 473 727 473 727 504.5 705 c 132,-1,9
 536 683 536 683 536 648 c 4,10,11
 536 619 536 619 522.5 601.5 c 132,-1,12
 509 584 509 584 485 584 c 4,13,14
 466 584 466 584 453 595.5 c 132,-1,15
 440 607 440 607 440 624 c 4,16,17
 440 637 440 637 452 651.5 c 132,-1,18
 464 666 464 666 464 676.5 c 132,-1,19
 464 687 464 687 454 695 c 5,20,21
 321.364338268 727.419752019 321.364338268 727.419752019 278 490 c 5,22,-1
 375 490 l 5,23,-1
 417 490 l 6,24,25
 473 490 473 490 529 496 c 5,26,-1
 420 104 l 6,27,28
 411 72 411 72 411 62 c 4,29,30
 411 42 411 42 433 42 c 4,31,32
 468 42 468 42 551 162 c 5,33,-1
 571 148 l 5,34,35
 556 125 556 125 534 97 c 132,-1,36
 512 69 512 69 490.5 45 c 132,-1,37
 469 21 469 21 439.5 4.5 c 132,-1,38
 410 -12 410 -12 381 -12 c 132,-1,39
 352 -12 352 -12 333.5 5.5 c 132,-1,40
 315 23 315 23 315 48 c 4,41,42
 315 67.7368421053 315 67.7368421053 331 125 c 6,43,-1
 426 465 l 5,44,-1
 370 465 l 5,45,-1
 274 465 l 5,46,47
 263 400 263 400 243 323 c 132,-1,48
 223 246 223 246 188.5 154.5 c 132,-1,49
 154 63 154 63 113 -9.5 c 132,-1,50
 72 -82 72 -82 16 -131 c 132,-1,51
 -40 -180 -40 -180 -100 -180 c 4,52,53
 -142 -180 -142 -180 -166 -155.5 c 132,-1,54
 -190 -131 -190 -131 -190 -96 c 4,55,56
 -190 -34 -190 -34 -138 -34 c 4,57,58
 -119 -34 -119 -34 -106.5 -46 c 132,-1,59
 -94 -58 -94 -58 -94 -75 c 4,60,61
 -94 -83 -94 -83 -100.5 -101 c 132,-1,62
 -107 -119 -107 -119 -107 -126 c 4,63,64
 -107 -149 -107 -149 -78 -149 c 4,65,66
 -10 -149 -10 -149 27 -65.5 c 4,67,68
 61.8859749145 13.7410001629 61.8859749145 13.7410001629 124 266 c 6,69,-1
 173 465 l 5,0,-1
EndSplineSet
LCarets2: 1 0
Ligature2: "'liga' Ligatures standard dans Latin lookup 0" f i
EndChar

StartChar: f_l
Encoding: 228 64258 112
Width: 630
GlyphClass: 3
Flags: W
TeX: 727 0
HStem: -180 31<-105.58 -35.2422> -12 54<410.5 490.736> 465 25<86 173 278 374> 688.078 38.9223<375.273 525.648>
VStem: -190 83<-148.473 -58.6299> 359 96<42.3129 142.763>
LayerCount: 2
Fore
SplineSet
379.971679688 490 m 5,0,-1
 374 465 l 5,1,-1
 274 465 l 5,2,3
 263 400 263 400 243 323 c 132,-1,4
 223 246 223 246 188.5 154.5 c 132,-1,5
 154 63 154 63 113 -9.5 c 132,-1,6
 72 -82 72 -82 16 -131 c 132,-1,7
 -40 -180 -40 -180 -100 -180 c 4,8,9
 -142 -180 -142 -180 -166 -155.5 c 132,-1,10
 -190 -131 -190 -131 -190 -96 c 4,11,12
 -190 -34 -190 -34 -138 -34 c 4,13,14
 -119 -34 -119 -34 -106.5 -46 c 132,-1,15
 -94 -58 -94 -58 -94 -75 c 4,16,17
 -94 -83 -94 -83 -100.5 -101 c 132,-1,18
 -107 -119 -107 -119 -107 -126 c 4,19,20
 -107 -149 -107 -149 -78 -149 c 4,21,22
 -10 -149 -10 -149 27 -65.5 c 4,23,24
 61.8859749145 13.7410001629 61.8859749145 13.7410001629 124 266 c 6,25,-1
 173 465 l 5,26,-1
 79 465 l 5,27,-1
 86 490 l 5,28,-1
 181 490 l 5,29,30
 190 526 190 526 207.5 564.5 c 132,-1,31
 225 603 225 603 251 641 c 132,-1,32
 277 679 277 679 314.5 703 c 132,-1,33
 352 727 352 727 412.5 727 c 132,-1,34
 473 727 473 727 543 705 c 4,35,36
 554.963947041 701.239902359 554.963947041 701.239902359 564.88309367 697.100056069 c 5,37,-1
 636 721 l 5,38,-1
 612.410049657 636.377910687 l 6,39,40
 610.858598108 621.756827553 610.858598108 621.756827553 605.227138922 610.611306481 c 6,41,-1
 464 104 l 6,42,43
 455 72 455 72 455 62 c 4,44,45
 455 42 455 42 477 42 c 4,46,47
 514 42 514 42 586 170 c 5,48,-1
 607 159 l 5,49,50
 520 -12 520 -12 425 -12 c 4,51,52
 396 -12 396 -12 377.5 5.5 c 132,-1,53
 359 23 359 23 359 48 c 4,54,55
 359 67.7848101266 359 67.7848101266 375 125 c 6,56,-1
 526.649005395 667.289164862 l 5,57,58
 521.304938534 676.331504247 521.304938534 676.331504247 506 682 c 4,59,60
 492 687 492 687 454 688 c 4,61,62
 451.339805825 688.077669903 451.339805825 688.077669903 448.71656141 688.077669903 c 4,63,64
 316.242718447 688.077669903 316.242718447 688.077669903 278 490 c 5,65,-1
 379.971679688 490 l 5,0,-1
531.884295139 686.010295907 m 5,66,-1
 533 690 l 5,67,-1
 530.443478261 685.526086957 l 5,68,-1
 531.884295139 686.010295907 l 5,66,-1
EndSplineSet
LCarets2: 1 0
Ligature2: "'liga' Ligatures standard dans Latin lookup 0" f l
EndChar

StartChar: endash
Encoding: 209 8211 113
Width: 500
Flags: W
TeX: 263 -209
HStem: 209 54<0 486>
LayerCount: 2
Fore
SplineSet
-14 209 m 1,0,-1
 0 263 l 1,1,-1
 500 263 l 1,2,-1
 486 209 l 1,3,-1
 -14 209 l 1,0,-1
EndSplineSet
EndChar

StartChar: dagger
Encoding: 217 8224 114
Width: 556
Flags: W
TeX: 727 144
HStem: 394 108<98.4705 228.412 417.041 537.405> 436 25<338 391.139> 707 20G<362 394.5>
VStem: 199 125<251.594 302.727> 316 124<613.977 702.246>
LayerCount: 2
Fore
SplineSet
146 -201 m 1,0,-1
 121 -201 l 1,1,2
 196 63 196 63 199 283 c 1,3,4
 225 302 225 302 260 353 c 128,-1,5
 295 404 295 404 309 436 c 1,6,7
 280 434 280 434 225 414 c 128,-1,8
 170 394 170 394 135 394 c 0,9,10
 113 394 113 394 98 409 c 128,-1,11
 83 424 83 424 83 447 c 0,12,13
 83 469 83 469 98 485.5 c 128,-1,14
 113 502 113 502 135 502 c 0,15,16
 163 502 163 502 225 481.5 c 128,-1,17
 287 461 287 461 316 461 c 1,18,-1
 316 637 l 2,19,20
 316 679 316 679 329.5 703 c 128,-1,21
 343 727 343 727 381 727 c 0,22,23
 408 727 408 727 424 713 c 128,-1,24
 440 699 440 699 440 676 c 0,25,26
 440 650 440 650 396.5 572.5 c 128,-1,27
 353 495 353 495 338 461 c 1,28,29
 365 462 365 462 417 482 c 0,30,31
 471 502 471 502 492 502 c 0,32,33
 520 502 520 502 538.5 488 c 128,-1,34
 557 474 557 474 557 447 c 0,35,36
 557 422 557 422 538 408 c 128,-1,37
 519 394 519 394 494 394 c 0,38,39
 484 394 484 394 419 415 c 0,40,41
 356 436 356 436 331 436 c 1,42,43
 324 386 324 386 324 355 c 0,44,45
 324 301 324 301 333 250 c 1,46,47
 222 67 222 67 146 -201 c 1,0,-1
EndSplineSet
EndChar

StartChar: daggerdbl
Encoding: 218 8225 115
Width: 556
Flags: W
TeX: 727 144
HStem: 24 108<-9.40479 110.959 299.588 429.53> 65 25<136.444 190> 394 108<98.4705 228.412 417.041 537.405> 436 25<338 391.139> 707 20G<362 394.5>
VStem: 88 124<-176.246 -87.9767> 316 124<613.977 702.246>
LayerCount: 2
Fore
SplineSet
212 65 m 1,0,-1
 212 -111 l 2,1,2
 212 -153 212 -153 198.5 -177 c 128,-1,3
 185 -201 185 -201 147 -201 c 0,4,5
 120 -201 120 -201 104 -187 c 128,-1,6
 88 -173 88 -173 88 -150 c 0,7,8
 88 -124 88 -124 131.5 -46.5 c 128,-1,9
 175 31 175 31 190 65 c 1,10,11
 164 64 164 64 111.5 44 c 128,-1,12
 59 24 59 24 36 24 c 0,13,14
 8 24 8 24 -10.5 38 c 128,-1,15
 -29 52 -29 52 -29 79 c 0,16,17
 -29 104 -29 104 -10 118 c 128,-1,18
 9 132 9 132 34 132 c 0,19,20
 44 132 44 132 109 111 c 0,21,22
 172 90 172 90 197 90 c 1,23,24
 204 140 204 140 204 171 c 0,25,26
 204 205 204 205 199 283 c 1,27,28
 225 302 225 302 260 353 c 128,-1,29
 295 404 295 404 309 436 c 1,30,31
 280 434 280 434 225 414 c 128,-1,32
 170 394 170 394 135 394 c 0,33,34
 113 394 113 394 98 409 c 128,-1,35
 83 424 83 424 83 447 c 0,36,37
 83 469 83 469 98 485.5 c 128,-1,38
 113 502 113 502 135 502 c 0,39,40
 163 502 163 502 225 481.5 c 128,-1,41
 287 461 287 461 316 461 c 1,42,-1
 316 637 l 2,43,44
 316 679 316 679 329.5 703 c 128,-1,45
 343 727 343 727 381 727 c 0,46,47
 408 727 408 727 424 713 c 128,-1,48
 440 699 440 699 440 676 c 0,49,50
 440 650 440 650 396.5 572.5 c 128,-1,51
 353 495 353 495 338 461 c 1,52,53
 365 462 365 462 417 482 c 0,54,55
 471 502 471 502 492 502 c 0,56,57
 520 502 520 502 538.5 488 c 128,-1,58
 557 474 557 474 557 447 c 0,59,60
 557 422 557 422 538 408 c 128,-1,61
 519 394 519 394 494 394 c 0,62,63
 484 394 484 394 419 415 c 0,64,65
 356 436 356 436 331 436 c 1,66,67
 324 386 324 386 324 355 c 0,68,69
 324 321 324 321 329 243 c 1,70,71
 303 224 303 224 268 173 c 128,-1,72
 233 122 233 122 219 90 c 1,73,74
 248 92 248 92 303 112 c 128,-1,75
 358 132 358 132 393 132 c 0,76,77
 415 132 415 132 430 117 c 128,-1,78
 445 102 445 102 445 79 c 0,79,80
 445 57 445 57 430 40.5 c 128,-1,81
 415 24 415 24 393 24 c 0,82,83
 365 24 365 24 303 44.5 c 128,-1,84
 241 65 241 65 212 65 c 1,0,-1
EndSplineSet
EndChar

StartChar: periodcentered
Encoding: 117 183 116
Width: 278
Flags: W
TeX: 368 -248
HStem: 234 126<103.08 190.92>
VStem: 84 126<253.08 340.92>
LayerCount: 2
Fore
SplineSet
84 297 m 128,-1,1
 84 323 84 323 102.5 341.5 c 128,-1,2
 121 360 121 360 147 360 c 128,-1,3
 173 360 173 360 191.5 341.5 c 128,-1,4
 210 323 210 323 210 297 c 128,-1,5
 210 271 210 271 191.5 252.5 c 128,-1,6
 173 234 173 234 147 234 c 128,-1,7
 121 234 121 234 102.5 252.5 c 128,-1,0
 84 271 84 271 84 297 c 128,-1,1
EndSplineSet
EndChar

StartChar: paragraph
Encoding: 116 182 117
Width: 574
Flags: W
TeX: 712 184
HStem: -184 14<9.59131 63.7499> 698 14<435 527 597 675>
VStem: -93 80<-151.613 -93.2998>
LayerCount: 2
Fore
SplineSet
427 712 m 2,0,-1
 680 712 l 1,1,-1
 675 698 l 1,2,-1
 597 698 l 1,3,-1
 400 147 l 2,4,5
 367 54 367 54 328 -8 c 128,-1,6
 289 -70 289 -70 216 -118 c 0,7,8
 115 -184 115 -184 13 -184 c 0,9,10
 -42 -184 -42 -184 -67.5 -156 c 128,-1,11
 -93 -128 -93 -128 -93 -98 c 0,12,13
 -93 -75 -93 -75 -76 -59 c 128,-1,14
 -59 -43 -59 -43 -29 -43 c 0,15,16
 15 -43 15 -43 15 -73 c 0,17,18
 15 -85 15 -85 0 -109 c 0,19,20
 -13 -130 -13 -130 -13 -138 c 0,21,22
 -10 -157 -10 -157 10 -157 c 128,-1,23
 30 -157 30 -157 61 -138.5 c 128,-1,24
 92 -120 92 -120 119 -83 c 0,25,26
 161 -25 161 -25 222 147 c 2,27,-1
 267 271 l 1,28,29
 193 280 193 280 151 309 c 0,30,31
 110 337 110 337 89 383.5 c 128,-1,32
 68 430 68 430 68 479 c 0,33,34
 68 507 68 507 75 533.5 c 128,-1,35
 82 560 82 560 98.5 590 c 128,-1,36
 115 620 115 620 149 646 c 128,-1,37
 183 672 183 672 232 688 c 0,38,39
 305 712 305 712 427 712 c 2,0,-1
329 147 m 2,40,-1
 527 698 l 1,41,-1
 435 698 l 1,42,-1
 238 147 l 2,43,44
 178 -19 178 -19 132 -88.5 c 128,-1,45
 86 -158 86 -158 8 -170 c 1,46,47
 51 -169 51 -169 89.5 -156 c 128,-1,48
 128 -143 128 -143 155.5 -125.5 c 128,-1,49
 183 -108 183 -108 209 -78.5 c 128,-1,50
 235 -49 235 -49 251 -25 c 128,-1,51
 267 -1 267 -1 284 35.5 c 128,-1,52
 301 72 301 72 309 93 c 128,-1,53
 317 114 317 114 329 147 c 2,40,-1
EndSplineSet
EndChar

StartChar: bullet
Encoding: 219 8226 118
Width: 500
Flags: W
TeX: 536 -179
HStem: 179 357<184.011 355.989>
VStem: 91 358<271.216 442.989>
LayerCount: 2
Fore
SplineSet
91 357 m 128,-1,1
 91 431 91 431 143.5 483.5 c 128,-1,2
 196 536 196 536 270 536 c 128,-1,3
 344 536 344 536 396.5 483.5 c 128,-1,4
 449 431 449 431 449 357 c 128,-1,5
 449 283 449 283 396.5 231 c 128,-1,6
 344 179 344 179 270 179 c 128,-1,7
 196 179 196 179 143.5 231 c 128,-1,0
 91 283 91 283 91 357 c 128,-1,1
EndSplineSet
EndChar

StartChar: quotesinglbase
Encoding: 213 8218 119
Width: 259
Flags: W
TeX: 132 192
HStem: -6 126<27.1112 100.561>
VStem: 101 54<-49.1252 4>
LayerCount: 2
Fore
SplineSet
-19 -168 m 1,0,-1
 -27 -141 l 1,1,2
 26 -118 26 -118 63.5 -81 c 128,-1,3
 101 -44 101 -44 101 4 c 1,4,5
 87 -6 87 -6 68 -6 c 0,6,7
 39 -6 39 -6 23 10.5 c 128,-1,8
 7 27 7 27 7 54 c 128,-1,9
 7 81 7 81 26.5 100.5 c 128,-1,10
 46 120 46 120 73 120 c 0,11,12
 112 120 112 120 133.5 93.5 c 128,-1,13
 155 67 155 67 155 28 c 0,14,15
 155 -37 155 -37 103.5 -87 c 128,-1,16
 52 -137 52 -137 -19 -168 c 1,0,-1
EndSplineSet
EndChar

StartChar: quotedblbase
Encoding: 216 8222 120
Width: 444
Flags: W
TeX: 132 192
HStem: -6 126<27.1112 100.561 212.111 285.561>
VStem: 101 54<-49.1252 4> 286 54<-49.1252 4>
LayerCount: 2
Fore
SplineSet
-19 -168 m 1,0,-1
 -27 -141 l 1,1,2
 26 -118 26 -118 63.5 -81 c 128,-1,3
 101 -44 101 -44 101 4 c 1,4,5
 87 -6 87 -6 68 -6 c 0,6,7
 39 -6 39 -6 23 10.5 c 128,-1,8
 7 27 7 27 7 54 c 128,-1,9
 7 81 7 81 26.5 100.5 c 128,-1,10
 46 120 46 120 73 120 c 0,11,12
 112 120 112 120 133.5 93.5 c 128,-1,13
 155 67 155 67 155 28 c 0,14,15
 155 -37 155 -37 103.5 -87 c 128,-1,16
 52 -137 52 -137 -19 -168 c 1,0,-1
166 -168 m 1,17,-1
 158 -141 l 1,18,19
 211 -118 211 -118 248.5 -81 c 128,-1,20
 286 -44 286 -44 286 4 c 1,21,22
 272 -6 272 -6 253 -6 c 0,23,24
 224 -6 224 -6 208 10.5 c 128,-1,25
 192 27 192 27 192 54 c 128,-1,26
 192 81 192 81 211.5 100.5 c 128,-1,27
 231 120 231 120 258 120 c 0,28,29
 297 120 297 120 318.5 93.5 c 128,-1,30
 340 67 340 67 340 28 c 0,31,32
 340 -37 340 -37 288.5 -87 c 128,-1,33
 237 -137 237 -137 166 -168 c 1,17,-1
EndSplineSet
EndChar

StartChar: quotedblright
Encoding: 215 8221 121
Width: 444
Flags: W
TeX: 727 -403
HStem: 601 126<175.111 248.561 360.111 433.561>
VStem: 249 54<557.875 611> 434 54<557.875 611>
LayerCount: 2
Fore
SplineSet
129 439 m 1,0,-1
 121 466 l 1,1,2
 174 489 174 489 211.5 526 c 128,-1,3
 249 563 249 563 249 611 c 1,4,5
 235 601 235 601 216 601 c 0,6,7
 187 601 187 601 171 617.5 c 128,-1,8
 155 634 155 634 155 661 c 128,-1,9
 155 688 155 688 174.5 707.5 c 128,-1,10
 194 727 194 727 221 727 c 0,11,12
 260 727 260 727 281.5 700.5 c 128,-1,13
 303 674 303 674 303 635 c 0,14,15
 303 570 303 570 251.5 520 c 128,-1,16
 200 470 200 470 129 439 c 1,0,-1
314 439 m 1,17,-1
 306 466 l 1,18,19
 359 489 359 489 396.5 526 c 128,-1,20
 434 563 434 563 434 611 c 1,21,22
 420 601 420 601 401 601 c 0,23,24
 372 601 372 601 356 617.5 c 128,-1,25
 340 634 340 634 340 661 c 128,-1,26
 340 688 340 688 359.5 707.5 c 128,-1,27
 379 727 379 727 406 727 c 0,28,29
 445 727 445 727 466.5 700.5 c 128,-1,30
 488 674 488 674 488 635 c 0,31,32
 488 570 488 570 436.5 520 c 128,-1,33
 385 470 385 470 314 439 c 1,17,-1
EndSplineSet
EndChar

StartChar: guillemotright
Encoding: 121 187 122
Width: 407
Flags: W
TeX: 408 -64
LayerCount: 2
Fore
SplineSet
79 408 m 1,0,-1
 109 408 l 1,1,2
 157 303 157 303 223 223 c 1,3,4
 121 159 121 159 16 64 c 1,5,-1
 -4 84 l 1,6,7
 9 102 9 102 121 238 c 1,8,9
 102 297 102 297 79 408 c 1,0,-1
248 408 m 1,10,-1
 278 408 l 1,11,12
 326 303 326 303 392 223 c 1,13,14
 290 159 290 159 185 64 c 1,15,-1
 165 84 l 1,16,17
 178 102 178 102 290 238 c 1,18,19
 271 297 271 297 248 408 c 1,10,-1
EndSplineSet
EndChar

StartChar: ellipsis
Encoding: 220 8230 123
Width: 1000
Flags: W
TeX: 132 6
HStem: -6 126<101.08 188.92 434.08 521.92 767.08 854.92>
VStem: 82 126<13.08 100.92> 415 126<13.08 100.92> 748 126<13.08 100.92>
CounterMasks: 1 70
LayerCount: 2
Fore
SplineSet
82 57 m 128,-1,1
 82 83 82 83 100.5 101.5 c 128,-1,2
 119 120 119 120 145 120 c 128,-1,3
 171 120 171 120 189.5 101.5 c 128,-1,4
 208 83 208 83 208 57 c 128,-1,5
 208 31 208 31 189.5 12.5 c 128,-1,6
 171 -6 171 -6 145 -6 c 128,-1,7
 119 -6 119 -6 100.5 12.5 c 128,-1,0
 82 31 82 31 82 57 c 128,-1,1
415 57 m 128,-1,9
 415 83 415 83 433.5 101.5 c 128,-1,10
 452 120 452 120 478 120 c 128,-1,11
 504 120 504 120 522.5 101.5 c 128,-1,12
 541 83 541 83 541 57 c 128,-1,13
 541 31 541 31 522.5 12.5 c 128,-1,14
 504 -6 504 -6 478 -6 c 128,-1,15
 452 -6 452 -6 433.5 12.5 c 128,-1,8
 415 31 415 31 415 57 c 128,-1,9
748 57 m 128,-1,17
 748 83 748 83 766.5 101.5 c 128,-1,18
 785 120 785 120 811 120 c 128,-1,19
 837 120 837 120 855.5 101.5 c 128,-1,20
 874 83 874 83 874 57 c 128,-1,21
 874 31 874 31 855.5 12.5 c 128,-1,22
 837 -6 837 -6 811 -6 c 128,-1,23
 785 -6 785 -6 766.5 12.5 c 128,-1,16
 748 31 748 31 748 57 c 128,-1,17
EndSplineSet
EndChar

StartChar: perthousand
Encoding: 221 8240 124
Width: 1000
Flags: W
TeX: 715 21
HStem: -12 25<430.943 503.549 765.943 838.549> 273 25<473.451 546.057 808.451 881.057> 396 25<157.943 230.549> 681 25<200.451 273.057> 695 20G<537.908 598>
VStem: 72 66<446.155 609.193> 293 66<492.807 655.845> 345 66<38.1552 201.193> 566 66<84.8073 247.845> 680 66<38.1552 201.193> 901 66<84.8073 247.845>
LayerCount: 2
Fore
SplineSet
72 526 m 0,0,1
 72 595 72 595 120.5 650.5 c 128,-1,2
 169 706 169 706 238 706 c 0,3,4
 296 706 296 706 327.5 669 c 128,-1,5
 359 632 359 632 359 576 c 0,6,7
 359 507 359 507 310.5 451.5 c 128,-1,8
 262 396 262 396 193 396 c 0,9,10
 135 396 135 396 103.5 433 c 128,-1,11
 72 470 72 470 72 526 c 0,0,1
138 492 m 0,12,13
 138 421 138 421 195 421 c 0,14,15
 221 421 221 421 241.5 442.5 c 128,-1,16
 262 464 262 464 272.5 496.5 c 128,-1,17
 283 529 283 529 288 558.5 c 128,-1,18
 293 588 293 588 293 610 c 0,19,20
 293 681 293 681 236 681 c 0,21,22
 210 681 210 681 189.5 659.5 c 128,-1,23
 169 638 169 638 158.5 605.5 c 128,-1,24
 148 573 148 573 143 543.5 c 128,-1,25
 138 514 138 514 138 492 c 0,12,13
345 118 m 0,26,27
 345 187 345 187 393.5 242.5 c 128,-1,28
 442 298 442 298 511 298 c 0,29,30
 569 298 569 298 600.5 261 c 128,-1,31
 632 224 632 224 632 168 c 0,32,33
 632 99 632 99 583.5 43.5 c 128,-1,34
 535 -12 535 -12 466 -12 c 0,35,36
 408 -12 408 -12 376.5 25 c 128,-1,37
 345 62 345 62 345 118 c 0,26,27
411 84 m 0,38,39
 411 13 411 13 468 13 c 0,40,41
 494 13 494 13 514.5 34.5 c 128,-1,42
 535 56 535 56 545.5 88.5 c 128,-1,43
 556 121 556 121 561 150.5 c 128,-1,44
 566 180 566 180 566 202 c 0,45,46
 566 273 566 273 509 273 c 0,47,48
 483 273 483 273 462.5 251.5 c 128,-1,49
 442 230 442 230 431.5 197.5 c 128,-1,50
 421 165 421 165 416 135.5 c 128,-1,51
 411 106 411 106 411 84 c 0,38,39
680 118 m 0,52,53
 680 187 680 187 728.5 242.5 c 128,-1,54
 777 298 777 298 846 298 c 0,55,56
 904 298 904 298 935.5 261 c 128,-1,57
 967 224 967 224 967 168 c 0,58,59
 967 99 967 99 918.5 43.5 c 128,-1,60
 870 -12 870 -12 801 -12 c 0,61,62
 743 -12 743 -12 711.5 25 c 128,-1,63
 680 62 680 62 680 118 c 0,52,53
746 84 m 0,64,65
 746 13 746 13 803 13 c 0,66,67
 829 13 829 13 849.5 34.5 c 128,-1,68
 870 56 870 56 880.5 88.5 c 128,-1,69
 891 121 891 121 896 150.5 c 128,-1,70
 901 180 901 180 901 202 c 0,71,72
 901 273 901 273 844 273 c 0,73,74
 818 273 818 273 797.5 251.5 c 128,-1,75
 777 230 777 230 766.5 197.5 c 128,-1,76
 756 165 756 165 751 135.5 c 128,-1,77
 746 106 746 106 746 84 c 0,64,65
105 -21 m 1,78,-1
 550 715 l 1,79,-1
 598 715 l 1,80,-1
 153 -21 l 1,81,-1
 105 -21 l 1,78,-1
EndSplineSet
EndChar

StartChar: questiondown
Encoding: 125 191 125
Width: 444
Flags: W
TeX: 508 220
HStem: -172 25<116.701 198.545> 376 126<300.08 387.92>
VStem: -20 102<-76.3813 80.5854> 211 104<-120.309 -28.9244> 281 126<395.08 482.92> 298 24<283.063 322>
LayerCount: 2
Fore
SplineSet
298 322 m 1,0,-1
 322 322 l 1,1,2
 311 259 311 259 285.5 233 c 128,-1,3
 260 207 260 207 198 183 c 128,-1,4
 136 159 136 159 109 94.5 c 128,-1,5
 82 30 82 30 82 -39 c 0,6,7
 82 -83 82 -83 100 -115 c 128,-1,8
 118 -147 118 -147 156 -147 c 0,9,10
 211 -147 211 -147 211 -105 c 0,11,12
 211 -97 211 -97 206 -74.5 c 128,-1,13
 201 -52 201 -52 201 -43 c 0,14,15
 201 -20 201 -20 217.5 -8 c 128,-1,16
 234 4 234 4 256 4 c 0,17,18
 285 4 285 4 300 -14 c 128,-1,19
 315 -32 315 -32 315 -57 c 0,20,21
 315 -113 315 -113 268 -142.5 c 128,-1,22
 221 -172 221 -172 163 -172 c 0,23,24
 81 -172 81 -172 30.5 -117 c 128,-1,25
 -20 -62 -20 -62 -20 17 c 0,26,27
 -20 94 -20 94 26 152.5 c 128,-1,28
 72 211 72 211 157 220 c 0,29,30
 175 222 175 222 191.5 224 c 128,-1,31
 208 226 208 226 221.5 229 c 128,-1,32
 235 232 235 232 247 238 c 128,-1,33
 259 244 259 244 268.5 254.5 c 128,-1,34
 278 265 278 265 285.5 281.5 c 128,-1,35
 293 298 293 298 298 322 c 1,0,-1
407 439 m 128,-1,37
 407 413 407 413 388.5 394.5 c 128,-1,38
 370 376 370 376 344 376 c 128,-1,39
 318 376 318 376 299.5 394.5 c 128,-1,40
 281 413 281 413 281 439 c 128,-1,41
 281 465 281 465 299.5 483.5 c 128,-1,42
 318 502 318 502 344 502 c 128,-1,43
 370 502 370 502 388.5 483.5 c 128,-1,36
 407 465 407 465 407 439 c 128,-1,37
EndSplineSet
EndChar

StartChar: grave
Encoding: 64 96 126
Width: 278
Flags: W
TeX: 738 -563
HStem: 582 173
VStem: 89 196
LayerCount: 2
Fore
SplineSet
285 582 m 1,0,-1
 248 582 l 1,1,-1
 103 690 l 2,2,3
 89 700 89 700 89 721 c 0,4,5
 89 736 89 736 99 745.5 c 128,-1,6
 109 755 109 755 126 755 c 0,7,8
 150 755 150 755 164 736 c 2,9,-1
 285 582 l 1,0,-1
EndSplineSet
EndChar

StartChar: acute
Encoding: 114 180 127
Width: 278
Flags: W
TeX: 738 -563
HStem: 582 173
VStem: 146 226
LayerCount: 2
Fore
SplineSet
184 582 m 1,0,-1
 146 582 l 1,1,-1
 294 734 l 2,2,3
 314 755 314 755 333 755 c 0,4,5
 349 755 349 755 360.5 743.5 c 128,-1,6
 372 732 372 732 372 716 c 128,-1,7
 372 700 372 700 356 690 c 2,8,-1
 184 582 l 1,0,-1
EndSplineSet
EndChar

StartChar: circumflex
Encoding: 201 710 128
Width: 278
Flags: W
TeX: 733 -563
HStem: 582 173
VStem: 53 302
LayerCount: 2
Fore
SplineSet
271 755 m 1,0,-1
 355 582 l 1,1,-1
 316 582 l 1,2,-1
 230 684 l 1,3,-1
 96 582 l 1,4,-1
 53 582 l 1,5,-1
 213 755 l 1,6,-1
 271 755 l 1,0,-1
EndSplineSet
EndChar

StartChar: tilde
Encoding: 207 732 129
Width: 278
Flags: W
TeX: 700 -586
HStem: 607 62<248.453 353.615> 651 60<116.477 222.93>
LayerCount: 2
Fore
SplineSet
373 715 m 1,0,-1
 405 715 l 1,1,2
 395 672 395 672 365 639.5 c 128,-1,3
 335 607 335 607 294 607 c 0,4,5
 269 607 269 607 223 629 c 128,-1,6
 177 651 177 651 151 651 c 0,7,8
 113 651 113 651 98 607 c 1,9,-1
 66 607 l 1,10,11
 74 649 74 649 105.5 680 c 128,-1,12
 137 711 137 711 179 711 c 0,13,14
 200 711 200 711 250 690 c 0,15,16
 302 669 302 669 325 669 c 0,17,18
 339 669 339 669 353 684 c 128,-1,19
 367 699 367 699 373 715 c 1,0,-1
EndSplineSet
EndChar

StartChar: macron
Encoding: 109 175 130
Width: 278
Flags: W
TeX: 664 -604
HStem: 620 60<94 349>
VStem: 80 282
LayerCount: 2
Fore
SplineSet
349 620 m 1,0,-1
 80 620 l 1,1,-1
 94 680 l 1,2,-1
 362 680 l 1,3,-1
 349 620 l 1,0,-1
EndSplineSet
EndChar

StartChar: breve
Encoding: 203 728 131
Width: 278
Flags: W
TeX: 721 -564
HStem: 582 66<147.746 297.013>
VStem: 82 30<692.43 742>
LayerCount: 2
Fore
SplineSet
82 742 m 1,0,-1
 112 742 l 1,1,2
 121 648 121 648 221 648 c 0,3,4
 268 648 268 648 302 673 c 128,-1,5
 336 698 336 698 354 742 c 1,6,-1
 385 742 l 1,7,8
 374 673 374 673 328.5 627.5 c 128,-1,9
 283 582 283 582 216 582 c 0,10,11
 82 582 82 582 82 742 c 1,0,-1
EndSplineSet
EndChar

StartChar: dotaccent
Encoding: 204 729 132
Width: 278
Flags: W
TeX: 683 -575
HStem: 598 108<172.973 259.027>
VStem: 162 108<608.973 695.027>
LayerCount: 2
Fore
SplineSet
162 652 m 128,-1,1
 162 674 162 674 178 690 c 128,-1,2
 194 706 194 706 216 706 c 128,-1,3
 238 706 238 706 254 690 c 128,-1,4
 270 674 270 674 270 652 c 128,-1,5
 270 630 270 630 254 614 c 128,-1,6
 238 598 238 598 216 598 c 128,-1,7
 194 598 194 598 178 614 c 128,-1,0
 162 630 162 630 162 652 c 128,-1,1
EndSplineSet
EndChar

StartChar: dieresis
Encoding: 102 168 133
Width: 278
Flags: W
TeX: 683 -575
HStem: 598 108<72.9727 159.027 274.973 361.027>
VStem: 62 108<608.973 695.027> 264 108<608.973 695.027>
LayerCount: 2
Fore
SplineSet
264 652 m 128,-1,1
 264 674 264 674 280 690 c 128,-1,2
 296 706 296 706 318 706 c 128,-1,3
 340 706 340 706 356 690 c 128,-1,4
 372 674 372 674 372 652 c 128,-1,5
 372 630 372 630 356 614 c 128,-1,6
 340 598 340 598 318 598 c 128,-1,7
 296 598 296 598 280 614 c 128,-1,0
 264 630 264 630 264 652 c 128,-1,1
62 652 m 128,-1,9
 62 674 62 674 78 690 c 128,-1,10
 94 706 94 706 116 706 c 128,-1,11
 138 706 138 706 154 690 c 128,-1,12
 170 674 170 674 170 652 c 128,-1,13
 170 630 170 630 154 614 c 128,-1,14
 138 598 138 598 116 598 c 128,-1,15
 94 598 94 598 78 614 c 128,-1,8
 62 630 62 630 62 652 c 128,-1,9
EndSplineSet
EndChar

StartChar: ring
Encoding: 205 730 134
Width: 278
Flags: W
TeX: 746 -546
HStem: 565 42<209.202 296.469> 727 42<209.748 297.3>
VStem: 151 42<623.202 710.211> 313 42<624.006 711.3>
LayerCount: 2
Fore
SplineSet
253 565 m 0,0,1
 211 565 211 565 181 595 c 128,-1,2
 151 625 151 625 151 667 c 0,3,4
 151 708 151 708 181 738.5 c 128,-1,5
 211 769 211 769 253 769 c 0,6,7
 294 769 294 769 324.5 738.5 c 128,-1,8
 355 708 355 708 355 667 c 0,9,10
 355 625 355 625 324.5 595 c 128,-1,11
 294 565 294 565 253 565 c 0,0,1
253 607 m 128,-1,13
 278 607 278 607 295.5 625 c 128,-1,14
 313 643 313 643 313 667 c 128,-1,15
 313 691 313 691 295 709 c 128,-1,16
 277 727 277 727 253 727 c 0,17,18
 228 727 228 727 210.5 709 c 128,-1,19
 193 691 193 691 193 667 c 0,20,21
 193 642 193 642 210.5 624.5 c 128,-1,12
 228 607 228 607 253 607 c 128,-1,13
EndSplineSet
EndChar

StartChar: cedilla
Encoding: 118 184 135
Width: 278
Flags: W
TeX: 0 220
HStem: -220 36<-4.13123 106.225>
VStem: 121 78<-172.734 -106.538>
LayerCount: 2
Fore
SplineSet
-20 -195 m 1,0,-1
 -2 -166 l 1,1,2
 29 -184 29 -184 61 -184 c 0,3,4
 86 -184 86 -184 103.5 -171.5 c 128,-1,5
 121 -159 121 -159 121 -138 c 128,-1,6
 121 -117 121 -117 105.5 -108 c 128,-1,7
 90 -99 90 -99 71 -99 c 0,8,9
 53 -99 53 -99 39 -106 c 1,10,-1
 29 -96 l 1,11,-1
 96 3 l 1,12,-1
 133 3 l 1,13,-1
 88 -67 l 1,14,15
 101 -63 101 -63 118 -63 c 0,16,17
 153 -63 153 -63 176 -82.5 c 128,-1,18
 199 -102 199 -102 199 -136 c 0,19,20
 199 -179 199 -179 158.5 -199.5 c 128,-1,21
 118 -220 118 -220 71 -220 c 0,22,23
 20 -220 20 -220 -20 -195 c 1,0,-1
EndSplineSet
EndChar

StartChar: hungarumlaut
Encoding: 208 733 136
Width: 278
Flags: W
TeX: 738 -563
HStem: 582 173<234 261>
LayerCount: 2
Fore
SplineSet
96 582 m 1,0,-1
 58 582 l 1,1,-1
 206 734 l 2,2,3
 226 755 226 755 245 755 c 0,4,5
 261 755 261 755 272.5 743.5 c 128,-1,6
 284 732 284 732 284 716 c 128,-1,7
 284 700 284 700 268 690 c 2,8,-1
 96 582 l 1,0,-1
272 582 m 1,9,-1
 234 582 l 1,10,-1
 382 734 l 2,11,12
 402 755 402 755 421 755 c 0,13,14
 437 755 437 755 448.5 743.5 c 128,-1,15
 460 732 460 732 460 716 c 128,-1,16
 460 700 460 700 444 690 c 2,17,-1
 272 582 l 1,9,-1
EndSplineSet
EndChar

StartChar: ogonek
Encoding: 206 731 137
Width: 278
Flags: W
TeX: 3 220
HStem: -220 42<46.135 152.972>
VStem: -44 78<-167.179 -84.7719>
LayerCount: 2
Fore
SplineSet
95 3 m 1,0,-1
 140 3 l 1,1,2
 102 -21 102 -21 68 -59 c 128,-1,3
 34 -97 34 -97 34 -132 c 0,4,5
 34 -153 34 -153 50 -165.5 c 128,-1,6
 66 -178 66 -178 88 -178 c 128,-1,7
 110 -178 110 -178 150 -166 c 1,8,-1
 159 -203 l 1,9,10
 101 -220 101 -220 54 -220 c 0,11,12
 14 -220 14 -220 -15 -201.5 c 128,-1,13
 -44 -183 -44 -183 -44 -146 c 0,14,15
 -44 -100 -44 -100 -1 -61 c 128,-1,16
 42 -22 42 -22 95 3 c 1,0,-1
EndSplineSet
EndChar

StartChar: caron
Encoding: 202 711 138
Width: 278
Flags: W
TeX: 733 -563
HStem: 582 173
VStem: 86 312
LayerCount: 2
Fore
SplineSet
86 755 m 1,0,-1
 126 755 l 1,1,-1
 218 651 l 1,2,-1
 355 755 l 1,3,-1
 398 755 l 1,4,-1
 236 582 l 1,5,-1
 180 582 l 1,6,-1
 86 755 l 1,0,-1
EndSplineSet
EndChar

StartChar: emdash
Encoding: 210 8212 139
Width: 1000
Flags: W
TeX: 263 -209
HStem: 209 54<130 856>
LayerCount: 2
Fore
SplineSet
116 209 m 1,0,-1
 130 263 l 1,1,-1
 870 263 l 1,2,-1
 856 209 l 1,3,-1
 116 209 l 1,0,-1
EndSplineSet
EndChar

StartChar: AE
Encoding: 132 198 140
Width: 1056
Flags: W
TeX: 715 0
HStem: 0 25<-78 -11 25 117 319 415 526 800.353> 282 25<278 489> 381 25<636 753.466> 690 25<500 584 719 920.413>
VStem: 770 24<201 225.327> 990 22<504 542.868>
LayerCount: 2
Fore
SplineSet
492 690 m 1,0,-1
 500 715 l 1,1,-1
 1050 715 l 1,2,-1
 1012 504 l 1,3,-1
 990 504 l 1,4,5
 994 523 994 523 994 546 c 0,6,7
 994 624 994 624 956.5 657 c 128,-1,8
 919 690 919 690 837 690 c 2,9,-1
 719 690 l 1,10,-1
 636 406 l 1,11,-1
 699 406 l 2,12,13
 739 406 739 406 766 414 c 128,-1,14
 793 422 793 422 812 444 c 128,-1,15
 831 466 831 466 842 488 c 128,-1,16
 853 510 853 510 869 552 c 1,17,-1
 895 552 l 1,18,-1
 794 201 l 1,19,-1
 770 201 l 1,20,21
 788 274 788 274 788 305 c 0,22,23
 788 381 788 381 695 381 c 2,24,-1
 628 381 l 1,25,-1
 526 25 l 1,26,-1
 717 25 l 2,27,28
 909 25 909 25 980 226 c 1,29,-1
 1006 226 l 1,30,-1
 937 0 l 1,31,-1
 313 0 l 1,32,-1
 319 25 l 1,33,-1
 415 25 l 1,34,-1
 489 282 l 1,35,-1
 254 282 l 1,36,-1
 25 25 l 1,37,-1
 122 25 l 1,38,-1
 117 0 l 1,39,-1
 -86 0 l 1,40,-1
 -78 25 l 1,41,-1
 -11 25 l 1,42,-1
 584 690 l 1,43,-1
 492 690 l 1,0,-1
496 307 m 1,44,-1
 596 661 l 1,45,-1
 594 661 l 1,46,-1
 278 307 l 1,47,-1
 496 307 l 1,44,-1
EndSplineSet
Substitution2: "sous-table 'c2sc' Capitales vers petites capitales dans Latin lookup 0" ae.sc
EndChar

StartChar: ordfeminine
Encoding: 104 170 141
Width: 397
Flags: W
TeX: 706 -398
HStem: 398 25<173.497 239.867> 687 19<272.307 338.473>
VStem: 96 66<427.249 559.044> 301 66<428 503.722> 352 15<650 670.439>
LayerCount: 2
Fore
SplineSet
366 650 m 1,0,-1
 381 700 l 1,1,-1
 438 700 l 1,2,-1
 381 513 l 2,3,4
 367 463 367 463 367 454 c 0,5,6
 367 440 367 440 378 440 c 0,7,8
 403 440 403 440 444 509 c 1,9,-1
 457 500 l 1,10,11
 437 463 437 463 406 430.5 c 128,-1,12
 375 398 375 398 342 398 c 0,13,14
 323 398 323 398 312 408.5 c 128,-1,15
 301 419 301 419 301 437 c 0,16,17
 301 443 301 443 308 478 c 1,18,-1
 306 478 l 1,19,20
 282 440 282 440 254 419 c 128,-1,21
 226 398 226 398 181 398 c 0,22,23
 142 398 142 398 119 424 c 128,-1,24
 96 450 96 450 96 490 c 0,25,26
 96 561 96 561 162.5 633.5 c 128,-1,27
 229 706 229 706 305 706 c 0,28,29
 361 706 361 706 364 650 c 1,30,-1
 366 650 l 1,0,-1
162 476 m 128,-1,32
 162 423 162 423 204 423 c 0,33,34
 243 423 243 423 278.5 464.5 c 128,-1,35
 314 506 314 506 333 556 c 128,-1,36
 352 606 352 606 352 642 c 0,37,38
 352 687 352 687 307 687 c 0,39,40
 256 687 256 687 209 608 c 128,-1,31
 162 529 162 529 162 476 c 128,-1,32
EndSplineSet
EndChar

StartChar: Lslash
Encoding: 191 321 142
Width: 667
Flags: W
TeX: 715 0
HStem: 0 25<-37 53 165 404.75> 690 25<151 245 358 464>
LayerCount: 2
Fore
SplineSet
144 690 m 1,0,-1
 151 715 l 1,1,-1
 471 715 l 1,2,-1
 464 690 l 1,3,-1
 358 690 l 1,4,-1
 278 415 l 1,5,-1
 551 577 l 1,6,-1
 534 518 l 1,7,-1
 261 356 l 1,8,-1
 165 25 l 1,9,-1
 294 25 l 2,10,11
 418 25 418 25 489 72.5 c 128,-1,12
 560 120 560 120 598 221 c 1,13,-1
 625 221 l 1,14,-1
 562 0 l 1,15,-1
 -44 0 l 1,16,-1
 -37 25 l 1,17,-1
 53 25 l 1,18,-1
 125 275 l 1,19,-1
 6 204 l 1,20,-1
 22 263 l 1,21,-1
 142 334 l 1,22,-1
 245 690 l 1,23,-1
 144 690 l 1,0,-1
EndSplineSet
EndChar

StartChar: Oslash
Encoding: 150 216 143
Width: 759
Flags: W
TeX: 727 12
HStem: -12 25<260.877 385.019> 702 25<430.981 557.03>
VStem: 69 108<154.61 304.083> 639 108<407.339 583.809>
LayerCount: 2
Fore
SplineSet
45 15 m 1,0,-1
 116 89 l 1,1,2
 69 155 69 155 69 238 c 0,3,4
 69 349 69 349 126.5 462 c 128,-1,5
 184 575 184 575 285 651 c 128,-1,6
 386 727 386 727 497 727 c 0,7,8
 598 727 598 727 665 668 c 1,9,-1
 734 741 l 1,10,-1
 759 715 l 1,11,-1
 689 642 l 1,12,13
 747 572 747 572 747 477 c 0,14,15
 747 366 747 366 689.5 253 c 128,-1,16
 632 140 632 140 531 64 c 128,-1,17
 430 -12 430 -12 319 -12 c 0,18,19
 204 -12 204 -12 137 62 c 1,20,-1
 69 -10 l 1,21,-1
 45 15 l 1,0,-1
177 154 m 1,22,-1
 625 626 l 1,23,24
 588 702 588 702 490 702 c 0,25,26
 430 702 430 702 377 657 c 128,-1,27
 324 612 324 612 288.5 545.5 c 128,-1,28
 253 479 253 479 227 401.5 c 128,-1,29
 201 324 201 324 189 259.5 c 128,-1,30
 177 195 177 195 177 154 c 1,22,-1
636 586 m 1,31,-1
 184 111 l 1,32,33
 198 62 198 62 236.5 37.5 c 128,-1,34
 275 13 275 13 326 13 c 0,35,36
 386 13 386 13 439 58 c 128,-1,37
 492 103 492 103 527.5 169 c 128,-1,38
 563 235 563 235 589 312 c 128,-1,39
 615 389 615 389 627 452.5 c 128,-1,40
 639 516 639 516 639 555 c 0,41,42
 639 571 639 571 636 586 c 1,31,-1
EndSplineSet
Substitution2: "sous-table 'c2sc' Capitales vers petites capitales dans Latin lookup 0" oslash.sc
EndChar

StartChar: OE
Encoding: 193 338 144
Width: 1074
Flags: W
TeX: 721 6
HStem: -12 25<252.535 385.794> 0 25<569 818.353> 381 25<679 771.466> 690 25<762 938.413> 702 25<429.548 567.759>
VStem: 69 102<128.111 304.193> 788 24<201 225.327> 1008 22<504 542.868>
LayerCount: 2
Fore
SplineSet
1068 715 m 1,0,-1
 1030 504 l 1,1,-1
 1008 504 l 1,2,3
 1012 523 1012 523 1012 546 c 0,4,5
 1012 624 1012 624 974.5 657 c 128,-1,6
 937 690 937 690 855 690 c 2,7,-1
 762 690 l 1,8,-1
 679 406 l 1,9,-1
 717 406 l 2,10,11
 757 406 757 406 784 414 c 128,-1,12
 811 422 811 422 830 444 c 128,-1,13
 849 466 849 466 860 488 c 128,-1,14
 871 510 871 510 887 552 c 1,15,-1
 913 552 l 1,16,-1
 812 201 l 1,17,-1
 788 201 l 1,18,19
 806 274 806 274 806 305 c 0,20,21
 806 381 806 381 713 381 c 2,22,-1
 671 381 l 1,23,-1
 569 25 l 1,24,-1
 735 25 l 2,25,26
 927 25 927 25 998 226 c 1,27,-1
 1024 226 l 1,28,-1
 955 0 l 1,29,-1
 488 0 l 2,30,31
 451 0 451 0 391 -6 c 0,32,33
 333 -12 333 -12 306 -12 c 0,34,35
 193 -12 193 -12 131 61.5 c 128,-1,36
 69 135 69 135 69 249 c 0,37,38
 69 312 69 312 91 379.5 c 128,-1,39
 113 447 113 447 153.5 508.5 c 128,-1,40
 194 570 194 570 246 619.5 c 128,-1,41
 298 669 298 669 364.5 698 c 128,-1,42
 431 727 431 727 499 727 c 0,43,44
 523 727 523 727 619 721 c 0,45,46
 717 715 717 715 774 715 c 2,47,-1
 1068 715 l 1,0,-1
520 231 m 2,48,-1
 603 531 l 2,49,50
 616 576 616 576 616 618 c 0,51,52
 616 702 616 702 491 702 c 0,53,54
 430 702 430 702 375.5 657 c 128,-1,55
 321 612 321 612 285 545 c 128,-1,56
 249 478 249 478 222 401 c 128,-1,57
 195 324 195 324 183 260 c 128,-1,58
 171 196 171 196 171 157 c 0,59,60
 171 93 171 93 211 53 c 128,-1,61
 251 13 251 13 316 13 c 0,62,63
 363 13 363 13 398.5 31 c 128,-1,64
 434 49 434 49 457 83 c 128,-1,65
 480 117 480 117 493.5 150.5 c 128,-1,66
 507 184 507 184 520 231 c 2,48,-1
EndSplineSet
Substitution2: "sous-table 'c2sc' Capitales vers petites capitales dans Latin lookup 0" oe.sc
EndChar

StartChar: ordmasculine
Encoding: 120 186 145
Width: 373
Flags: W
TeX: 706 -398
HStem: 398 19<183.43 257.985> 687 19<252.015 326.57>
VStem: 96 66<447.82 577.779> 348 66<526.221 656.18>
LayerCount: 2
Fore
SplineSet
96 516 m 0,0,1
 96 593 96 593 154 649.5 c 128,-1,2
 212 706 212 706 286 706 c 0,3,4
 339 706 339 706 376.5 673 c 128,-1,5
 414 640 414 640 414 588 c 0,6,7
 414 511 414 511 356 454.5 c 128,-1,8
 298 398 298 398 224 398 c 0,9,10
 171 398 171 398 133.5 431 c 128,-1,11
 96 464 96 464 96 516 c 0,0,1
162 468 m 0,12,13
 164 417 164 417 223 417 c 0,14,15
 255 417 255 417 281.5 445 c 128,-1,16
 308 473 308 473 321.5 511.5 c 128,-1,17
 335 550 335 550 341.5 583.5 c 128,-1,18
 348 617 348 617 348 636 c 0,19,20
 346 687 346 687 287 687 c 0,21,22
 255 687 255 687 228.5 659 c 128,-1,23
 202 631 202 631 188.5 592.5 c 128,-1,24
 175 554 175 554 168.5 520.5 c 128,-1,25
 162 487 162 487 162 468 c 0,12,13
EndSplineSet
EndChar

StartChar: ae
Encoding: 164 230 146
Width: 778
Flags: W
TeX: 502 12
HStem: -12 36<144.104 225.064 476.002 590.098> 470 20G<449.023 544> 477 25<299.612 382.314 602.788 667.359>
VStem: 30 96<44.6117 211.843> 358 90<50.2471 147> 409 18<403 438.012> 682 78<362.717 466.103>
LayerCount: 2
Fore
SplineSet
682 425 m 0,0,1
 682 448 682 448 669.5 462.5 c 128,-1,2
 657 477 657 477 634 477 c 0,3,4
 592 477 592 477 542 403 c 128,-1,5
 492 329 492 329 473 253 c 1,6,7
 682 318 682 318 682 425 c 0,0,1
455 490 m 1,8,-1
 544 490 l 1,9,-1
 524 417 l 1,10,-1
 526 415 l 1,11,12
 579 502 579 502 659 502 c 0,13,14
 697 502 697 502 728.5 480.5 c 128,-1,15
 760 459 760 459 760 418 c 0,16,17
 760 313 760 313 463 222 c 1,18,19
 448 164 448 164 448 117 c 0,20,21
 448 24 448 24 532 24 c 0,22,23
 633 24 633 24 718 174 c 1,24,-1
 741 167 l 1,25,26
 704 92 704 92 644 40 c 128,-1,27
 584 -12 584 -12 503 -12 c 0,28,29
 360 -12 360 -12 358 147 c 1,30,-1
 356 147 l 1,31,32
 324 78 324 78 268 33 c 128,-1,33
 212 -12 212 -12 150 -12 c 0,34,35
 103 -12 103 -12 66.5 25 c 128,-1,36
 30 62 30 62 30 140 c 0,37,38
 30 220 30 220 78.5 305 c 128,-1,39
 127 390 127 390 200.5 446 c 128,-1,40
 274 502 274 502 343 502 c 0,41,42
 383 502 383 502 405 474.5 c 128,-1,43
 427 447 427 447 427 403 c 1,44,-1
 429 403 l 1,45,-1
 455 490 l 1,8,-1
126 94 m 0,46,47
 126 64 126 64 142 44 c 128,-1,48
 158 24 158 24 185 24 c 0,49,50
 244 24 244 24 298 94.5 c 128,-1,51
 352 165 352 165 380.5 247.5 c 128,-1,52
 409 330 409 330 409 382 c 0,53,54
 409 477 409 477 344 477 c 0,55,56
 301 477 301 477 258.5 431 c 128,-1,57
 216 385 216 385 188 321.5 c 128,-1,58
 160 258 160 258 143 195 c 128,-1,59
 126 132 126 132 126 94 c 0,46,47
EndSplineSet
Substitution2: "sous-table 'smcp' Bas-de-casse vers petites capitales dans Latin lookup 0" ae.sc
EndChar

StartChar: dotlessi
Encoding: 190 305 147
Width: 315
Flags: W
TeX: 490 0
HStem: -12 54<95.5 177.168> 465 25<71 154.75>
VStem: 44 96<42.3129 147.387>
LayerCount: 2
Fore
SplineSet
155 465 m 1,0,-1
 66 465 l 1,1,-1
 71 490 l 1,2,-1
 146 490 l 2,3,4
 202 490 202 490 258 496 c 1,5,-1
 149 104 l 2,6,7
 140 72 140 72 140 62 c 0,8,9
 140 42 140 42 162 42 c 0,10,11
 197 42 197 42 280 162 c 1,12,-1
 300 148 l 1,13,14
 285 125 285 125 263 97 c 128,-1,15
 241 69 241 69 219.5 45 c 128,-1,16
 198 21 198 21 168.5 4.5 c 128,-1,17
 139 -12 139 -12 110 -12 c 128,-1,18
 81 -12 81 -12 62.5 5.5 c 128,-1,19
 44 23 44 23 44 48 c 0,20,21
 44 68 44 68 68 156 c 2,22,-1
 155 465 l 1,0,-1
EndSplineSet
EndChar

StartChar: lslash
Encoding: 192 322 148
Width: 315
Flags: W
TeX: 715 0
HStem: -12 54<95.5 175.736> 690 25<130 216.156>
VStem: 44 96<42.3129 143.922>
LayerCount: 2
Fore
SplineSet
26 284 m 1,0,-1
 38 334 l 1,1,-1
 136 394 l 1,2,-1
 218 690 l 1,3,-1
 125 690 l 1,4,-1
 130 715 l 1,5,-1
 199 715 l 2,6,7
 260 715 260 715 321 721 c 1,8,-1
 250 465 l 1,9,-1
 352 528 l 1,10,-1
 340 476 l 1,11,-1
 235 412 l 1,12,-1
 149 104 l 2,13,14
 140 72 140 72 140 62 c 0,15,16
 140 42 140 42 162 42 c 0,17,18
 199 42 199 42 271 170 c 1,19,-1
 292 159 l 1,20,21
 205 -12 205 -12 110 -12 c 0,22,23
 81 -12 81 -12 62.5 5.5 c 128,-1,24
 44 23 44 23 44 48 c 0,25,26
 44 66 44 66 60 125 c 2,27,-1
 121 342 l 1,28,-1
 26 284 l 1,0,-1
EndSplineSet
EndChar

StartChar: oslash
Encoding: 182 248 149
Width: 574
Flags: W
TeX: 502 12
HStem: -12 25<182.195 290.967> 477 25<283.216 393.336>
VStem: 54 90<117 240.117> 430 90<251.218 375>
LayerCount: 2
Fore
SplineSet
144 117 m 1,0,-1
 427 417 l 1,1,2
 412 477 412 477 339 477 c 0,3,4
 288 477 288 477 251 444 c 0,5,6
 219 416 219 416 182.5 299 c 128,-1,7
 146 182 146 182 144 117 c 1,0,-1
39 4 m 1,8,-1
 93 61 l 1,9,10
 54 115 54 115 54 191 c 0,11,12
 54 315 54 315 134.5 408.5 c 128,-1,13
 215 502 215 502 335 502 c 0,14,15
 413 502 413 502 461 454 c 1,16,-1
 511 508 l 1,17,-1
 535 487 l 1,18,-1
 481 430 l 1,19,20
 520 378 520 378 520 299 c 0,21,22
 520 175 520 175 440 81.5 c 128,-1,23
 360 -12 360 -12 239 -12 c 0,24,25
 160 -12 160 -12 113 37 c 1,26,-1
 62 -18 l 1,27,-1
 39 4 l 1,8,-1
430 375 m 1,28,-1
 147 74 l 1,29,30
 162 13 162 13 235 13 c 0,31,32
 286 13 286 13 323 46 c 0,33,34
 355 75 355 75 391.5 192.5 c 128,-1,35
 428 310 428 310 430 375 c 1,28,-1
EndSplineSet
Substitution2: "sous-table 'smcp' Bas-de-casse vers petites capitales dans Latin lookup 0" oslash.sc
EndChar

StartChar: oe
Encoding: 194 339 150
Width: 778
Flags: W
TeX: 502 12
HStem: -12 36<487.554 595.773> -12 25<178.637 277.352> 477 25<281.192 379.582 600.752 674.461>
VStem: 54 90<87.3734 235.783> 689 78<363.351 466.024>
LayerCount: 2
Fore
SplineSet
725 174 m 1,0,-1
 748 167 l 1,1,2
 711 91 711 91 650.5 39.5 c 128,-1,3
 590 -12 590 -12 507 -12 c 0,4,5
 473 -12 473 -12 438 4.5 c 128,-1,6
 403 21 403 21 390 46 c 1,7,8
 303 -12 303 -12 235 -12 c 0,9,10
 151 -12 151 -12 102.5 46 c 128,-1,11
 54 104 54 104 54 191 c 0,12,13
 54 310 54 310 140.5 406 c 128,-1,14
 227 502 227 502 329 502 c 0,15,16
 371 502 371 502 414 476 c 128,-1,17
 457 450 457 450 481 411 c 1,18,19
 575 502 575 502 661 502 c 0,20,21
 705 502 705 502 736 481 c 128,-1,22
 767 460 767 460 767 418 c 0,23,24
 767 397 767 397 754 376 c 128,-1,25
 741 355 741 355 724 339 c 128,-1,26
 707 323 707 323 676.5 305.5 c 128,-1,27
 646 288 646 288 625 278 c 128,-1,28
 604 268 604 268 567.5 254 c 128,-1,29
 531 240 531 240 518.5 236 c 128,-1,30
 506 232 506 232 477 222 c 1,31,32
 462 164 462 164 462 117 c 0,33,34
 462 24 462 24 542 24 c 0,35,36
 640 24 640 24 725 174 c 1,0,-1
414 383 m 0,37,38
 414 477 414 477 331 477 c 0,39,40
 287 477 287 477 251 444 c 0,41,42
 218 414 218 414 181 291 c 128,-1,43
 144 168 144 168 144 107 c 0,44,45
 144 13 144 13 227 13 c 0,46,47
 271 13 271 13 307 46 c 0,48,49
 340 76 340 76 377 199 c 128,-1,50
 414 322 414 322 414 383 c 0,37,38
689 425 m 0,51,52
 689 448 689 448 676.5 462.5 c 128,-1,53
 664 477 664 477 642 477 c 0,54,55
 595 477 595 477 560 421 c 128,-1,56
 525 365 525 365 487 253 c 1,57,58
 689 322 689 322 689 425 c 0,51,52
EndSplineSet
Substitution2: "sous-table 'smcp' Bas-de-casse vers petites capitales dans Latin lookup 0" oe.sc
EndChar

StartChar: germandbls
Encoding: 157 223 151
Width: 593
Flags: W
TeX: 727 6
HStem: -198 25<-108.403 -52.0527> -6 25<249.462 321.645> 452 25<347 427.572> 702 25<371.966 478.037>
VStem: -190 81<-172.673 -89.0013> 209 24<36.6995 134.336> 458 90<259.992 416.477> 517 90<524.983 672.566>
LayerCount: 2
Fore
SplineSet
243 206 m 1,0,-1
 264 201 l 1,1,2
 256 180 256 180 244.5 138 c 128,-1,3
 233 96 233 96 233 81 c 0,4,5
 233 19 233 19 286 19 c 0,6,7
 321 19 321 19 354.5 65 c 128,-1,8
 388 111 388 111 409.5 173 c 128,-1,9
 431 235 431 235 444.5 292.5 c 128,-1,10
 458 350 458 350 458 379 c 0,11,12
 458 452 458 452 372 452 c 2,13,-1
 341 452 l 1,14,-1
 347 477 l 1,15,-1
 370 477 l 2,16,17
 444 477 444 477 480.5 506.5 c 128,-1,18
 517 536 517 536 517 609 c 0,19,20
 517 702 517 702 423 702 c 0,21,22
 373 702 373 702 327.5 658 c 128,-1,23
 282 614 282 614 256 502 c 2,24,-1
 183 196 l 2,25,26
 143 30 143 30 65 -84 c 128,-1,27
 -13 -198 -13 -198 -107 -198 c 0,28,29
 -150 -198 -150 -198 -170 -176.5 c 128,-1,30
 -190 -155 -190 -155 -190 -120 c 0,31,32
 -190 -94 -190 -94 -174 -76 c 128,-1,33
 -158 -58 -158 -58 -135 -58 c 0,34,35
 -114 -58 -114 -58 -101 -69 c 128,-1,36
 -88 -80 -88 -80 -88 -101 c 0,37,38
 -88 -115 -88 -115 -98.5 -131.5 c 128,-1,39
 -109 -148 -109 -148 -109 -155 c 0,40,41
 -109 -173 -109 -173 -91 -173 c 0,42,43
 -69 -173 -69 -173 -49 -159 c 128,-1,44
 -29 -145 -29 -145 -14 -124.5 c 128,-1,45
 1 -104 1 -104 16.5 -66 c 128,-1,46
 32 -28 32 -28 42.5 4.5 c 128,-1,47
 53 37 53 37 66 90.5 c 128,-1,48
 79 144 79 144 86.5 180 c 128,-1,49
 94 216 94 216 106 277 c 0,50,51
 125 371 125 371 150 444.5 c 128,-1,52
 175 518 175 518 215.5 585.5 c 128,-1,53
 256 653 256 653 316.5 690 c 128,-1,54
 377 727 377 727 455 727 c 0,55,56
 517 727 517 727 562 695 c 128,-1,57
 607 663 607 663 607 606 c 0,58,59
 607 545 607 545 571 507 c 128,-1,60
 535 469 535 469 475 459 c 1,61,-1
 475 457 l 1,62,63
 508 447 508 447 528 414 c 128,-1,64
 548 381 548 381 548 346 c 0,65,66
 548 277 548 277 518 197 c 128,-1,67
 488 117 488 117 427.5 55.5 c 128,-1,68
 367 -6 367 -6 295 -6 c 0,69,70
 254 -6 254 -6 231.5 16.5 c 128,-1,71
 209 39 209 39 209 80 c 0,72,73
 209 101 209 101 243 206 c 1,0,-1
EndSplineSet
EndChar

StartChar: divide
Encoding: 181 247 152
Width: 600
Flags: W
TeX: 514 12
HStem: -12 138<252.142 347.858> 218 66<49 551> 376 138<252.142 347.858>
VStem: 231 138<8.62695 106.292 396.627 494.292>
CounterMasks: 1 e0
LayerCount: 2
Fore
SplineSet
551 218 m 1,0,-1
 49 218 l 1,1,-1
 49 284 l 1,2,-1
 551 284 l 1,3,-1
 551 218 l 1,0,-1
369 56 m 128,-1,5
 369 28 369 28 348.5 8 c 128,-1,6
 328 -12 328 -12 300 -12 c 128,-1,7
 272 -12 272 -12 251.5 8 c 128,-1,8
 231 28 231 28 231 56 c 128,-1,9
 231 84 231 84 251.5 105 c 128,-1,10
 272 126 272 126 300 126 c 128,-1,11
 328 126 328 126 348.5 105 c 128,-1,4
 369 84 369 84 369 56 c 128,-1,5
369 444 m 128,-1,13
 369 416 369 416 348.5 396 c 128,-1,14
 328 376 328 376 300 376 c 128,-1,15
 272 376 272 376 251.5 396 c 128,-1,16
 231 416 231 416 231 444 c 128,-1,17
 231 472 231 472 251.5 493 c 128,-1,18
 272 514 272 514 300 514 c 128,-1,19
 328 514 328 514 348.5 493 c 128,-1,12
 369 472 369 472 369 444 c 128,-1,13
EndSplineSet
EndChar

StartChar: threequarters
Encoding: 124 190 153
Width: 834
Flags: W
TeX: 715 21
HStem: 0 21G<592 666.107> 131 25<502 635 709 775> 276 19<31 81.4492> 521 21<152.333 178.871> 664 42<188.65 257.93> 695 20G<598.908 659>
VStem: 232 78<397.952 507.32> 263 78<593.656 656.939>
LayerCount: 2
Fore
SplineSet
704 346 m 1,0,-1
 502 156 l 1,1,-1
 644 156 l 1,2,-1
 705 344 l 1,3,-1
 704 346 l 1,0,-1
660 0 m 1,4,-1
 592 0 l 1,5,-1
 635 131 l 1,6,-1
 466 131 l 1,7,-1
 466 149 l 1,8,-1
 762 424 l 1,9,-1
 796 424 l 1,10,-1
 709 156 l 1,11,-1
 775 156 l 1,12,-1
 775 131 l 1,13,-1
 700 131 l 1,14,-1
 660 0 l 1,4,-1
166 -21 m 1,15,-1
 611 715 l 1,16,-1
 659 715 l 1,17,-1
 214 -21 l 1,18,-1
 166 -21 l 1,15,-1
154 521 m 1,19,-1
 149 542 l 1,20,21
 166 547 166 547 185.5 555 c 128,-1,22
 205 563 205 563 222.5 572 c 128,-1,23
 240 581 240 581 251.5 595.5 c 128,-1,24
 263 610 263 610 263 628 c 128,-1,25
 263 646 263 646 249.5 655 c 128,-1,26
 236 664 236 664 217 664 c 0,27,28
 205 664 205 664 193 659.5 c 128,-1,29
 181 655 181 655 172 649 c 128,-1,30
 163 643 163 643 152 636 c 1,31,-1
 141 649 l 1,32,33
 202 706 202 706 256 706 c 0,34,35
 287 706 287 706 314 689 c 128,-1,36
 341 672 341 672 341 643 c 0,37,38
 341 608 341 608 309 585.5 c 128,-1,39
 277 563 277 563 237 552 c 1,40,-1
 237 550 l 1,41,42
 269 540 269 540 289.5 518.5 c 128,-1,43
 310 497 310 497 310 466 c 0,44,45
 310 411 310 411 259 365 c 128,-1,46
 208 319 208 319 145 297.5 c 128,-1,47
 82 276 82 276 31 276 c 1,48,-1
 31 295 l 1,49,50
 103 300 103 300 167.5 350.5 c 128,-1,51
 232 401 232 401 232 461 c 0,52,53
 232 483 232 483 218.5 503 c 128,-1,54
 205 523 205 523 180 523 c 0,55,56
 168 523 168 523 154 521 c 1,19,-1
EndSplineSet
EndChar

StartChar: onequarter
Encoding: 122 188 154
Width: 834
Flags: W
TeX: 715 21
HStem: 0 21G<592 666.107> 131 25<502 635 709 775> 282 19<64 126 197 261> 695 20G<598.908 659>
LayerCount: 2
Fore
SplineSet
660 0 m 1,0,-1
 592 0 l 1,1,-1
 635 131 l 1,2,-1
 466 131 l 1,3,-1
 466 149 l 1,4,-1
 762 424 l 1,5,-1
 796 424 l 1,6,-1
 709 156 l 1,7,-1
 775 156 l 1,8,-1
 775 131 l 1,9,-1
 700 131 l 1,10,-1
 660 0 l 1,0,-1
704 346 m 1,11,-1
 502 156 l 1,12,-1
 644 156 l 1,13,-1
 705 344 l 1,14,-1
 704 346 l 1,11,-1
166 -21 m 1,15,-1
 611 715 l 1,16,-1
 659 715 l 1,17,-1
 214 -21 l 1,18,-1
 166 -21 l 1,15,-1
126 552 m 1,19,-1
 120 569 l 1,20,21
 235 636 235 636 309 706 c 1,22,-1
 327 706 l 1,23,-1
 197 301 l 1,24,-1
 266 301 l 1,25,-1
 261 282 l 1,26,-1
 59 282 l 1,27,-1
 64 301 l 1,28,-1
 126 301 l 1,29,-1
 228 614 l 1,30,-1
 126 552 l 1,19,-1
EndSplineSet
EndChar

StartChar: one.superior
Encoding: 119 185 155
Width: 392
Flags: W
TeX: 706 -282
HStem: 441 19<38 104 182 256>
VStem: 34 294
LayerCount: 2
Fore
SplineSet
116 747 m 1,0,-1
 108 762 l 1,1,2
 240 845 240 845 310 914 c 1,3,-1
 328 914 l 1,4,-1
 182 460 l 1,5,-1
 261 460 l 1,6,-1
 256 441 l 1,7,-1
 34 441 l 1,8,-1
 38 460 l 1,9,-1
 104 460 l 1,10,-1
 219 816 l 1,11,-1
 218 816 l 1,12,-1
 116 747 l 1,0,-1
EndSplineSet
EndChar

StartChar: multiply
Encoding: 149 215 156
Width: 600
Flags: W
TeX: 479 -23
LayerCount: 2
Fore
SplineSet
254 251 m 1,0,-1
 72 433 l 1,1,-1
 118 479 l 1,2,-1
 300 296 l 1,3,-1
 482 479 l 1,4,-1
 528 433 l 1,5,-1
 345 251 l 1,6,-1
 528 69 l 1,7,-1
 482 23 l 1,8,-1
 300 206 l 1,9,-1
 118 23 l 1,10,-1
 72 69 l 1,11,-1
 254 251 l 1,0,-1
EndSplineSet
EndChar

StartChar: registered
Encoding: 108 174 157
Width: 490
Flags: W
TeX: 730 -358
HStem: 358 10<203.509 286.491> 446 4<317.5 342.272> 448 4<162 193 220 251> 551 4<220 257.41> 640 4<162 193 220 257.688> 720 10<203.509 286.491>
VStem: 59 10<502.509 585.491> 193 27<452 551 555 640> 279 31<568.435 630.761> 421 10<502.509 586.362>
LayerCount: 2
Fore
SplineSet
59 544 m 128,-1,1
 59 621 59 621 113.5 675.5 c 128,-1,2
 168 730 168 730 245 730 c 128,-1,3
 322 730 322 730 376.5 675 c 128,-1,4
 431 620 431 620 431 544 c 0,5,6
 431 467 431 467 376.5 412.5 c 128,-1,7
 322 358 322 358 245 358 c 128,-1,8
 168 358 168 358 113.5 412.5 c 128,-1,0
 59 467 59 467 59 544 c 128,-1,1
193 452 m 1,9,-1
 193 640 l 1,10,-1
 162 640 l 1,11,-1
 162 644 l 1,12,-1
 214 644 l 2,13,14
 218 644 218 644 227 644.5 c 128,-1,15
 236 645 236 645 241 645 c 0,16,17
 277 645 277 645 292 633 c 0,18,19
 310 619 310 619 310 598 c 0,20,21
 310 591 310 591 307 583.5 c 128,-1,22
 304 576 304 576 292.5 566.5 c 128,-1,23
 281 557 281 557 262 555 c 1,24,-1
 262 554 l 1,25,26
 306 546 306 546 313 522 c 0,27,28
 315 514 315 514 316.5 494.5 c 128,-1,29
 318 475 318 475 319 469 c 0,30,31
 323 450 323 450 335 450 c 0,32,33
 344 450 344 450 350 456 c 1,34,-1
 352 453 l 1,35,36
 343 446 343 446 328 446 c 0,37,38
 307 446 307 446 299 456 c 128,-1,39
 291 466 291 466 289 488 c 2,40,-1
 287 514 l 2,41,42
 284 551 284 551 248 551 c 2,43,-1
 220 551 l 1,44,-1
 220 452 l 1,45,-1
 251 452 l 1,46,-1
 251 448 l 1,47,-1
 162 448 l 1,48,-1
 162 452 l 1,49,-1
 193 452 l 1,9,-1
220 640 m 1,50,-1
 220 555 l 1,51,-1
 245 555 l 2,52,53
 279 555 279 555 279 598 c 0,54,55
 279 624 279 624 268 632.5 c 128,-1,56
 257 641 257 641 238 641 c 0,57,58
 224 641 224 641 220 640 c 1,50,-1
69 544 m 128,-1,60
 69 471 69 471 120.5 419.5 c 128,-1,61
 172 368 172 368 245 368 c 128,-1,62
 318 368 318 368 369.5 419.5 c 128,-1,63
 421 471 421 471 421 544 c 128,-1,64
 421 617 421 617 369.5 668.5 c 128,-1,65
 318 720 318 720 245 720 c 128,-1,66
 172 720 172 720 120.5 668.5 c 128,-1,59
 69 617 69 617 69 544 c 128,-1,60
EndSplineSet
EndChar

StartChar: Thorn
Encoding: 156 222 158
Width: 630
Flags: W
TeX: 715 0
HStem: 0 25<-37 52 165 264> 157 25<212 363.684> 546 25<324 449.812> 690 25<150 244 358 444>
VStem: 499 120<317.902 506.237>
LayerCount: 2
Fore
SplineSet
319 546 m 1,0,-1
 212 182 l 1,1,-1
 292 182 l 2,2,3
 342 182 342 182 381.5 202 c 128,-1,4
 421 222 421 222 442 251 c 128,-1,5
 463 280 463 280 477 316.5 c 128,-1,6
 491 353 491 353 495 380 c 128,-1,7
 499 407 499 407 499 430 c 0,8,9
 499 503 499 503 468 524.5 c 128,-1,10
 437 546 437 546 363 546 c 2,11,-1
 319 546 l 1,0,-1
143 690 m 1,12,-1
 150 715 l 1,13,-1
 452 715 l 1,14,-1
 444 690 l 1,15,-1
 358 690 l 1,16,-1
 324 571 l 1,17,-1
 436 571 l 2,18,19
 466 571 466 571 490 567.5 c 128,-1,20
 514 564 514 564 539 554 c 128,-1,21
 564 544 564 544 581 527.5 c 128,-1,22
 598 511 598 511 608.5 482 c 128,-1,23
 619 453 619 453 619 415 c 0,24,25
 619 387 619 387 611.5 356.5 c 128,-1,26
 604 326 604 326 582 289.5 c 128,-1,27
 560 253 560 253 526 224.5 c 128,-1,28
 492 196 492 196 433 176.5 c 128,-1,29
 374 157 374 157 299 157 c 2,30,-1
 205 157 l 1,31,-1
 165 25 l 1,32,-1
 271 25 l 1,33,-1
 264 0 l 1,34,-1
 -44 0 l 1,35,-1
 -37 25 l 1,36,-1
 52 25 l 1,37,-1
 244 690 l 1,38,-1
 143 690 l 1,12,-1
EndSplineSet
Substitution2: "sous-table 'c2sc' Capitales vers petites capitales dans Latin lookup 0" thorn.sc
EndChar

StartChar: brokenbar
Encoding: 100 166 159
Width: 222
Flags: W
TeX: 661 89
VStem: 108 66<-89 161 411 661>
LayerCount: 2
Fore
SplineSet
108 -89 m 1,0,-1
 108 161 l 1,1,-1
 174 161 l 1,2,-1
 174 -89 l 1,3,-1
 108 -89 l 1,0,-1
108 411 m 1,4,-1
 108 661 l 1,5,-1
 174 661 l 1,6,-1
 174 411 l 1,7,-1
 108 411 l 1,4,-1
EndSplineSet
EndChar

StartChar: Eth
Encoding: 142 208 160
Width: 796
Flags: W
TeX: 715 0
HStem: 0 25<-29 60 173 397.033> 376 42<83 161 287 434> 690 25<158 252 367 565.186>
VStem: 664 120<336.91 590.634>
LayerCount: 2
Fore
SplineSet
60 25 m 1,0,-1
 161 376 l 1,1,-1
 70 376 l 1,2,-1
 83 418 l 1,3,-1
 173 418 l 1,4,-1
 252 690 l 1,5,-1
 151 690 l 1,6,-1
 158 715 l 1,7,-1
 478 715 l 2,8,9
 506 715 506 715 522 714.5 c 128,-1,10
 538 714 538 714 567 712 c 128,-1,11
 596 710 596 710 614 705.5 c 128,-1,12
 632 701 632 701 657 692.5 c 128,-1,13
 682 684 682 684 698 671.5 c 128,-1,14
 714 659 714 659 732 640 c 128,-1,15
 750 621 750 621 760 596.5 c 128,-1,16
 770 572 770 572 777 538 c 128,-1,17
 784 504 784 504 784 463 c 0,18,19
 784 340 784 340 731.5 235 c 128,-1,20
 679 130 679 130 578.5 65 c 128,-1,21
 478 0 478 0 350 0 c 2,22,-1
 -36 0 l 1,23,-1
 -29 25 l 1,24,-1
 60 25 l 1,0,-1
275 376 m 1,25,-1
 173 25 l 1,26,-1
 305 25 l 2,27,28
 369 25 369 25 423 46 c 128,-1,29
 477 67 477 67 513 100 c 128,-1,30
 549 133 549 133 577.5 178 c 128,-1,31
 606 223 606 223 621.5 267 c 128,-1,32
 637 311 637 311 647 358.5 c 128,-1,33
 657 406 657 406 660.5 440 c 128,-1,34
 664 474 664 474 664 502 c 0,35,36
 664 560 664 560 649.5 599 c 128,-1,37
 635 638 635 638 606.5 657 c 128,-1,38
 578 676 578 676 547 683 c 128,-1,39
 516 690 516 690 473 690 c 2,40,-1
 367 690 l 1,41,-1
 287 418 l 1,42,-1
 447 418 l 1,43,-1
 434 376 l 1,44,-1
 275 376 l 1,25,-1
EndSplineSet
Substitution2: "sous-table 'c2sc' Capitales vers petites capitales dans Latin lookup 0" eth.sc
EndChar

StartChar: onehalf
Encoding: 123 189 161
Width: 834
Flags: W
TeX: 715 21
HStem: 0.0996094 64.7998<551.8 704.8> 262 81<594.159 632.841> 282 19<74 136 207 271> 395.2 28.7998<641.164 727.258> 695 20G<608.908 669>
LayerCount: 2
Fore
SplineSet
591.400390625 342.099609375 m 1,0,1
 588.700195312 326.799804688 588.700195312 326.799804688 594.099609375 330.399414062 c 0,2,3
 595.900390625 333.099609375 595.900390625 333.099609375 611.200195312 339.399414062 c 0,4,5
 619.299804688 343 619.299804688 343 627.400390625 343 c 0,6,7
 662.5 343 662.5 343 650.799804688 304.299804688 c 0,8,9
 646.299804688 282.700195312 646.299804688 282.700195312 633.25 272.349609375 c 128,-1,10
 620.200195312 262 620.200195312 262 604 262 c 0,11,12
 579.700195312 262 579.700195312 262 571.599609375 280.899414062 c 0,13,14
 562.599609375 301.599609375 562.599609375 301.599609375 570.700195312 328.599609375 c 0,15,16
 584.200195312 381.700195312 584.200195312 381.700195312 625.599609375 402.399414062 c 0,17,18
 665.200195312 424 665.200195312 424 721 424 c 0,19,20
 772.299804688 424 772.299804688 424 798.400390625 392.049804688 c 128,-1,21
 824.5 360.099609375 824.5 360.099609375 809.200195312 306.099609375 c 0,22,23
 801.099609375 269.200195312 801.099609375 269.200195312 769.150390625 234.099609375 c 128,-1,24
 737.200195312 199 737.200195312 199 696.700195312 172 c 0,25,26
 594.099609375 103.599609375 594.099609375 103.599609375 551.799804688 64.8994140625 c 1,27,-1
 670.599609375 64.8994140625 l 2,28,29
 702.099609375 64.8994140625 702.099609375 64.8994140625 724.599609375 82 c 128,-1,30
 747.099609375 99.099609375 747.099609375 99.099609375 760.599609375 122.5 c 1,31,-1
 773.200195312 117.099609375 l 1,32,-1
 704.799804688 0.099609375 l 1,33,-1
 470.799804688 0.099609375 l 1,34,-1
 472.599609375 16.2998046875 l 1,35,-1
 580.599609375 101.799804688 l 2,36,37
 611.200195312 126.099609375 611.200195312 126.099609375 631 142.299804688 c 0,38,39
 649.900390625 158.5 649.900390625 158.5 675.549804688 184.599609375 c 128,-1,40
 701.200195312 210.700195312 701.200195312 210.700195312 717.400390625 237.700195312 c 128,-1,41
 733.599609375 264.700195312 733.599609375 264.700195312 739.900390625 293.5 c 0,42,43
 751.599609375 336.700195312 751.599609375 336.700195312 738.099609375 365.950195312 c 128,-1,44
 724.599609375 395.200195312 724.599609375 395.200195312 685.900390625 395.200195312 c 128,-1,45
 647.200195312 395.200195312 647.200195312 395.200195312 622.900390625 381.700195312 c 0,46,47
 600.400390625 369.099609375 600.400390625 369.099609375 591.400390625 342.099609375 c 1,0,1
176 -21 m 1,48,-1
 621 715 l 1,49,-1
 669 715 l 1,50,-1
 224 -21 l 1,51,-1
 176 -21 l 1,48,-1
136 552 m 1,52,-1
 130 569 l 1,53,54
 245 636 245 636 319 706 c 1,55,-1
 337 706 l 1,56,-1
 207 301 l 1,57,-1
 276 301 l 1,58,-1
 271 282 l 1,59,-1
 69 282 l 1,60,-1
 74 301 l 1,61,-1
 136 301 l 1,62,-1
 238 614 l 1,63,-1
 136 552 l 1,52,-1
EndSplineSet
EndChar

StartChar: minus
Encoding: 226 8722 162
Width: 600
Flags: W
TeX: 284 -218
HStem: 218 66<49 551>
LayerCount: 2
Fore
SplineSet
551 218 m 1,0,-1
 49 218 l 1,1,-1
 49 284 l 1,2,-1
 551 284 l 1,3,-1
 551 218 l 1,0,-1
EndSplineSet
EndChar

StartChar: ccedilla
Encoding: 165 231 163
Width: 463
Flags: W
TeX: 502 220
HStem: -220 36<88.8688 199.225> -12 31<216 291.358> 477 25<290.913 372.141>
VStem: 38 102<70.1924 238.612> 214 78<-172.734 -106.538> 384 90<342.682 446.267>
LayerCount: 2
Fore
SplineSet
73 -195 m 1,0,-1
 91 -166 l 1,1,2
 122 -184 122 -184 154 -184 c 0,3,4
 179 -184 179 -184 196.5 -171.5 c 128,-1,5
 214 -159 214 -159 214 -138 c 128,-1,6
 214 -117 214 -117 198.5 -108 c 128,-1,7
 183 -99 183 -99 164 -99 c 0,8,9
 146 -99 146 -99 132 -106 c 1,10,-1
 122 -96 l 1,11,-1
 180 -9 l 1,12,13
 115 0 115 0 76.5 45.5 c 128,-1,14
 38 91 38 91 38 164 c 0,15,16
 38 219 38 219 62.5 279 c 128,-1,17
 87 339 87 339 127 388.5 c 128,-1,18
 167 438 167 438 223 470 c 128,-1,19
 279 502 279 502 336 502 c 0,20,21
 390 502 390 502 432 467.5 c 128,-1,22
 474 433 474 433 474 379 c 0,23,24
 474 314 474 314 419 314 c 0,25,26
 395 314 395 314 383.5 327.5 c 128,-1,27
 372 341 372 341 372 362 c 0,28,29
 372 369 372 369 378 395.5 c 128,-1,30
 384 422 384 422 384 435 c 0,31,32
 384 477 384 477 332 477 c 0,33,34
 292 477 292 477 254.5 433 c 128,-1,35
 217 389 217 389 193 329 c 128,-1,36
 169 269 169 269 154.5 212 c 128,-1,37
 140 155 140 155 140 123 c 0,38,39
 140 71 140 71 163 45 c 128,-1,40
 186 19 186 19 237 19 c 0,41,42
 291 19 291 19 340 62 c 128,-1,43
 389 105 389 105 415 160 c 1,44,-1
 436 148 l 1,45,46
 403 80 403 80 345 34.5 c 128,-1,47
 287 -11 287 -11 216 -12 c 1,48,-1
 181 -67 l 1,49,50
 194 -63 194 -63 211 -63 c 0,51,52
 246 -63 246 -63 269 -82.5 c 128,-1,53
 292 -102 292 -102 292 -136 c 0,54,55
 292 -179 292 -179 251.5 -199.5 c 128,-1,56
 211 -220 211 -220 164 -220 c 0,57,58
 113 -220 113 -220 73 -195 c 1,0,-1
EndSplineSet
Substitution2: "sous-table 'smcp' Bas-de-casse vers petites capitales dans Latin lookup 0" ccedilla.sc
EndChar

StartChar: eth
Encoding: 174 240 164
Width: 574
Flags: W
TeX: 774 12
HStem: -12 25<181.361 292.374> 477 25<282.978 392.869>
VStem: 54 90<88.4319 236.589> 430 96<254.015 452.039>
LayerCount: 2
Fore
SplineSet
170 610 m 1,0,-1
 299 662 l 1,1,2
 251 700 251 700 174 735 c 1,3,-1
 198 761 l 1,4,5
 293 721 293 721 351 683 c 1,6,-1
 488 738 l 1,7,-1
 512 704 l 1,8,-1
 386 653 l 1,9,10
 469 581 469 581 497.5 510.5 c 128,-1,11
 526 440 526 440 526 330 c 0,12,13
 526 191 526 191 446 89.5 c 128,-1,14
 366 -12 366 -12 239 -12 c 0,15,16
 152 -12 152 -12 103 46 c 128,-1,17
 54 104 54 104 54 191 c 0,18,19
 54 315 54 315 134.5 408.5 c 128,-1,20
 215 502 215 502 335 502 c 0,21,22
 379 502 379 502 413 483 c 1,23,24
 413 510 413 510 389.5 553 c 128,-1,25
 366 596 366 596 331 631 c 1,26,-1
 194 576 l 1,27,-1
 170 610 l 1,0,-1
430 383 m 0,28,29
 430 477 430 477 339 477 c 0,30,31
 287 477 287 477 251 444 c 0,32,33
 218 414 218 414 181 291 c 128,-1,34
 144 168 144 168 144 107 c 0,35,36
 144 13 144 13 235 13 c 0,37,38
 287 13 287 13 323 46 c 0,39,40
 356 76 356 76 393 199 c 128,-1,41
 430 322 430 322 430 383 c 0,28,29
EndSplineSet
Substitution2: "sous-table 'smcp' Bas-de-casse vers petites capitales dans Latin lookup 0" eth.sc
EndChar

StartChar: plusminus
Encoding: 111 177 165
Width: 600
Flags: W
TeX: 502 0
HStem: 0 66<49 551> 268 66<49 267 333 551> 482 20G<267 333>
VStem: 267 66<99 268 334 502>
LayerCount: 2
Fore
SplineSet
267 334 m 1,0,-1
 267 502 l 1,1,-1
 333 502 l 1,2,-1
 333 334 l 1,3,-1
 551 334 l 1,4,-1
 551 268 l 1,5,-1
 333 268 l 1,6,-1
 333 99 l 1,7,-1
 267 99 l 1,8,-1
 267 268 l 1,9,-1
 49 268 l 1,10,-1
 49 334 l 1,11,-1
 267 334 l 1,0,-1
49 0 m 1,12,-1
 49 66 l 1,13,-1
 551 66 l 1,14,-1
 551 0 l 1,15,-1
 49 0 l 1,12,-1
EndSplineSet
EndChar

StartChar: Ccedilla
Encoding: 133 199 166
Width: 722
Flags: W
TeX: 727 220
HStem: -220 36<217.869 328.225> -12 25<346 407.356> 702 25<445.414 579.221>
VStem: 69 108<147.631 309.612> 343 78<-172.734 -106.538> 654 23<464.478 488.192>
LayerCount: 2
Fore
SplineSet
596 233 m 1,0,-1
 623 228 l 1,1,-1
 557 22 l 1,2,3
 442 -10 442 -10 346 -12 c 1,4,-1
 310 -67 l 1,5,6
 323 -63 323 -63 340 -63 c 0,7,8
 375 -63 375 -63 398 -82.5 c 128,-1,9
 421 -102 421 -102 421 -136 c 0,10,11
 421 -179 421 -179 380.5 -199.5 c 128,-1,12
 340 -220 340 -220 293 -220 c 0,13,14
 242 -220 242 -220 202 -195 c 1,15,-1
 220 -166 l 1,16,17
 251 -184 251 -184 283 -184 c 0,18,19
 308 -184 308 -184 325.5 -171.5 c 128,-1,20
 343 -159 343 -159 343 -138 c 128,-1,21
 343 -117 343 -117 327.5 -108 c 128,-1,22
 312 -99 312 -99 293 -99 c 0,23,24
 275 -99 275 -99 261 -106 c 1,25,-1
 251 -96 l 1,26,-1
 309 -10 l 1,27,28
 197 0 197 0 133 78.5 c 128,-1,29
 69 157 69 157 69 254 c 0,30,31
 69 323 69 323 98.5 403.5 c 128,-1,32
 128 484 128 484 180.5 557 c 128,-1,33
 233 630 233 630 317.5 678.5 c 128,-1,34
 402 727 402 727 499 727 c 0,35,36
 606 727 606 727 729 663 c 1,37,-1
 677 461 l 1,38,-1
 654 466 l 1,39,40
 665 517 665 517 665 551 c 0,41,42
 665 616 665 616 625 659 c 128,-1,43
 585 702 585 702 513 702 c 0,44,45
 445 702 445 702 386.5 655.5 c 128,-1,46
 328 609 328 609 291 541.5 c 128,-1,47
 254 474 254 474 227 398.5 c 128,-1,48
 200 323 200 323 188.5 266.5 c 128,-1,49
 177 210 177 210 177 182 c 0,50,51
 177 98 177 98 219.5 55.5 c 128,-1,52
 262 13 262 13 336 13 c 0,53,54
 425 13 425 13 493 78.5 c 128,-1,55
 561 144 561 144 596 233 c 1,0,-1
EndSplineSet
Substitution2: "sous-table 'c2sc' Capitales vers petites capitales dans Latin lookup 0" ccedilla.sc
EndChar

StartChar: thorn
Encoding: 188 254 167
Width: 593
Flags: W
TeX: 715 220
HStem: -220 21G<-54 47> -12 36<193.693 296.534> 460 42<335.149 417.07> 690 25<127 214.117>
VStem: 437 102<239.779 438.037>
LayerCount: 2
Fore
SplineSet
215 690 m 1,0,-1
 119 690 l 1,1,-1
 127 715 l 1,2,-1
 207 715 l 2,3,4
 264 715 264 715 319 721 c 1,5,-1
 225 396 l 1,6,-1
 227 394 l 1,7,8
 262 429 262 429 281 446 c 128,-1,9
 300 463 300 463 337 482.5 c 128,-1,10
 374 502 374 502 409 502 c 0,11,12
 473 502 473 502 506 456 c 128,-1,13
 539 410 539 410 539 344 c 0,14,15
 539 263 539 263 500 180 c 128,-1,16
 461 97 461 97 395 42.5 c 128,-1,17
 329 -12 329 -12 259 -12 c 0,18,19
 207 -12 207 -12 179.5 13 c 128,-1,20
 152 38 152 38 136 90 c 1,21,-1
 134 90 l 1,22,-1
 41 -220 l 1,23,-1
 -54 -220 l 1,24,-1
 215 690 l 1,0,-1
437 360 m 0,25,26
 437 460 437 460 371 460 c 0,27,28
 300 460 300 460 230.5 352.5 c 128,-1,29
 161 245 161 245 161 125 c 0,30,31
 161 83 161 83 182.5 53.5 c 128,-1,32
 204 24 204 24 245 24 c 0,33,34
 297 24 297 24 343.5 90 c 128,-1,35
 390 156 390 156 413.5 233 c 128,-1,36
 437 310 437 310 437 360 c 0,25,26
EndSplineSet
Substitution2: "sous-table 'smcp' Bas-de-casse vers petites capitales dans Latin lookup 0" thorn.sc
EndChar

StartChar: copyright
Encoding: 103 169 168
Width: 800
Flags: W
TeX: 730 14
HStem: -12 60<307.431 530.935> 155 19<393.881 501.798> 554 19<390.811 498.283> 667 60<307.431 530.935>
VStem: 50 66<243.29 473.103> 215 84<262.229 456.722> 563 18<457 491.689> 581 17<251.201 268> 724 66<243.29 473.251>
LayerCount: 2
Fore
SplineSet
451 174 m 0,0,1
 539.222222222 174 539.222222222 174 581 268 c 1,2,-1
 598 268 l 1,3,-1
 584 195 l 2,4,5
 582 187 582 187 574.5 183 c 128,-1,6
 567 179 567 179 557 175 c 128,-1,7
 547 171 547 171 533.5 167.5 c 128,-1,8
 520 164 520 164 504 161 c 0,9,10
 472 155 472 155 433 155 c 128,-1,11
 394 155 394 155 353 167 c 128,-1,12
 312 179 312 179 281.5 204.5 c 0,13,14
 215 260.098360656 215 260.098360656 215 367 c 0,15,16
 215 444.105263158 215 444.105263158 270.5 503.5 c 0,17,18
 335.442622951 573 335.442622951 573 448 573 c 0,19,20
 510.625 573 510.625 573 560.5 552 c 0,21,22
 578.08045977 544.597701149 578.08045977 544.597701149 579.540229885 537.298850575 c 128,-1,23
 581 530 581 530 581 523 c 2,24,-1
 581 457 l 1,25,-1
 563 457 l 1,26,27
 555.41011236 521.514044944 555.41011236 521.514044944 498 545 c 0,28,29
 476 554 476 554 441.5 554 c 128,-1,30
 407 554 407 554 379.5 540 c 128,-1,31
 352 526 352 526 334 501.5 c 0,32,33
 299 453.861111111 299 453.861111111 299 371 c 0,34,35
 299 231.413793103 299 231.413793103 381 189 c 0,36,37
 410 174 410 174 451 174 c 0,0,1
116 358 m 256,38,39
 116 294 116 294 140 237.5 c 128,-1,40
 164 181 164 181 205 139 c 128,-1,41
 246 97 246 97 301 72.5 c 128,-1,42
 356 48 356 48 419 48 c 256,43,44
 482 48 482 48 537.5 72.5 c 128,-1,45
 593 97 593 97 634.5 139 c 128,-1,46
 676 181 676 181 700 237.5 c 128,-1,47
 724 294 724 294 724 358 c 256,48,49
 724 485.421686747 724 485.421686747 634.5 576 c 0,50,51
 593 618 593 618 537.5 642.5 c 128,-1,52
 482 667 482 667 419 667 c 256,53,54
 356 667 356 667 301 642.5 c 128,-1,55
 246 618 246 618 205 576 c 0,56,57
 116 484.829268293 116 484.829268293 116 358 c 256,38,39
79 214 m 128,-1,59
 50 281 50 281 50 357.5 c 128,-1,60
 50 434 50 434 79 501.5 c 128,-1,61
 108 569 108 569 158 619 c 128,-1,62
 208 669 208 669 275 698 c 128,-1,63
 342 727 342 727 419 727 c 256,64,65
 496 727 496 727 563.5 698 c 128,-1,66
 631 669 631 669 681.5 619 c 128,-1,67
 732 569 732 569 761 501.5 c 128,-1,68
 790 434 790 434 790 357.5 c 128,-1,69
 790 281 790 281 761 214 c 128,-1,70
 732 147 732 147 681.5 96.5 c 128,-1,71
 631 46 631 46 563.5 17 c 128,-1,72
 496 -12 496 -12 419 -12 c 256,73,74
 342 -12 342 -12 275 17 c 128,-1,75
 208 46 208 46 158 96.5 c 128,-1,58
 108 147 108 147 79 214 c 128,-1,59
EndSplineSet
EndChar

StartChar: logicalnot
Encoding: 106 172 169
Width: 600
Flags: W
TeX: 384 -106
HStem: 318 66<49 485>
VStem: 485 66<106 318>
LayerCount: 2
Fore
SplineSet
485 106 m 1,0,-1
 485 318 l 1,1,-1
 49 318 l 1,2,-1
 49 384 l 1,3,-1
 551 384 l 1,4,-1
 551 106 l 1,5,-1
 485 106 l 1,0,-1
EndSplineSet
EndChar

StartChar: two.superior
Encoding: 112 178 170
Width: 345
Flags: W
TeX: 706 -282
HStem: 441 72<99 269> 732 90<146.066 189.046> 880 32<198.293 293.953>
LayerCount: 2
Fore
SplineSet
143 821 m 1,0,1
 140 804 140 804 146 808 c 0,2,3
 148 811 148 811 165 818 c 0,4,5
 174 822 174 822 183 822 c 0,6,7
 222 822 222 822 209 779 c 0,8,9
 204 755 204 755 189.5 743.5 c 128,-1,10
 175 732 175 732 157 732 c 0,11,12
 130 732 130 732 121 753 c 0,13,14
 111 776 111 776 120 806 c 0,15,16
 135 865 135 865 181 888 c 0,17,18
 225 912 225 912 287 912 c 0,19,20
 344 912 344 912 373 876.5 c 128,-1,21
 402 841 402 841 385 781 c 0,22,23
 376 740 376 740 340.5 701 c 128,-1,24
 305 662 305 662 260 632 c 0,25,26
 146 556 146 556 99 513 c 1,27,-1
 231 513 l 2,28,29
 266 513 266 513 291 532 c 128,-1,30
 316 551 316 551 331 577 c 1,31,-1
 345 571 l 1,32,-1
 269 441 l 1,33,-1
 9 441 l 1,34,-1
 11 459 l 1,35,-1
 131 554 l 2,36,37
 165 581 165 581 187 599 c 0,38,39
 208 617 208 617 236.5 646 c 128,-1,40
 265 675 265 675 283 705 c 128,-1,41
 301 735 301 735 308 767 c 0,42,43
 321 815 321 815 306 847.5 c 128,-1,44
 291 880 291 880 248 880 c 128,-1,45
 205 880 205 880 178 865 c 0,46,47
 153 851 153 851 143 821 c 1,0,1
EndSplineSet
EndChar

StartChar: three.superior
Encoding: 113 179 171
Width: 382
Flags: W
TeX: 700 -276
HStem: 431 20<8 57.3604> 868 46<173.139 262.5>
VStem: 213 81<571.012 694.144> 249 77<787.761 858.402>
LayerCount: 2
Fore
SplineSet
133 704 m 1,0,-1
 128 726 l 1,1,2
 142 732 142 732 158.5 737 c 128,-1,3
 175 742 175 742 191 750.5 c 128,-1,4
 207 759 207 759 220 768.5 c 128,-1,5
 233 778 233 778 241 792.5 c 128,-1,6
 249 807 249 807 249 824.5 c 128,-1,7
 249 842 249 842 237.5 855 c 128,-1,8
 226 868 226 868 204 868 c 0,9,10
 176 868 176 868 132 831 c 1,11,-1
 120 845 l 1,12,13
 179 914 179 914 246 914 c 0,14,15
 279 914 279 914 302.5 893.5 c 128,-1,16
 326 873 326 873 326 838 c 0,17,18
 326 804 326 804 294.5 779 c 128,-1,19
 263 754 263 754 220 741 c 1,20,-1
 220 740 l 1,21,22
 294 716 294 716 294 643 c 0,23,24
 294 601 294 601 265.5 560.5 c 128,-1,25
 237 520 237 520 193.5 492.5 c 128,-1,26
 150 465 150 465 100.5 448 c 128,-1,27
 51 431 51 431 8 431 c 1,28,-1
 8 451 l 1,29,30
 81 456 81 456 147 512.5 c 128,-1,31
 213 569 213 569 213 635 c 0,32,33
 213 661 213 661 199 684 c 128,-1,34
 185 707 185 707 158 707 c 0,35,36
 141 707 141 707 133 704 c 1,0,-1
EndSplineSet
EndChar

StartChar: trademark
Encoding: 225 8482 172
Width: 990
Flags: W
TeX: 715 -311
HStem: 311 19<117 148.433 257.567 289 438 471.972 532.107 567 782 813.433 922.567 954> 627 88<30 54.9072 351.093 376> 696 19<84.5557 167 239 321.444 420 452.544 923.25 960>
VStem: 30 18<627 652.184> 167 72<337.863 696> 358 18<627 652.184> 490 24<345.346 613> 832 72<337.863 613>
LayerCount: 2
Fore
SplineSet
167 366 m 2,0,-1
 167 696 l 1,1,-1
 118 696 l 2,2,3
 65 696 65 696 48 627 c 1,4,-1
 30 627 l 1,5,-1
 30 715 l 1,6,-1
 376 715 l 1,7,-1
 376 627 l 1,8,-1
 358 627 l 1,9,10
 341 696 341 696 288 696 c 2,11,-1
 239 696 l 1,12,-1
 239 366 l 2,13,14
 239 338 239 338 289 330 c 1,15,-1
 289 311 l 1,16,-1
 117 311 l 1,17,-1
 117 330 l 1,18,19
 167 338 167 338 167 366 c 2,0,-1
666 311 m 1,20,-1
 516 613 l 1,21,-1
 514 613 l 1,22,-1
 514 377 l 2,23,24
 514 356 514 356 524.5 345 c 128,-1,25
 535 334 535 334 567 330 c 1,26,-1
 567 311 l 1,27,-1
 438 311 l 1,28,-1
 438 330 l 1,29,30
 469 334 469 334 479.5 345 c 128,-1,31
 490 356 490 356 490 376 c 2,32,-1
 490 645 l 1,33,34
 480 667 480 667 461 681 c 128,-1,35
 442 695 442 695 420 696 c 1,36,-1
 420 715 l 1,37,-1
 541 715 l 1,38,-1
 695 406 l 1,39,-1
 857 715 l 1,40,-1
 960 715 l 1,41,-1
 960 696 l 1,42,43
 928 694 928 694 916 681 c 128,-1,44
 904 668 904 668 904 641 c 2,45,-1
 904 366 l 2,46,47
 904 338 904 338 954 330 c 1,48,-1
 954 311 l 1,49,-1
 782 311 l 1,50,-1
 782 330 l 1,51,52
 832 338 832 338 832 366 c 2,53,-1
 832 613 l 1,54,-1
 829 613 l 1,55,-1
 677 311 l 1,56,-1
 666 311 l 1,20,-1
EndSplineSet
EndChar

StartChar: degree
Encoding: 110 176 173
Width: 400
Flags: W
TeX: 706 -420
HStem: 420 48<200.04 319.96> 658 48<200.04 319.96>
VStem: 117 48<503.04 622.96> 355 48<503.04 622.96>
LayerCount: 2
Fore
SplineSet
117 563 m 128,-1,1
 117 623 117 623 158.5 664.5 c 128,-1,2
 200 706 200 706 260 706 c 128,-1,3
 320 706 320 706 361.5 664.5 c 128,-1,4
 403 623 403 623 403 563 c 128,-1,5
 403 503 403 503 361.5 461.5 c 128,-1,6
 320 420 320 420 260 420 c 128,-1,7
 200 420 200 420 158.5 461.5 c 128,-1,0
 117 503 117 503 117 563 c 128,-1,1
165 563 m 128,-1,9
 165 524 165 524 193 496 c 128,-1,10
 221 468 221 468 260 468 c 128,-1,11
 299 468 299 468 327 496 c 128,-1,12
 355 524 355 524 355 563 c 128,-1,13
 355 602 355 602 327 630 c 128,-1,14
 299 658 299 658 260 658 c 128,-1,15
 221 658 221 658 193 630 c 128,-1,8
 165 602 165 602 165 563 c 128,-1,9
EndSplineSet
EndChar

StartChar: mu
Encoding: 115 181 174
Width: 611
Flags: W
TeX: 490 220
HStem: -220 21G<-19.5 23.5> -12 48<132.258 225.325> 465 25<75 159.445>
VStem: -41 103.5<-206.093 -100.932> 347 96<32.5 158.38>
LayerCount: 2
Fore
SplineSet
69 465 m 1,0,-1
 75 490 l 1,1,-1
 147 490 l 2,2,3
 204 490 204 490 259 496 c 1,4,-1
 167 155 l 2,5,6
 154 105 154 105 154 81 c 0,7,8
 154 36 154 36 190 36 c 0,9,10
 246 36 246 36 317.5 129.5 c 128,-1,11
 389 223 389 223 430 368 c 2,12,-1
 465 490 l 1,13,-1
 556 490 l 1,14,-1
 452 124 l 2,15,16
 443 92 443 92 443 73 c 0,17,18
 443 62 443 62 450 55 c 128,-1,19
 457 48 457 48 467 48 c 0,20,21
 483 48 483 48 509 76 c 128,-1,22
 535 104 535 104 551.5 128.5 c 128,-1,23
 568 153 568 153 581 175 c 1,24,-1
 600 161 l 1,25,26
 581 127 581 127 565.5 103.5 c 128,-1,27
 550 80 550 80 525 50 c 128,-1,28
 500 20 500 20 470.5 4 c 128,-1,29
 441 -12 441 -12 409 -12 c 0,30,31
 381 -12 381 -12 364 3 c 128,-1,32
 347 18 347 18 347 47 c 0,33,34
 347 82 347 82 368 155 c 1,35,-1
 366 157 l 1,36,37
 259 -12 259 -12 145 -12 c 0,38,39
 107 -12 107 -12 95 5 c 1,40,41
 80 -127 80 -127 62.5 -173.5 c 128,-1,42
 45 -220 45 -220 2 -220 c 128,-1,43
 -41 -220 -41 -220 -41 -173 c 0,44,45
 -41 -155 -41 -155 16 -2 c 128,-1,46
 73 151 73 151 89 209 c 2,47,-1
 160 465 l 1,48,-1
 69 465 l 1,0,-1
EndSplineSet
EndChar

StartChar: uni00AD
Encoding: 107 173 231
Width: 370
Flags: W
TeX: 0 0
HStem: 185 66<92 278>
VStem: 92 186<185 251>
LayerCount: 2
Fore
SplineSet
92 185 m 1,0,-1
 92 251 l 1,1,-1
 278 251 l 1,2,-1
 278 185 l 1,3,-1
 92 185 l 1,0,-1
EndSplineSet
EndChar

StartChar: f_f
Encoding: 232 64256 232
Width: 630
GlyphClass: 3
Flags: W
HStem: -180 31<-105.58 -35.2422 209.42 279.758> 465 25<86 173 278 488 593 689> 671 25<345.496 409.72> 702 25<668.115 730.72>
VStem: -190 83<-148.473 -58.6299> 125 83<-148.473 -58.6299> 417 72<604.137 664.917> 738 72<635.137 695.917>
LayerCount: 2
Fore
SplineSet
173 465 m 5,0,-1
 79 465 l 5,1,-1
 86 490 l 5,2,-1
 181 490 l 5,3,4
 191 512 191 512 201.5 533.5 c 4,5,6
 219 572 219 572 245 610 c 132,-1,7
 271 648 271 648 308.5 672 c 132,-1,8
 346 696 346 696 388 696 c 4,9,10
 426 696 426 696 457.5 674 c 132,-1,11
 489 652 489 652 489 617 c 4,12,13
 489 588 489 588 475.5 570.5 c 132,-1,14
 462 553 462 553 438 553 c 4,15,16
 419 553 419 553 406 564.5 c 132,-1,17
 393 576 393 576 393 593 c 4,18,19
 393 606 393 606 405 620.5 c 132,-1,20
 417 635 417 635 417 646 c 132,-1,21
 417 657 417 657 407.5 664 c 132,-1,22
 398 671 398 671 385 671 c 4,23,24
 340 671 340 671 319.5 625 c 4,25,26
 298 575 298 575 278 490 c 5,27,-1
 403 490 l 5,28,-1
 496 490 l 5,29,30
 505 526 505 526 522.5 564.5 c 132,-1,31
 540 603 540 603 566 641 c 132,-1,32
 592 679 592 679 629.5 703 c 132,-1,33
 667 727 667 727 709 727 c 4,34,35
 747 727 747 727 778.5 705 c 132,-1,36
 810 683 810 683 810 648 c 4,37,38
 810 619 810 619 796.5 601.5 c 132,-1,39
 783 584 783 584 759 584 c 4,40,41
 740 584 740 584 727 595.5 c 132,-1,42
 714 607 714 607 714 624 c 4,43,44
 714 637 714 637 726 651.5 c 132,-1,45
 738 666 738 666 738 677 c 132,-1,46
 738 688 738 688 728.5 695 c 132,-1,47
 719 702 719 702 706 702 c 4,48,49
 665 702 665 702 640.5 656 c 132,-1,50
 616 610 616 610 593 490 c 5,51,-1
 695 490 l 5,52,-1
 689 465 l 5,53,-1
 589 465 l 5,54,55
 578 400 578 400 558 323 c 132,-1,56
 538 246 538 246 503.5 154.5 c 132,-1,57
 469 63 469 63 428 -9.5 c 132,-1,58
 387 -82 387 -82 331 -131 c 132,-1,59
 275 -180 275 -180 215 -180 c 4,60,61
 173 -180 173 -180 149 -155.5 c 132,-1,62
 125 -131 125 -131 125 -96 c 4,63,64
 125 -34 125 -34 177 -34 c 4,65,66
 196 -34 196 -34 208.5 -46 c 132,-1,67
 221 -58 221 -58 221 -75 c 4,68,69
 221 -83 221 -83 214.5 -101 c 132,-1,70
 208 -119 208 -119 208 -126 c 4,71,72
 208 -149 208 -149 237 -149 c 4,73,74
 305 -149 305 -149 342 -65.5 c 132,-1,75
 379 18 379 18 439 266 c 6,76,-1
 488 465 l 5,77,-1
 397 465 l 5,78,-1
 274 465 l 5,79,80
 263 400 263 400 243 323 c 132,-1,81
 223 246 223 246 188.5 154.5 c 132,-1,82
 154 63 154 63 113 -9.5 c 132,-1,83
 72 -82 72 -82 16 -131 c 132,-1,84
 -40 -180 -40 -180 -100 -180 c 4,85,86
 -142 -180 -142 -180 -166 -155.5 c 132,-1,87
 -190 -131 -190 -131 -190 -96 c 4,88,89
 -190 -34 -190 -34 -138 -34 c 4,90,91
 -119 -34 -119 -34 -106.5 -46 c 132,-1,92
 -94 -58 -94 -58 -94 -75 c 4,93,94
 -94 -83 -94 -83 -100.5 -101 c 132,-1,95
 -107 -119 -107 -119 -107 -126 c 4,96,97
 -107 -149 -107 -149 -78 -149 c 4,98,99
 -10 -149 -10 -149 27 -65.5 c 4,100,101
 61.8859749145 13.7410001629 61.8859749145 13.7410001629 124 266 c 6,102,-1
 173 465 l 5,0,-1
EndSplineSet
LCarets2: 1 0
Ligature2: "'liga' Ligatures standard dans Latin lookup 0" f f
EndChar

StartChar: f_f_i
Encoding: 233 64259 233
Width: 899
GlyphClass: 3
Flags: W
HStem: -180 31<-105.58 -35.2422 209.42 279.758> -12 54<681.5 763.168> 465 25<86 173 278 488 593 740.75> 671 25<345.496 409.72> 707 20G<697.25 757.75>
VStem: -190 83<-148.473 -58.6299> 125 83<-148.473 -58.6299> 417 72<604.137 664.917> 630 96<42.3129 143.5> 779 72<635.137 695.901>
LayerCount: 2
Fore
SplineSet
496 490 m 1,0,1
 505 526 505 526 522.5 564.5 c 128,-1,2
 540 603 540 603 566 641 c 128,-1,3
 592 679 592 679 629.5 703 c 128,-1,4
 667 727 667 727 727.5 727 c 128,-1,5
 788 727 788 727 819.5 705 c 128,-1,6
 851 683 851 683 851 648 c 0,7,8
 851 619 851 619 837.5 601.5 c 128,-1,9
 824 584 824 584 800 584 c 0,10,11
 781 584 781 584 768 595.5 c 128,-1,12
 755 607 755 607 755 624 c 0,13,14
 755 637 755 637 767 651.5 c 128,-1,15
 779 666 779 666 779 676.5 c 128,-1,16
 779 687 779 687 769 695 c 1,17,18
 636.364257812 727.419921875 636.364257812 727.419921875 593 490 c 1,19,-1
 690 490 l 1,20,-1
 695 490 l 1,21,-1
 732 490 l 2,22,23
 788 490 788 490 844 496 c 1,24,-1
 735 104 l 2,25,26
 726 72 726 72 726 62 c 0,27,28
 726 42 726 42 748 42 c 0,29,30
 783 42 783 42 866 162 c 1,31,-1
 886 148 l 1,32,33
 871 125 871 125 849 97 c 128,-1,34
 827 69 827 69 805.5 45 c 128,-1,35
 784 21 784 21 754.5 4.5 c 128,-1,36
 725 -12 725 -12 696 -12 c 128,-1,37
 667 -12 667 -12 648.5 5.5 c 128,-1,38
 630 23 630 23 630 48 c 0,39,40
 630 67.7373046875 630 67.7373046875 646 125 c 2,41,-1
 741 465 l 1,42,-1
 689 465 l 1,43,-1
 685 465 l 1,44,-1
 589 465 l 1,45,46
 578 400 578 400 558 323 c 128,-1,47
 538 246 538 246 503.5 154.5 c 128,-1,48
 469 63 469 63 428 -9.5 c 128,-1,49
 387 -82 387 -82 331 -131 c 128,-1,50
 275 -180 275 -180 215 -180 c 0,51,52
 173 -180 173 -180 149 -155.5 c 128,-1,53
 125 -131 125 -131 125 -96 c 0,54,55
 125 -34 125 -34 177 -34 c 0,56,57
 196 -34 196 -34 208.5 -46 c 128,-1,58
 221 -58 221 -58 221 -75 c 0,59,60
 221 -83 221 -83 214.5 -101 c 128,-1,61
 208 -119 208 -119 208 -126 c 0,62,63
 208 -149 208 -149 237 -149 c 0,64,65
 305 -149 305 -149 342 -65.5 c 0,66,67
 376.885742188 13.7412109375 376.885742188 13.7412109375 439 266 c 2,68,-1
 488 465 l 1,69,-1
 397 465 l 1,70,-1
 394 465 l 1,71,-1
 274 465 l 1,72,73
 263 400 263 400 243 323 c 128,-1,74
 223 246 223 246 188.5 154.5 c 128,-1,75
 154 63 154 63 113 -9.5 c 128,-1,76
 72 -82 72 -82 16 -131 c 128,-1,77
 -40 -180 -40 -180 -100 -180 c 0,78,79
 -142 -180 -142 -180 -166 -155.5 c 128,-1,80
 -190 -131 -190 -131 -190 -96 c 0,81,82
 -190 -34 -190 -34 -138 -34 c 0,83,84
 -119 -34 -119 -34 -106.5 -46 c 128,-1,85
 -94 -58 -94 -58 -94 -75 c 0,86,87
 -94 -83 -94 -83 -100.5 -101 c 128,-1,88
 -107 -119 -107 -119 -107 -126 c 0,89,90
 -107 -149 -107 -149 -78 -149 c 0,91,92
 -10 -149 -10 -149 27 -65.5 c 0,93,94
 61.8857421875 13.7412109375 61.8857421875 13.7412109375 124 266 c 2,95,-1
 173 465 l 1,96,-1
 79 465 l 1,97,-1
 86 490 l 1,98,-1
 181 490 l 1,99,100
 191 512 191 512 201.5 533.5 c 0,101,102
 219 572 219 572 245 610 c 128,-1,103
 271 648 271 648 308.5 672 c 128,-1,104
 346 696 346 696 388 696 c 0,105,106
 426 696 426 696 457.5 674 c 128,-1,107
 489 652 489 652 489 617 c 0,108,109
 489 588 489 588 475.5 570.5 c 128,-1,110
 462 553 462 553 438 553 c 0,111,112
 419 553 419 553 406 564.5 c 128,-1,113
 393 576 393 576 393 593 c 0,114,115
 393 606 393 606 405 620.5 c 128,-1,116
 417 635 417 635 417 646 c 128,-1,117
 417 657 417 657 407.5 664 c 128,-1,118
 398 671 398 671 385 671 c 0,119,120
 340 671 340 671 319.5 625 c 0,121,122
 298 575 298 575 278 490 c 1,123,-1
 401 490 l 1,124,-1
 403 490 l 1,125,-1
 496 490 l 1,0,1
EndSplineSet
LCarets2: 2 0 0
Ligature2: "'liga' Ligatures standard dans Latin lookup 0" f f i
EndChar

StartChar: f_f_l
Encoding: 234 64260 234
Width: 945
GlyphClass: 3
Flags: W
HStem: -180 31<-105.608 -35.2705 209.792 279.429> -12 54<725.5 805.736> 465 25<85.9717 172.972 277.972 487.972 593 689> 671 25<345.467 409.692> 688.078 38.9219<690.273 840.648>
VStem: -190.028 83<-148.473 -58.6299> 124.972 83.0283<-148.473 -58.6299> 416.972 72<604.137 664.917> 674 96<42.3129 142.763>
LayerCount: 2
Fore
SplineSet
846.884765625 686.010742188 m 1,0,-1
 848 690 l 1,1,-1
 845.443359375 685.526367188 l 1,2,-1
 846.884765625 686.010742188 l 1,0,-1
496 490 m 1,3,4
 505 526 505 526 522.5 564.5 c 128,-1,5
 540 603 540 603 566 641 c 128,-1,6
 592 679 592 679 629.5 703 c 128,-1,7
 667 727 667 727 727.5 727 c 128,-1,8
 788 727 788 727 858 705 c 0,9,10
 869.963867188 701.240234375 869.963867188 701.240234375 879.8828125 697.099609375 c 1,11,-1
 951 721 l 1,12,-1
 927.41015625 636.377929688 l 2,13,14
 925.858398438 621.756835938 925.858398438 621.756835938 920.227539062 610.611328125 c 2,15,-1
 779 104 l 2,16,17
 770 72 770 72 770 62 c 0,18,19
 770 42 770 42 792 42 c 0,20,21
 829 42 829 42 901 170 c 1,22,-1
 922 159 l 1,23,24
 835 -12 835 -12 740 -12 c 0,25,26
 711 -12 711 -12 692.5 5.5 c 128,-1,27
 674 23 674 23 674 48 c 0,28,29
 674 67.78515625 674 67.78515625 690 125 c 2,30,-1
 841.649414062 667.2890625 l 1,31,32
 836.3046875 676.331054688 836.3046875 676.331054688 821 682 c 0,33,34
 807 687 807 687 769 688 c 0,35,36
 766.33984375 688.078125 766.33984375 688.078125 763.716796875 688.078125 c 0,37,38
 631.243164062 688.078125 631.243164062 688.078125 593 490 c 1,39,-1
 694.971679688 490 l 1,40,-1
 689 465 l 1,41,-1
 688.971679688 465 l 1,42,-1
 589 465 l 1,43,44
 578 400 578 400 558 323 c 128,-1,45
 538 246 538 246 503.5 154.5 c 128,-1,46
 469 63 469 63 428 -9.5 c 128,-1,47
 387 -82 387 -82 331 -131 c 128,-1,48
 275 -180 275 -180 215 -180 c 2,49,-1
 214.986282349 -179.99999931 l 1,50,-1
 214.971679688 -180 l 2,51,52
 172.971679688 -180 172.971679688 -180 148.971679688 -155.5 c 128,-1,53
 124.971679688 -131 124.971679688 -131 124.971679688 -96 c 0,54,55
 124.971679688 -34 124.971679688 -34 176.971679688 -34 c 2,56,-1
 176.984512329 -34.0000013719 l 1,57,-1
 177 -34 l 2,58,59
 196 -34 196 -34 208.5 -46 c 128,-1,60
 221 -58 221 -58 221 -75 c 0,61,62
 221 -83 221 -83 214.5 -101 c 128,-1,63
 208 -119 208 -119 208 -126 c 0,64,65
 208 -148.994910631 208 -148.994910631 236.987167358 -148.999998895 c 0,66,67
 304.975893354 -148.990490757 304.975893354 -148.990490757 341.971679688 -65.5 c 0,68,69
 376.857421875 13.7412109375 376.857421875 13.7412109375 438.971679688 266 c 2,70,-1
 487.971679688 465 l 1,71,-1
 396.971679688 465 l 1,72,-1
 394 465 l 1,73,-1
 273.971679688 465 l 1,74,75
 262.971679688 400 262.971679688 400 242.971679688 323 c 128,-1,76
 222.971679688 246 222.971679688 246 188.471679688 154.5 c 128,-1,77
 153.971679688 63 153.971679688 63 112.971679688 -9.5 c 128,-1,78
 71.9716796875 -82 71.9716796875 -82 15.9716796875 -131 c 128,-1,79
 -40.0283203125 -180 -40.0283203125 -180 -100.028320312 -180 c 0,80,81
 -142.028320312 -180 -142.028320312 -180 -166.028320312 -155.5 c 128,-1,82
 -190.028320312 -131 -190.028320312 -131 -190.028320312 -96 c 0,83,84
 -190.028320312 -34 -190.028320312 -34 -138.028320312 -34 c 0,85,86
 -119.028320312 -34 -119.028320312 -34 -106.528320312 -46 c 128,-1,87
 -94.0283203125 -58 -94.0283203125 -58 -94.0283203125 -75 c 0,88,89
 -94.0283203125 -83 -94.0283203125 -83 -100.528320312 -101 c 128,-1,90
 -107.028320312 -119 -107.028320312 -119 -107.028320312 -126 c 0,91,92
 -107.028320312 -149 -107.028320312 -149 -78.0283203125 -149 c 0,93,94
 -10.0283203125 -149 -10.0283203125 -149 26.9716796875 -65.5 c 0,95,96
 61.857421875 13.7412109375 61.857421875 13.7412109375 123.971679688 266 c 2,97,-1
 172.971679688 465 l 1,98,-1
 78.9716796875 465 l 1,99,-1
 85.9716796875 490 l 1,100,-1
 180.971679688 490 l 1,101,102
 190.971679688 512 190.971679688 512 201.471679688 533.5 c 0,103,104
 218.971679688 572 218.971679688 572 244.971679688 610 c 128,-1,105
 270.971679688 648 270.971679688 648 308.471679688 672 c 128,-1,106
 345.971679688 696 345.971679688 696 387.971679688 696 c 0,107,108
 425.971679688 696 425.971679688 696 457.471679688 674 c 128,-1,109
 488.971679688 652 488.971679688 652 488.971679688 617 c 0,110,111
 488.971679688 588 488.971679688 588 475.471679688 570.5 c 128,-1,112
 461.971679688 553 461.971679688 553 437.971679688 553 c 0,113,114
 418.971679688 553 418.971679688 553 405.971679688 564.5 c 128,-1,115
 392.971679688 576 392.971679688 576 392.971679688 593 c 0,116,117
 392.971679688 606 392.971679688 606 404.971679688 620.5 c 128,-1,118
 416.971679688 635 416.971679688 635 416.971679688 646 c 128,-1,119
 416.971679688 657 416.971679688 657 407.471679688 664 c 128,-1,120
 397.971679688 671 397.971679688 671 384.971679688 671 c 0,121,122
 339.971679688 671 339.971679688 671 319.471679688 625 c 0,123,124
 297.971679688 575 297.971679688 575 277.971679688 490 c 1,125,-1
 401 490 l 1,126,-1
 402.971679688 490 l 1,127,-1
 496 490 l 1,3,4
EndSplineSet
LCarets2: 2 0 0
Ligature2: "'liga' Ligatures standard dans Latin lookup 0" f f l
EndChar

